<?xml version="1.0" encoding="UTF-8" standalone="no"?>
<!-- Created with Inkscape (http://www.inkscape.org/) -->

<svg
   xmlns:dc="http://purl.org/dc/elements/1.1/"
   xmlns:cc="http://creativecommons.org/ns#"
   xmlns:rdf="http://www.w3.org/1999/02/22-rdf-syntax-ns#"
   xmlns:svg="http://www.w3.org/2000/svg"
   xmlns="http://www.w3.org/2000/svg"
   xmlns:xlink="http://www.w3.org/1999/xlink"
   xmlns:sodipodi="http://sodipodi.sourceforge.net/DTD/sodipodi-0.dtd"
   xmlns:inkscape="http://www.inkscape.org/namespaces/inkscape"
   width="699.61035"
   height="138.633"
   id="svg5599"
   version="1.1"
   inkscape:version="0.48.1 "
   sodipodi:docname="bmce-bank_logo.svg">
  <defs
     id="defs5601">
    <clipPath
       clipPathUnits="userSpaceOnUse"
       id="clipPath5256">
      <path
         inkscape:connector-curvature="0"
         d="m 42.67,42.67 736.708,0 0,1020.173 -736.708,0 0,-1020.173 z"
         id="path5258" />
    </clipPath>
    <clipPath
       clipPathUnits="userSpaceOnUse"
       id="clipPath1576">
      <path
         inkscape:connector-curvature="0"
         d="m 351.973,98.109 c -0.211,-0.825 -0.5,-1.678 -0.894,-2.413 l 0,0 c -0.014,-0.027 -0.029,-0.054 -0.043,-0.08 l 0,0 1.071,0.063 c 0.012,0.021 0.022,0.042 0.034,0.063 l 0,0 c 0.393,0.727 0.674,1.56 0.875,2.367 l 0,0 -1.043,0 z"
         id="path1578" />
    </clipPath>
    <clipPath
       clipPathUnits="userSpaceOnUse"
       id="clipPath1562">
      <path
         inkscape:connector-curvature="0"
         d="m 351.973,98.109 c -0.211,-0.825 -0.5,-1.678 -0.894,-2.413 l 0,0 c -0.014,-0.027 -0.029,-0.054 -0.043,-0.08 l 0,0 1.071,0.063 c 0.012,0.021 0.022,0.042 0.034,0.063 l 0,0 c 0.393,0.727 0.674,1.56 0.875,2.367 l 0,0 -1.043,0 z"
         id="path1564" />
    </clipPath>
    <clipPath
       clipPathUnits="userSpaceOnUse"
       id="clipPath1548">
      <path
         inkscape:connector-curvature="0"
         d="m 357.209,98.109 c 0.329,-0.446 1.455,-1.826 2.827,-2.421 l 0,0 0,0.266 c -1.127,0.53 -2.121,1.642 -2.526,2.155 l 0,0 -0.301,0 z m -6.318,0 c -0.113,-0.424 -0.241,-0.799 -0.368,-1.125 l 0,0 c -0.189,-0.486 -0.387,-0.864 -0.531,-1.116 l 0,0 c -0.144,-0.261 -0.234,-0.378 -0.234,-0.378 l 0,0 0,-0.144 0.126,-0.054 c 0.855,0.153 1.62,0.207 2.268,0.207 l 0,0 c 0.765,0 1.368,-0.072 1.791,-0.117 l 0,0 c 0.288,-0.027 0.477,-0.063 0.675,-0.099 l 0,0 c 1.323,-0.252 2.376,-0.342 3.204,-0.342 l 0,0 c 0.019,0 0.037,0 0.056,0 l 0,0 c 1.017,0 1.705,0.143 2.158,0.292 l 0,0 0,0.258 c -0.432,-0.151 -1.12,-0.307 -2.214,-0.307 l 0,0 c -0.81,0 -1.845,0.09 -3.159,0.342 l 0,0 c -0.198,0.036 -0.396,0.072 -0.693,0.099 l 0,0 c -0.423,0.045 -1.044,0.117 -1.818,0.117 l 0,0 c -0.004,0 -0.007,0 -0.011,0 l 0,0 c -0.012,-0.021 -0.022,-0.042 -0.034,-0.063 l 0,0 -1.071,-0.063 c 0.014,0.026 0.029,0.053 0.043,0.08 l 0,0 c -0.306,-0.025 -0.628,-0.063 -0.966,-0.116 l 0,0 c 0.237,0.392 0.697,1.253 1.03,2.529 l 0,0 -0.252,0 z"
         id="path1550" />
    </clipPath>
    <clipPath
       clipPathUnits="userSpaceOnUse"
       id="clipPath1534">
      <path
         inkscape:connector-curvature="0"
         d="m 357.209,98.109 c 0.329,-0.446 1.455,-1.826 2.827,-2.421 l 0,0 0,0.266 c -1.127,0.53 -2.121,1.642 -2.526,2.155 l 0,0 -0.301,0 z m -6.318,0 c -0.113,-0.424 -0.241,-0.799 -0.368,-1.125 l 0,0 c -0.189,-0.486 -0.387,-0.864 -0.531,-1.116 l 0,0 c -0.144,-0.261 -0.234,-0.378 -0.234,-0.378 l 0,0 0,-0.144 0.126,-0.054 c 0.855,0.153 1.62,0.207 2.268,0.207 l 0,0 c 0.765,0 1.368,-0.072 1.791,-0.117 l 0,0 c 0.288,-0.027 0.477,-0.063 0.675,-0.099 l 0,0 c 1.323,-0.252 2.376,-0.342 3.204,-0.342 l 0,0 c 0.019,0 0.037,0 0.056,0 l 0,0 c 1.017,0 1.705,0.143 2.158,0.292 l 0,0 0,0.258 c -0.432,-0.151 -1.12,-0.307 -2.214,-0.307 l 0,0 c -0.81,0 -1.845,0.09 -3.159,0.342 l 0,0 c -0.198,0.036 -0.396,0.072 -0.693,0.099 l 0,0 c -0.423,0.045 -1.044,0.117 -1.818,0.117 l 0,0 c -0.004,0 -0.007,0 -0.011,0 l 0,0 c -0.012,-0.021 -0.022,-0.042 -0.034,-0.063 l 0,0 -1.071,-0.063 c 0.014,0.026 0.029,0.053 0.043,0.08 l 0,0 c -0.306,-0.025 -0.628,-0.063 -0.966,-0.116 l 0,0 c 0.237,0.392 0.697,1.253 1.03,2.529 l 0,0 -0.252,0 z"
         id="path1536" />
    </clipPath>
    <clipPath
       clipPathUnits="userSpaceOnUse"
       id="clipPath1520">
      <path
         inkscape:connector-curvature="0"
         d="m 353.016,98.109 c -0.201,-0.807 -0.482,-1.64 -0.875,-2.367 l 0,0 c 0.004,0 0.007,0 0.011,0 l 0,0 c 0.774,0 1.395,-0.072 1.818,-0.117 l 0,0 c 0.297,-0.027 0.495,-0.063 0.693,-0.099 l 0,0 c 1.314,-0.252 2.349,-0.342 3.159,-0.342 l 0,0 c 1.094,0 1.782,0.156 2.214,0.307 l 0,0 0,0.197 c -1.372,0.595 -2.498,1.975 -2.827,2.421 l 0,0 -4.193,0 z m -1.873,0 c -0.333,-1.276 -0.793,-2.137 -1.03,-2.529 l 0,0 c 0.338,0.053 0.66,0.091 0.966,0.116 l 0,0 c 0.394,0.735 0.683,1.588 0.894,2.413 l 0,0 -0.83,0 z"
         id="path1522" />
    </clipPath>
    <clipPath
       clipPathUnits="userSpaceOnUse"
       id="clipPath1506">
      <path
         inkscape:connector-curvature="0"
         d="m 353.016,98.109 c -0.201,-0.807 -0.482,-1.64 -0.875,-2.367 l 0,0 c 0.004,0 0.007,0 0.011,0 l 0,0 c 0.774,0 1.395,-0.072 1.818,-0.117 l 0,0 c 0.297,-0.027 0.495,-0.063 0.693,-0.099 l 0,0 c 1.314,-0.252 2.349,-0.342 3.159,-0.342 l 0,0 c 1.094,0 1.782,0.156 2.214,0.307 l 0,0 0,0.197 c -1.372,0.595 -2.498,1.975 -2.827,2.421 l 0,0 -4.193,0 z m -1.873,0 c -0.333,-1.276 -0.793,-2.137 -1.03,-2.529 l 0,0 c 0.338,0.053 0.66,0.091 0.966,0.116 l 0,0 c 0.394,0.735 0.683,1.588 0.894,2.413 l 0,0 -0.83,0 z"
         id="path1508" />
    </clipPath>
    <clipPath
       clipPathUnits="userSpaceOnUse"
       id="clipPath1632">
      <path
         inkscape:connector-curvature="0"
         d="m 334.751,98.109 c 0.021,-0.042 0.065,-0.069 0.139,-0.081 l 0,0 c 0.015,-0.003 0.031,-0.005 0.046,-0.005 l 0,0 c 0.076,0 0.154,0.035 0.231,0.086 l 0,0 -0.416,0 z m -2.187,0 c 0.12,-0.082 0.295,-0.145 0.563,-0.145 l 0,0 c 0.02,0 0.04,0 0.062,0.001 l 0,0 c 0.31,0.007 0.522,0.067 0.667,0.144 l 0,0 -1.292,0 z m -2.867,0 c -0.282,-0.469 -1.745,-2.696 -1.836,-2.862 l 0,0 c -0.099,-0.18 -1.071,-1.917 -0.945,-2.736 l 0,0 c 0.054,-0.352 0.204,-0.492 0.397,-0.492 l 0,0 c 0.255,0 0.586,0.248 0.863,0.582 l 0,0 c 0.495,0.594 1.647,2.403 1.809,3.285 l 0,0 c 0.153,0.891 0.297,1.359 0.279,1.674 l 0,0 c -0.034,0.298 -0.084,0.491 0.017,0.549 l 0,0 -0.584,0 z m -2.412,-5.697 c -0.594,0.549 1.206,3.402 1.377,3.699 l 0,0 c 0.168,0.284 1.065,1.603 1.21,1.603 l 0,0 c 10e-4,0 0.003,0 0.005,-0.001 l 0,0 c 0.387,-0.108 -0.468,-2.556 -0.513,-2.709 l 0,0 c -0.041,-0.14 -1.253,-2.66 -1.912,-2.66 l 0,0 c -0.062,0 -0.117,0.022 -0.167,0.068 m -1.904,5.697 c 0.107,-0.076 0.251,-0.138 0.455,-0.162 l 0,0 c 0.01,-0.001 0.021,-0.002 0.031,-0.002 l 0,0 c 0.092,0 0.197,0.034 0.293,0.074 l 0,0 c 0.09,0.032 0.181,0.073 0.237,0.073 l 0,0 c 0.005,0 0.011,0 0.015,-0.001 l 0,0 c 0.11,-0.017 0.212,-0.082 0.329,-0.082 l 0,0 c 0.008,0 0.015,0 0.022,0.001 l 0,0 c 0.087,0.005 0.164,0.047 0.233,0.099 l 0,0 -1.615,0 z m -1.804,0 c -0.098,-0.021 -0.212,-0.071 -0.296,-0.071 l 0,0 c -0.051,0 -0.092,0.019 -0.114,0.071 l 0,0 -0.747,0 c -0.186,-0.11 -0.397,-0.198 -0.463,-0.198 l 0,0 c -0.109,0 -0.094,0.147 -0.198,0.147 l 0,0 c -0.008,0 -0.017,-0.001 -0.027,-0.003 l 0,0 c -0.126,-0.027 -0.639,-0.414 -0.486,-0.54 l 0,0 c 0.064,-0.053 0.163,-0.086 0.293,-0.086 l 0,0 c 0.202,0 0.477,0.08 0.805,0.293 l 0,0 c 0.174,0.114 0.299,0.152 0.404,0.152 l 0,0 c 0.103,0 0.187,-0.036 0.28,-0.071 l 0,0 c 0.089,-0.041 0.192,-0.074 0.322,-0.074 l 0,0 c 0.015,0 0.031,0.001 0.047,0.002 l 0,0 c 0.313,0.045 0.601,0.208 0.845,0.378 l 0,0 -0.665,0 z m -3.11,0 c -0.571,-0.242 -1.115,-0.431 -1.354,-0.522 l 0,0 c -0.203,-0.077 -0.76,-0.235 -1.35,-0.355 l 0,0 0,-0.232 c 0.48,0.098 0.913,0.223 1.143,0.308 l 0,0 c 0.464,0.171 1.272,0.367 2.207,0.801 l 0,0 -0.646,0 z"
         id="path1634" />
    </clipPath>
    <clipPath
       clipPathUnits="userSpaceOnUse"
       id="clipPath1618">
      <path
         inkscape:connector-curvature="0"
         d="m 323.379,95.688 c 0,-0.189 0.144,-0.279 0.306,-0.351 l 0,0 0.099,-0.036 c 0.117,-0.054 0.234,-0.117 0.234,-0.27 l 0,0 c 0,-0.144 -0.108,-0.27 -0.252,-0.27 l 0,0 c -0.153,0 -0.27,0.117 -0.27,0.27 l 0,0 -0.171,-0.036 c 0.027,-0.225 0.198,-0.396 0.423,-0.396 l 0,0 c 0.252,0 0.45,0.189 0.45,0.441 l 0,0 c -0.009,0.225 -0.153,0.333 -0.351,0.414 l 0,0 -0.099,0.036 c -0.081,0.036 -0.189,0.09 -0.189,0.198 l 0,0 c 0,0.126 0.117,0.198 0.225,0.198 l 0,0 c 0.108,0 0.171,-0.045 0.225,-0.126 l 0,0 0.135,0.081 c -0.072,0.135 -0.198,0.207 -0.351,0.207 l 0,0 c -0.216,0 -0.414,-0.135 -0.414,-0.36"
         id="path1620" />
    </clipPath>
    <clipPath
       clipPathUnits="userSpaceOnUse"
       id="clipPath1604">
      <path
         inkscape:connector-curvature="0"
         d="m 321.543,94.626 0.171,0 0,1.386 -0.171,0 0,-1.386 z"
         id="path1606" />
    </clipPath>
    <clipPath
       clipPathUnits="userSpaceOnUse"
       id="clipPath1590">
      <path
         inkscape:connector-curvature="0"
         d="m 319.131,96.012 0,-1.395 0.171,0 0,0.594 0.072,0 0.414,-0.585 0.207,0 -0.441,0.603 c 0.198,0.018 0.333,0.189 0.333,0.387 l 0,0 c 0,0.126 -0.063,0.261 -0.18,0.333 l 0,0 c -0.108,0.054 -0.243,0.063 -0.369,0.063 l 0,0 -0.207,0 z m 0.171,-0.153 0.045,0 c 0.171,0 0.378,-0.036 0.378,-0.252 l 0,0 c 0,-0.225 -0.189,-0.252 -0.369,-0.261 l 0,0 -0.054,0 0,0.513 z"
         id="path1592" />
    </clipPath>
    <clipPath
       clipPathUnits="userSpaceOnUse"
       id="clipPath1492">
      <path
         inkscape:connector-curvature="0"
         d="m 357.51,98.109 c 0.405,-0.513 1.399,-1.625 2.526,-2.155 l 0,0 0,2.155 -2.526,0 z m -10.002,0 0,-4.437 12.528,0 0,1.561 c -0.453,-0.149 -1.141,-0.292 -2.158,-0.292 l 0,0 c -0.019,0 -0.037,0 -0.056,0 l 0,0 c -0.828,0 -1.881,0.09 -3.204,0.342 l 0,0 c -0.198,0.036 -0.387,0.072 -0.675,0.099 l 0,0 c -0.423,0.045 -1.026,0.117 -1.791,0.117 l 0,0 c -0.648,0 -1.413,-0.054 -2.268,-0.207 l 0,0 -0.126,0.054 0,0.144 c 0,0 0.09,0.117 0.234,0.378 l 0,0 c 0.144,0.252 0.342,0.63 0.531,1.116 l 0,0 c 0.127,0.326 0.255,0.701 0.368,1.125 l 0,0 -3.383,0 z"
         id="path1494" />
    </clipPath>
    <clipPath
       clipPathUnits="userSpaceOnUse"
       id="clipPath2032">
      <path
         inkscape:connector-curvature="0"
         d="m 701.266,221.822 c -0.066,-0.247 -0.101,-0.494 -0.093,-0.738 l 0,0 0,-0.073 c 0.276,0.107 0.534,0.158 0.773,0.158 l 0,0 c 3.825,0 3.026,-13.046 3.017,-15.31 l 0,0 c 0,-0.009 0.003,-0.014 0.008,-0.014 l 0,0 c 0.09,0 0.905,1.396 0.957,1.491 l 0,0 c 0.273,0.437 0.521,0.6 0.521,1.157 l 0,0 0,1.094 c 0.026,4.654 0.667,7.869 -0.879,12.235 l 0,0 -4.304,0 z m -37.055,0 c -0.567,-1.219 -0.852,-2.559 -0.902,-3.927 l 0,0 c -0.045,-1.23 -0.183,-0.957 0.174,-3.854 l 0,0 c -0.018,0.1 0.865,1.176 0.955,1.33 l 0,0 c 0.21,0.365 0.729,1.048 0.675,1.495 l 0,0 c -0.182,1.485 -0.173,1.885 -0.164,2.833 l 0,0 c 0,0.437 0.009,0.865 0.028,1.303 l 0,0 c 0.006,0.248 0.023,0.496 0.047,0.747 l 0,0 c 0.125,0.025 0.258,0.036 0.395,0.036 l 0,0 c 0.983,0 2.231,-0.57 2.964,-0.711 l 0,0 c 0.005,0 0.009,-0.002 0.014,-0.002 l 0,0 c 0.125,0 0.39,0.323 0.672,0.75 l 0,0 -4.858,0 z"
         id="path2034" />
    </clipPath>
    <clipPath
       clipPathUnits="userSpaceOnUse"
       id="clipPath2020">
      <path
         inkscape:connector-curvature="0"
         d="m 692.998,241.583 c 1.787,-1 3.466,-2.2 4.995,-3.517 l 0,0 c 2.451,-2.132 4.628,-4.92 5.22,-8.192 l 0,0 c 0.383,-2.085 0.01,-4.034 -0.947,-5.911 l 0,0 c -0.322,-0.646 -0.8,-1.389 -1,-2.141 l 0,0 4.304,0 c -0.051,0.143 -0.104,0.289 -0.16,0.437 l 0,0 c -0.274,0.729 -0.729,1.475 -1.505,1.722 l 0,0 c -0.027,0.007 -0.094,0.011 -0.183,0.011 l 0,0 c -0.32,0 -0.909,-0.041 -0.909,-0.048 l 0,0 c -0.027,0.638 0.583,1.412 0.847,1.959 l 0,0 c 1.604,3.28 1.776,6.615 0.109,9.912 l 0,0 c -1.132,2.254 -2.919,4.164 -4.932,5.768 l 0,0 -5.839,0 z m -20.344,0 c -2.907,-2.307 -5.22,-5.681 -6.147,-9.249 l 0,0 c -0.401,-1.538 -0.173,-2.978 0.056,-4.508 l 0,0 c 0.153,-1.059 0.313,-2.173 0.558,-3.263 l 0,0 c -0.019,0 -0.037,0.001 -0.055,0.001 l 0,0 c -0.52,0 -1,-0.141 -1.379,-0.547 l 0,0 c -0.621,-0.664 -1.108,-1.405 -1.476,-2.195 l 0,0 4.858,0 c 0.506,0.766 1.062,1.875 0.945,2.077 l 0,0 c -1.339,2.36 -1.658,5.366 -2.004,8.017 l 0,0 c -0.374,2.889 0.355,4.401 2.278,6.159 l 0,0 c 1.537,1.41 3.323,2.559 5.224,3.508 l 0,0 -2.858,0 z"
         id="path2022" />
    </clipPath>
    <clipPath
       clipPathUnits="userSpaceOnUse"
       id="clipPath2008">
      <path
         inkscape:connector-curvature="0"
         d="m 685.184,247.276 c -4.128,-0.948 -8.254,-2.66 -11.726,-5.092 l 0,0 c -0.272,-0.191 -0.541,-0.393 -0.804,-0.601 l 0,0 2.858,0 c 2.289,1.141 4.745,1.989 7.139,2.642 l 0,0 c 0.514,0.138 1.029,0.197 1.545,0.197 l 0,0 c 1.269,0 2.538,-0.352 3.777,-0.707 l 0,0 c 1.741,-0.509 3.426,-1.24 5.025,-2.132 l 0,0 5.839,0 c -1.208,0.963 -2.498,1.817 -3.777,2.569 l 0,0 c -1.723,1.002 -3.563,1.795 -5.458,2.387 l 0,0 c -0.999,0.315 -2.495,0.811 -3.698,0.811 l 0,0 c -0.256,0 -0.499,-0.023 -0.72,-0.074"
         id="path2010" />
    </clipPath>
    <linearGradient
       x1="0"
       y1="0"
       x2="1"
       y2="0"
       gradientUnits="userSpaceOnUse"
       gradientTransform="matrix(0,-2.9908295,-2.9908295,0,37.861206,291.74936)"
       spreadMethod="pad"
       id="linearGradient630">
      <stop
         style="stop-opacity:1;stop-color:#fcc8af"
         offset="0"
         id="stop632" />
      <stop
         style="stop-opacity:1;stop-color:#da906f"
         offset="1"
         id="stop634" />
    </linearGradient>
    <linearGradient
       x1="0"
       y1="0"
       x2="1"
       y2="0"
       gradientUnits="userSpaceOnUse"
       gradientTransform="matrix(0,-2.9494934,-2.9494934,0,37.854309,291.67908)"
       spreadMethod="pad"
       id="linearGradient670">
      <stop
         style="stop-opacity:1;stop-color:#b24425"
         offset="0"
         id="stop672" />
      <stop
         style="stop-opacity:1;stop-color:#b04425"
         offset="0.601227"
         id="stop674" />
      <stop
         style="stop-opacity:1;stop-color:#a53923"
         offset="1"
         id="stop676" />
    </linearGradient>
    <clipPath
       clipPathUnits="userSpaceOnUse"
       id="clipPath838">
      <path
         inkscape:connector-curvature="0"
         d="m 0,0 419.528,0 0,595.276 L 0,595.276 0,0 z"
         id="path840" />
    </clipPath>
    <clipPath
       clipPathUnits="userSpaceOnUse"
       id="clipPath4352-1">
      <path
         inkscape:connector-curvature="0"
         d="m 291.969,52.074 487.557,0 0,677.16 -487.557,0 0,-677.16 z"
         id="path4354-74" />
    </clipPath>
    <clipPath
       clipPathUnits="userSpaceOnUse"
       id="clipPath7530">
      <path
         inkscape:connector-curvature="0"
         d="m 363.551,89.956 14.355,0 0,26.111 -14.355,0 0,-26.111 z"
         id="path7532-5" />
    </clipPath>
    <clipPath
       clipPathUnits="userSpaceOnUse"
       id="clipPath6826">
      <path
         inkscape:connector-curvature="0"
         d="m 372.923,103.607 c -0.548,-0.275 -1.075,-0.067 -1.075,-0.067 l 0,0 c -0.516,0.374 -0.856,0.385 -0.856,0.385 l 0,0 c -0.603,0.165 -0.958,-0.34 -0.958,-0.34 l 0,0 c -0.528,-0.352 -1.281,-0.099 -1.281,-0.099 l 0,0 c -0.67,0.361 -0.91,0.385 -0.91,0.385 l 0,0 c -0.484,0.054 -0.649,-0.122 -0.649,-0.122 l 0,0 c -0.395,-0.351 -0.987,-0.328 -0.987,-0.328 l 0,0 c -1.043,-0.889 0.022,-1.779 0.022,-1.779 l 0,0 c -1.273,-1.009 0.012,-1.908 0.012,-1.908 l 0,0 c -1.153,-0.945 -0.012,-1.823 -0.012,-1.823 l 0,0 c -1.086,-0.944 0,-1.833 0,-1.833 l 0,0 c -0.932,-0.79 -0.373,-1.734 -0.373,-1.734 l 0,0 c 0.966,-1.459 2.074,0.011 2.074,0.011 l 0,0 c 0.988,-1.339 2.03,0 2.03,0 l 0,0 c 0.692,-0.478 0.799,-1.002 0.812,-1.212 l 0,0 c -10e-4,-0.032 -10e-4,-0.062 0.001,-0.094 l 0,0 c 0,0 0.004,0.034 -0.001,0.094 l 0,0 c 0.031,0.747 0.779,1.212 0.779,1.212 l 0,0 c 1.187,-1.372 2.076,-0.022 2.076,-0.022 l 0,0 c 1.382,-1.131 2.051,0.022 2.051,0.022 l 0,0 c 0.735,1.086 -0.428,1.712 -0.428,1.712 l 0,0 c 1.251,0.834 0.154,1.932 0.154,1.932 l 0,0 c 1.064,1.108 -0.034,1.821 -0.034,1.821 l 0,0 c 1.087,0.868 0.034,1.877 0.034,1.877 l 0,0 c 1.021,0.681 0.076,1.843 0.076,1.843 l 0,0 c -0.57,-0.109 -0.855,0.209 -0.855,0.209 l 0,0 c -0.494,0.242 -0.79,0.221 -0.79,0.221 l 0,0 c -0.025,0.002 -0.049,0.003 -0.073,0.003 l 0,0 c -0.453,0 -0.839,-0.366 -0.839,-0.366"
         id="path6828-5" />
    </clipPath>
    <clipPath
       clipPathUnits="userSpaceOnUse"
       id="clipPath6416-0">
      <path
         inkscape:connector-curvature="0"
         d="m 363.551,89.956 14.355,0 0,26.111 -14.355,0 0,-26.111 z"
         id="path6418-1" />
    </clipPath>
    <clipPath
       clipPathUnits="userSpaceOnUse"
       id="clipPath682-1">
      <path
         inkscape:connector-curvature="0"
         d="m 291.968,52.072 487.56,0 0,645.298 -487.56,0 0,-645.298 z"
         id="path684-7" />
    </clipPath>
    <clipPath
       clipPathUnits="userSpaceOnUse"
       id="clipPath4614">
      <path
         inkscape:connector-curvature="0"
         d="m 541.417,384.294 238.11,0 0,336.924 -238.11,0 0,-336.924 z"
         id="path4616-8" />
    </clipPath>
    <clipPath
       clipPathUnits="userSpaceOnUse"
       id="clipPath4748">
      <path
         inkscape:connector-curvature="0"
         d="m 779.584,666.751 2.95,0 0,-4.917 -2.95,0 0,4.917 z"
         id="path4750-8" />
    </clipPath>
    <radialGradient
       fx="0"
       fy="0"
       cx="0"
       cy="0"
       r="1"
       gradientUnits="userSpaceOnUse"
       gradientTransform="matrix(36.346298,0,0,-36.233704,393.49316,165.02299)"
       spreadMethod="pad"
       id="radialGradient1188">
      <stop
         style="stop-opacity:1;stop-color:#3871c1"
         offset="0"
         id="stop1190" />
      <stop
         style="stop-opacity:1;stop-color:#2e3192"
         offset="1"
         id="stop1192" />
    </radialGradient>
    <clipPath
       clipPathUnits="userSpaceOnUse"
       id="clipPath772">
      <path
         inkscape:connector-curvature="0"
         d="m 415.144,161.97 c -3.525,-0.965 -6.942,-2.721 -9.441,-4.549 l 0,0 c -0.44,-0.316 -0.95,-0.65 -1.358,-0.99 l 0,0 c -0.544,-0.449 -1.014,-0.968 -1.498,-1.449 l 0,0 c -2.297,-2.324 -3.914,-5.111 -4.279,-7.626 l 0,0 c -0.205,-1.413 0.116,-3.165 0.63,-4.483 l 0,0 c 2.378,-6.097 9.093,-7.731 13.795,-8.027 l 0,0 c -0.01,-0.002 -0.021,-0.003 -0.031,-0.004 l 0,0 c 0.297,0.027 0.194,0.017 0.476,0.044 l 0,0 c 2.254,0.25 4.44,0.77 6.51,1.525 l 0,0 c 2.867,1.043 5.518,2.54 7.858,4.402 l 0,0 c 0.841,0.657 1.631,1.364 2.388,2.12 l 0,0 c 3.229,3.229 5.674,7.218 7.03,11.675 l 0,0 c 0.511,1.693 0.871,3.455 1.052,5.271 l 0,0 c 0.041,0.382 0.075,0.748 0.092,1.132 l 0,0 c -2.25,0.734 -5.5,1.791 -7.687,2.027 l 0,0 c -1.927,0.215 -3.716,0.318 -5.41,0.318 l 0,0 c -3.662,0 -6.884,-0.485 -10.127,-1.386 m -2.93,-27.196 c 0.242,0.017 0.496,0.034 0.748,0.068 l 0,0 c -0.137,-0.012 -0.361,-0.033 -0.748,-0.068"
         id="path774-0" />
    </clipPath>
    <radialGradient
       fx="0"
       fy="0"
       cx="0"
       cy="0"
       r="1"
       gradientUnits="userSpaceOnUse"
       gradientTransform="matrix(56.317505,0,0,-56.165497,431.20268,184.17301)"
       spreadMethod="pad"
       id="radialGradient760">
      <stop
         style="stop-color:#ffffff;stop-opacity:1;"
         offset="0"
         id="stop762" />
      <stop
         style="stop-opacity:1;stop-color:#9b987c"
         offset="1"
         id="stop764-6" />
    </radialGradient>
    <clipPath
       clipPathUnits="userSpaceOnUse"
       id="clipPath612">
      <path
         inkscape:connector-curvature="0"
         d="m 41.5,41.5 738.028,0 0,1021.492 -738.028,0 0,-1021.492 z"
         id="path614-3" />
    </clipPath>
    <radialGradient
       inkscape:collect="always"
       xlink:href="#radialGradient760"
       id="radialGradient3900"
       cx="380.70233"
       cy="662.49786"
       fx="380.70233"
       fy="662.49786"
       r="60.602676"
       gradientTransform="matrix(1.87242,-0.10838234,0.2211061,1.1958652,-480.96231,-89.726234)"
       gradientUnits="userSpaceOnUse" />
    <radialGradient
       inkscape:collect="always"
       xlink:href="#radialGradient760"
       id="radialGradient4060"
       gradientUnits="userSpaceOnUse"
       gradientTransform="matrix(56.317505,0,0,-56.165497,431.20268,184.17301)"
       spreadMethod="pad"
       cx="0"
       cy="0"
       fx="0"
       fy="0"
       r="1" />
    <radialGradient
       inkscape:collect="always"
       xlink:href="#radialGradient1188"
       id="radialGradient4062"
       gradientUnits="userSpaceOnUse"
       gradientTransform="matrix(36.346298,0,0,-36.233704,393.49316,165.02299)"
       spreadMethod="pad"
       cx="0"
       cy="0"
       fx="0"
       fy="0"
       r="1" />
  </defs>
  <sodipodi:namedview
     id="base"
     pagecolor="#ffffff"
     bordercolor="#666666"
     borderopacity="1.0"
     inkscape:pageopacity="0.0"
     inkscape:pageshadow="2"
     inkscape:zoom="1.7238167"
     inkscape:cx="349.80518"
     inkscape:cy="69.316498"
     inkscape:document-units="px"
     inkscape:current-layer="layer1"
     showgrid="false"
     inkscape:window-width="1366"
     inkscape:window-height="706"
     inkscape:window-x="-8"
     inkscape:window-y="-8"
     inkscape:window-maximized="1"
     fit-margin-top="0"
     fit-margin-left="0"
     fit-margin-right="0"
     fit-margin-bottom="0" />
  <metadata
     id="metadata5604">
    <rdf:RDF>
      <cc:Work
         rdf:about="">
        <dc:format>image/svg+xml</dc:format>
        <dc:type
           rdf:resource="http://purl.org/dc/dcmitype/StillImage" />
        <dc:title />
      </cc:Work>
    </rdf:RDF>
  </metadata>
  <g
     inkscape:label="Calque 1"
     inkscape:groupmode="layer"
     id="layer1"
     transform="translate(-24.688568,-443.84902)">
    <g
       id="g4064">
      <path
         transform="matrix(1.1437856,0,0,2.0442134,-54.276774,-854.95836)"
         d="m 442.25526,669.26666 c 0,18.72723 -27.13274,33.90864 -60.60267,33.90864 -33.46994,0 -60.60268,-15.18141 -60.60268,-33.90864 0,-18.72722 27.13274,-33.90864 60.60268,-33.90864 33.46993,0 60.60267,15.18142 60.60267,33.90864 z"
         sodipodi:ry="33.908642"
         sodipodi:rx="60.602676"
         sodipodi:cy="669.26666"
         sodipodi:cx="381.65259"
         id="path3124"
         style="fill:url(#radialGradient3900);fill-opacity:1;stroke:none"
         sodipodi:type="arc" />
      <g
         transform="translate(-2.6485633,-10.691482)"
         id="g3902">
        <g
           id="g3904"
           transform="matrix(2.4661,0,0,-2.4661,-627.14608,925.33167)">
          <g
             clip-path="url(#clipPath612)"
             id="g3906">
            <path
               id="path3908"
               style="fill:#173e7d;fill-opacity:1;fill-rule:nonzero;stroke:none"
               d="m 549.083,147.783 -106.133,0 0,1.152 106.133,0 0,-1.152 z"
               inkscape:connector-curvature="0" />
            <g
               transform="translate(536.9462,153.37199)"
               id="g3910">
              <path
                 id="path3912"
                 style="fill:#173e7d;fill-opacity:1;fill-rule:nonzero;stroke:none"
                 d="m 0,0 c -0.72,0.668 -0.912,1.066 -1.168,0.646 -0.259,-0.41 -0.617,-0.962 -0.756,-1.194 -0.144,-0.239 -0.293,-0.391 0.106,-0.801 0.402,-0.413 0.353,-0.327 0.484,-0.476 0.129,-0.157 0.213,-0.294 0.518,0.166 0.31,0.462 0.504,0.893 0.683,1.173 C 0.047,-0.205 0.139,-0.104 0,0"
                 inkscape:connector-curvature="0" />
            </g>
            <g
               transform="translate(458.7141,166.907)"
               id="g3914">
              <path
                 id="path3916"
                 style="fill:#173e7d;fill-opacity:1;fill-rule:nonzero;stroke:none"
                 d="m 0,0 c -1.606,-0.271 -1.895,-0.221 -2.067,-0.797 -0.246,-0.883 -0.832,-2.028 -0.49,-1.978 0.34,0.055 1.455,0.336 1.834,0.502 C -0.293,-1.366 0.021,-0.489 0,0"
                 inkscape:connector-curvature="0" />
            </g>
            <g
               transform="translate(503.31219,152.237)"
               id="g3918">
              <path
                 id="path3920"
                 style="fill:#173e7d;fill-opacity:1;fill-rule:nonzero;stroke:none"
                 d="m 0,0 c 0.599,1.361 0.976,1.742 0.312,2.001 -0.65,0.284 -1.555,0.06 -2.223,-1.352 -0.677,-1.39 -1.115,-2.199 -0.349,-1.714 0.59,0.948 1.461,1.948 1.943,0.83 0.121,0 0.246,0.073 0.317,0.235"
                 inkscape:connector-curvature="0" />
            </g>
            <g
               transform="translate(493.4402,155.674)"
               id="g3922">
              <path
                 id="path3924"
                 style="fill:#173e7d;fill-opacity:1;fill-rule:nonzero;stroke:none"
                 d="m 0,0 c -1.064,-1.646 -1.257,-1.883 -1.087,-2.267 0.166,-0.392 0.845,-0.875 0.914,-1.067 0.705,1.089 1.087,1.451 1.164,1.784 C 0.965,-1.404 0.819,-0.946 0,0"
                 inkscape:connector-curvature="0" />
            </g>
            <g
               transform="translate(459.5712,154.192)"
               id="g3926">
              <path
                 id="path3928"
                 style="fill:#173e7d;fill-opacity:1;fill-rule:nonzero;stroke:none"
                 d="m 0,0 c -1.939,-0.7 -2.175,-0.7 -2.175,-0.7 -0.627,-1.974 -0.708,-2.239 -0.708,-2.239 2.059,0.482 2.18,0.549 2.18,0.549 C -0.072,-0.337 -0.127,-0.377 0,0"
                 inkscape:connector-curvature="0" />
            </g>
            <g
               transform="translate(458.5791,159.52699)"
               id="g3930">
              <path
                 id="path3932"
                 style="fill:#173e7d;fill-opacity:1;fill-rule:nonzero;stroke:none"
                 d="m 0,0 c -0.228,0 -0.269,-0.077 -0.34,-0.245 -0.947,-0.021 -0.812,-0.119 -0.992,0 -0.197,0.115 -0.25,0.14 -0.316,0.267 C -1.41,0.55 -0.832,1.469 0,1.539 0.022,0.071 0,0 0,0 M 6.07,0.268 C 6.289,0.963 6.576,0.75 7.305,0.768 7.346,0.646 7.26,0.55 7.184,0.335 6.826,0.355 6.77,0.235 6.6,0.04 6.125,-0.15 6.014,0.04 6.07,0.268 m 2.731,-1.435 c 0.754,1.238 1.5,2.276 1.287,2.561 -1,0.124 -1.6,0 -1.84,1.228 C 8.051,3.067 7.305,3.43 6.797,2.718 6.289,2.025 5.856,1.539 5.223,-0.346 4.979,-0.616 3.625,-1.222 3.338,-0.524 3.307,0.04 3.338,0.355 3.26,0.455 2.92,-0.464 2.949,-0.928 1.449,-1.167 1.037,-1.068 1.131,-1.119 1.102,0.268 1.084,1.647 1.037,3.715 0.992,3.966 0.891,4.056 -0.32,3.624 -2.15,0.427 c -0.629,-1.084 -1,-3.313 0.603,-3.412 0.432,0.024 1.137,0.797 1.586,1.818 0.053,-1.985 0.166,-2.686 0.166,-2.686 0.445,-0.065 1.772,0.316 2.186,1.009 0.484,-0.505 0.269,-0.67 1.593,-0.67 0.055,-0.732 0,-0.645 -0.263,-1.086 -0.291,-0.629 -0.635,-1.52 -0.635,-1.52 1.43,-1.245 1.701,-1.384 1.701,-1.384 0.901,2.029 0.901,2.061 0.901,2.061 -1.465,1.122 -1.44,1.157 -1.44,1.157 -0.041,0.486 -0.041,0.674 0.127,0.85 0.99,0.87 1.445,1.161 4.426,2.269"
                 inkscape:connector-curvature="0" />
            </g>
            <g
               transform="translate(470.3821,159.567)"
               id="g3934">
              <path
                 id="path3936"
                 style="fill:#173e7d;fill-opacity:1;fill-rule:nonzero;stroke:none"
                 d="M 0,0 C -0.361,-1.013 -1.207,-1.675 -4.188,-3.216 -4.254,-3.501 -4.485,-3.823 -2.779,-3.938 -1.086,-4.058 -0.168,-2.884 0,0"
                 inkscape:connector-curvature="0" />
            </g>
            <g
               transform="translate(474.23511,167.765)"
               id="g3938">
              <path
                 id="path3940"
                 style="fill:#173e7d;fill-opacity:1;fill-rule:nonzero;stroke:none"
                 d="m 0,0 c -0.996,-1.687 -0.996,-1.713 -0.996,-1.713 0.901,-1.509 0.938,-1.549 0.938,-1.549 1.115,1.915 1.187,1.915 1.187,1.915 -1.109,1.276 -1.041,1.136 -1.109,1.31"
                 inkscape:connector-curvature="0" />
            </g>
            <g
               transform="translate(477.0652,167.64101)"
               id="g3942">
              <path
                 id="path3944"
                 style="fill:#173e7d;fill-opacity:1;fill-rule:nonzero;stroke:none"
                 d="m 0,0 c -0.753,-1.132 -0.929,-1.375 -0.929,-1.375 0.025,-3.049 0,-3.309 0,-3.309 -0.625,0.02 -0.772,0.052 -0.772,0.052 -1.154,-2.403 -1.205,-2.619 -1.154,-2.815 1.377,-0.667 1.76,-0.817 1.76,-0.817 0,-0.286 0.215,-0.484 -0.145,-0.608 -0.359,-0.119 -2.154,-0.72 -3.027,-0.464 -0.164,3.539 -0.203,9.004 -0.313,9.269 -0.453,-0.505 -1.234,-1.667 -1.234,-1.667 0.096,-3.662 0.375,-10.355 0.375,-10.355 1.512,-0.098 4.828,0.539 5.531,3.121 0.403,1.474 0.918,2.687 -0.972,3.204 0.466,0.84 1.019,1.759 1.019,2.539 0,0.765 0,2.964 -0.139,3.225"
                 inkscape:connector-curvature="0" />
            </g>
            <g
               transform="translate(479.6261,164.9669)"
               id="g3946">
              <path
                 id="path3948"
                 style="fill:#173e7d;fill-opacity:1;fill-rule:nonzero;stroke:none"
                 d="m 0,0 c -0.609,-0.818 -0.898,-1.159 -0.898,-1.159 0.146,-5.541 0.076,-6.069 0.289,-6.248 0.269,-0.047 0.654,0.659 0.802,1.025 C 0.117,-1.384 0.137,-0.532 0,0"
                 inkscape:connector-curvature="0" />
            </g>
            <g
               transform="translate(485.7431,159.10789)"
               id="g3950">
              <path
                 id="path3952"
                 style="fill:#173e7d;fill-opacity:1;fill-rule:nonzero;stroke:none"
                 d="m 0,0 c -0.746,-1.165 -3.019,-2.444 -4.568,-3.042 0.502,-0.457 2.615,-0.905 3.779,0.309 C -0.34,-2.005 0.268,-0.932 0,0"
                 inkscape:connector-curvature="0" />
            </g>
            <g
               transform="translate(483.98309,164.9409)"
               id="g3954">
              <path
                 id="path3956"
                 style="fill:#173e7d;fill-opacity:1;fill-rule:nonzero;stroke:none"
                 d="m 0,0 c -0.421,0 -0.845,-0.269 -1.283,-1.155 -0.439,-0.9 -2.209,-3.955 -0.728,-5.113 0.55,-0.074 1.549,-0.381 2.396,2.248 C 0.698,-2.273 1.014,-0.294 0,0 m -0.39,-3.607 c -0.389,-0.752 -1.051,-0.188 -1.192,0.098 -0.14,1.182 0.489,1.162 0.803,1.039 0.508,-0.184 0.434,-0.627 0.389,-1.137"
                 inkscape:connector-curvature="0" />
            </g>
            <g
               transform="translate(483.34509,167.72791)"
               id="g3958">
              <path
                 id="path3960"
                 style="fill:#173e7d;fill-opacity:1;fill-rule:nonzero;stroke:none"
                 d="m 0,0 c -1.332,0 -1.576,-0.034 -1.576,-0.034 -0.666,-1.402 -1.032,-2.225 -1.032,-2.225 1.647,-0.044 1.768,0 1.768,0 0.867,2.201 0.797,1.887 0.867,2.225"
                 inkscape:connector-curvature="0" />
            </g>
            <g
               transform="translate(492.33321,167.21201)"
               id="g3962">
              <path
                 id="path3964"
                 style="fill:#173e7d;fill-opacity:1;fill-rule:nonzero;stroke:none"
                 d="m 0,0 c -1.488,-0.143 -1.895,-0.143 -1.895,-0.143 -0.601,-1.742 -0.847,-2.542 -0.847,-2.542 1.713,0.301 2.008,0.391 2.008,0.391 C -0.059,-0.285 -0.059,-0.261 0,0"
                 inkscape:connector-curvature="0" />
            </g>
            <g
               transform="translate(498.8802,167.48599)"
               id="g3966">
              <path
                 id="path3968"
                 style="fill:#173e7d;fill-opacity:1;fill-rule:nonzero;stroke:none"
                 d="m 0,0 c -1.012,-1.334 -1.035,-1.334 -1.035,-1.334 0.093,-5.086 0.093,-5.231 0.093,-5.231 -0.042,-0.183 0.247,-0.544 -1.351,-0.748 -0.342,6.214 -0.295,7.15 -0.295,7.15 -0.459,-0.472 -1.02,-1.391 -1.02,-1.391 0.077,-1.835 0.249,-2.183 0.104,-2.472 -0.147,-0.291 -0.633,-0.895 -1.137,-0.792 -0.369,0.095 -0.414,-0.197 -0.783,0.915 -0.228,0.152 -0.406,0.238 -1.08,-0.383 -0.68,-0.635 -2.273,-1.84 -2.93,-4.615 0.703,-0.031 1.022,-0.104 1.022,-0.104 -0.03,-0.432 -0.092,-0.728 -0.299,-0.742 -0.186,-0.036 -2.051,-0.106 -2.197,0 -0.241,8.797 -0.258,8.922 -0.258,8.922 -0.779,-1.206 -1.125,-1.904 -1.125,-1.904 0.195,-5.864 0.267,-9.493 0.346,-9.596 0.867,-0.089 3.214,-0.165 4.574,1.818 0.724,1.07 1.152,1.575 1.01,3.168 0.048,0.13 -0.262,0.201 -0.795,0.201 -0.08,0.48 0.023,1.325 0.724,0.986 0.436,-0.413 0.457,-0.596 0.676,-0.898 0.508,-0.101 1.254,-0.428 2.033,1.957 0.115,0.078 0.385,0.653 0.455,-4.782 0.248,-0.166 1.524,0.318 2.233,1.237 0.967,1.263 1.23,1.998 1.261,2.9 C 0.244,-4.844 0.029,-0.493 0,0"
                 inkscape:connector-curvature="0" />
            </g>
            <g
               transform="translate(505.7292,166.686)"
               id="g3970">
              <path
                 id="path3972"
                 style="fill:#173e7d;fill-opacity:1;fill-rule:nonzero;stroke:none"
                 d="m 0,0 c -0.869,-1.19 -1.054,-1.479 -1.054,-1.479 0.205,-2.038 0.326,-2.271 0.205,-2.367 -0.205,-0.123 -0.264,-0.326 -0.674,-0.172 -0.937,-2.032 -1.35,-2.521 -1.066,-2.614 1.187,-0.321 2.371,-0.404 1.912,-0.991 -0.436,-0.796 -5.778,-3.609 -5.174,1.906 0,0.205 0.016,1.049 -0.434,-0.479 -0.199,-1.093 -0.632,-3.461 0.334,-4.705 0.381,-0.504 1.668,-1.111 3.362,0.156 1.701,1.264 3.244,2.786 3.345,4.935 0.041,1.042 -1.259,0.983 -1.312,0.983 -0.102,0.809 0.484,0.443 0.697,1.553 C 0.196,-1.821 0.27,-0.564 0,0"
                 inkscape:connector-curvature="0" />
            </g>
            <g
               transform="translate(513.63609,166.75)"
               id="g3974">
              <path
                 id="path3976"
                 style="fill:#173e7d;fill-opacity:1;fill-rule:nonzero;stroke:none"
                 d="m 0,0 c -1.082,-1.809 -1.104,-1.853 -1.104,-1.853 -1.06,1.107 -1.164,1.282 -1.164,1.282 1.041,1.636 1.164,1.755 1.164,1.755 C 0,0 -0.166,0.243 0,0"
                 inkscape:connector-curvature="0" />
            </g>
            <g
               transform="translate(517.73109,167.93401)"
               id="g3978">
              <path
                 id="path3980"
                 style="fill:#173e7d;fill-opacity:1;fill-rule:nonzero;stroke:none"
                 d="m 0,0 c -0.679,-0.813 -0.796,-0.92 -0.796,-0.92 l 0.068,-6.018 c -0.024,-0.258 -0.277,-0.988 -1.357,-0.901 -0.532,0.126 -0.985,0.182 -0.985,0.541 0.063,0.43 1.141,1.134 1.084,2.204 -0.045,0.546 0.027,1.132 -1.428,1.033 -0.359,-0.027 -0.699,-0.065 -1.037,-0.851 -0.343,-0.777 -1.158,-1.848 -0.297,-2.194 0,-0.09 0.248,-0.246 -0.574,-0.359 -0.726,-0.192 -1.887,-0.587 -2.037,-1.599 -0.072,-0.366 -0.051,-1.167 -1.369,-1.639 -1.338,-0.497 -2.4,-1.14 -3.244,-1.198 -0.151,-0.02 -0.373,-0.359 0.09,-0.404 0.56,-0.309 2.029,-1.212 3.238,-0.12 0.389,0.329 0.693,0.842 0.732,1.496 0.309,0.334 0.821,0.868 1.157,1.028 0.628,0.088 1.648,0.143 2.345,1.13 0.133,-0.179 0.246,-1.668 2.617,-0.827 1.444,0.512 3.342,1.383 3.127,4.057 C 1.209,-5.392 0.967,-5.42 0.188,-5.485 0,-5.369 -0.361,-5.094 0.172,-4.548 0.188,-3.48 0.092,-0.625 0,0"
                 inkscape:connector-curvature="0" />
            </g>
            <g
               transform="translate(521.5771,165.547)"
               id="g3982">
              <path
                 id="path3984"
                 style="fill:#173e7d;fill-opacity:1;fill-rule:nonzero;stroke:none"
                 d="m 0,0 c -0.851,-1.216 -1.109,-1.6 -1.109,-1.6 0.187,-6.149 0.31,-6.67 0.31,-6.67 0.61,0.816 0.94,1.593 1.034,1.814 C 0.141,-1.216 0.197,-0.516 0,0"
                 inkscape:connector-curvature="0" />
            </g>
            <g
               transform="translate(526.3372,165.425)"
               id="g3986">
              <path
                 id="path3988"
                 style="fill:#173e7d;fill-opacity:1;fill-rule:nonzero;stroke:none"
                 d="M 0,0 C -0.207,-0.729 -0.643,-1.639 0.537,-1.762 0.512,-2.11 0.25,-3.241 -2.465,-3.631 c -0.113,-0.148 -0.342,-0.336 1.092,-0.317 0.748,0.122 2.205,0.488 2.66,3.099 C 0.953,-0.804 0.156,-0.99 0.25,-0.077 0.18,0 0.123,0.03 0,0"
                 inkscape:connector-curvature="0" />
            </g>
            <g
               transform="translate(527.3372,166.00391)"
               id="g3990">
              <path
                 id="path3992"
                 style="fill:#173e7d;fill-opacity:1;fill-rule:nonzero;stroke:none"
                 d="M 0,0 C -0.025,0.8 -0.025,1.139 -0.168,0.965 -0.316,0.8 -0.723,0.262 -0.799,-0.123 -0.682,-0.311 -0.707,-0.677 0,0"
                 inkscape:connector-curvature="0" />
            </g>
            <g
               transform="translate(534.6881,166.44)"
               id="g3994">
              <path
                 id="path3996"
                 style="fill:#173e7d;fill-opacity:1;fill-rule:nonzero;stroke:none"
                 d="m 0,0 c -0.937,-1.712 -1.142,-1.897 -1.142,-1.897 0.658,-0.858 1.004,-1.301 1.004,-1.301 0.937,1.789 0.955,1.82 0.955,1.82 C -0.019,0 0.17,-0.232 0,0"
                 inkscape:connector-curvature="0" />
            </g>
            <g
               transform="translate(539.4521,167.3969)"
               id="g3998">
              <path
                 id="path4000"
                 style="fill:#173e7d;fill-opacity:1;fill-rule:nonzero;stroke:none"
                 d="m 0,0 c -1.207,-1.73 -1.223,-1.73 -1.223,-1.73 0.235,-5.905 0.235,-5.934 0.235,-5.934 -0.098,-0.261 -0.436,-0.99 -2.004,-0.914 0.168,0.831 0.459,1.375 -0.076,0.708 -0.535,-0.679 -0.313,-0.758 -2.059,-0.73 0.194,0.73 0.363,1.376 -0.07,0.653 -0.434,-0.723 -0.192,-0.8 -1.766,-0.777 -0.261,8.254 -0.314,8.366 -0.314,8.366 -0.707,-1.132 -1.113,-1.778 -1.113,-1.778 0.064,-4.065 0.046,-5.114 0.046,-5.114 -0.021,-0.24 -0.142,-0.428 -1.066,-1.236 -0.893,-0.762 -2.508,-1.113 -4.957,-1.038 -0.318,0.121 -1.057,0.276 -1.084,2.181 -0.1,0.119 -0.438,-0.844 -0.414,-1.661 0.021,-0.833 -0.119,-2.921 1.885,-2.865 2.007,0.051 3.027,0.199 3.924,1.19 0.892,0.985 1.73,1.881 1.88,2.39 0.03,-1.569 0.151,-3.118 0.151,-3.118 0.24,-0.17 1.402,-0.263 2.17,0.989 0.097,-0.746 0.097,-0.776 0.097,-0.776 1.088,0 1.627,0.053 2.227,1.164 0.076,-0.916 0.098,-0.898 0.098,-0.898 0.166,-0.094 2.828,0.172 3.457,3.808 C 0.156,-5.772 0.051,-0.932 0,0"
                 inkscape:connector-curvature="0" />
            </g>
            <g
               transform="translate(542.3102,165.709)"
               id="g4002">
              <path
                 id="path4004"
                 style="fill:#173e7d;fill-opacity:1;fill-rule:nonzero;stroke:none"
                 d="m 0,0 c -0.895,-1.274 -0.987,-1.355 -0.987,-1.355 0.305,-6.36 0.377,-6.525 0.377,-6.525 l 0.873,1.769 C 0.043,-0.315 0.091,-0.482 0.025,0"
                 inkscape:connector-curvature="0" />
            </g>
            <g
               transform="translate(275.1711,160.73)"
               id="g4006">
              <path
                 id="path4008"
                 style="fill:#173e7d;fill-opacity:1;fill-rule:nonzero;stroke:none"
                 d="m 0,0 c -0.294,0 -0.509,-0.019 -0.7,-0.019 0,-0.462 -0.017,-0.906 -0.017,-1.575 0,-1.024 0.039,-2.264 0.039,-2.842 0.289,-0.012 0.527,-0.027 0.895,-0.027 0.95,0 1.774,0.791 1.774,2.204 C 1.991,-0.754 1.291,0 0,0 M 0.14,4.871 C -0.326,4.871 -0.441,4.852 -0.649,4.83 -0.678,4.03 -0.717,3.116 -0.717,2.569 -0.717,1.987 -0.7,1.463 -0.7,0.912 l 0.733,0 c 0.927,0 1.848,0.689 1.848,2.061 0,1.035 -0.456,1.898 -1.741,1.898 M -3.109,1.309 c 0,1.807 -0.038,3.058 -0.128,4.486 0.354,-0.032 0.783,-0.079 1.321,-0.079 0.927,0 1.996,0.079 2.919,0.079 1.944,0 3.27,-0.755 3.27,-2.511 0,-1.77 -1.631,-2.517 -2.642,-2.68 l 0,-0.036 c 0.992,-0.038 2.918,-0.754 2.918,-2.705 0,-2.326 -1.846,-3.246 -3.777,-3.246 -0.857,0 -1.569,0.072 -2.38,0.072 -0.58,0 -1.275,-0.037 -1.629,-0.072 0.09,1.419 0.128,2.666 0.128,4.477 l 0,2.215 z"
                 inkscape:connector-curvature="0" />
            </g>
            <g
               transform="translate(283.6642,162.698)"
               id="g4010">
              <path
                 id="path4012"
                 style="fill:#173e7d;fill-opacity:1;fill-rule:nonzero;stroke:none"
                 d="m 0,0 c -0.348,-2.449 -0.49,-4.904 -0.653,-7.351 -0.26,0.04 -0.519,0.072 -0.76,0.072 -0.26,0 -0.506,-0.032 -0.764,-0.072 0.686,3.732 1.213,7.449 1.671,11.178 0.227,-0.053 0.435,-0.079 0.665,-0.079 0.208,0 0.445,0.026 0.65,0.079 C 1.984,1.249 3.363,-1.632 4.548,-3.914 5.83,-1.502 7.154,1.249 8.317,3.827 8.553,3.774 8.79,3.748 9.016,3.748 c 0.227,0 0.455,0.026 0.685,0.079 0.422,-3.729 0.988,-8.9 1.39,-11.178 -0.438,0.04 -0.873,0.072 -1.314,0.072 -0.433,0 -0.887,-0.032 -1.345,-0.072 -0.115,2.247 -0.385,5.007 -0.641,7.511 l -0.036,0 C 6.54,-2.344 5.341,-4.846 4.175,-7.351 4.076,-7.33 3.962,-7.316 3.871,-7.316 3.769,-7.316 3.655,-7.33 3.561,-7.351 2.414,-4.904 1.242,-2.449 0.028,0 L 0,0 z"
                 inkscape:connector-curvature="0" />
            </g>
            <g
               transform="translate(305.9381,157.231)"
               id="g4014">
              <path
                 id="path4016"
                 style="fill:#173e7d;fill-opacity:1;fill-rule:nonzero;stroke:none"
                 d="m 0,0 c -0.184,-0.465 -0.311,-0.937 -0.359,-1.386 -0.857,-0.458 -1.98,-0.71 -3.305,-0.71 -3.761,0 -5.978,2.354 -5.978,5.409 0,4.473 3.03,6.193 6.429,6.193 1.14,0 2.566,-0.343 3.31,-0.796 C -0.118,8.176 -0.229,7.604 -0.275,7.065 l -0.23,0 c -0.811,0.993 -1.633,1.43 -2.787,1.43 -1.726,0 -3.691,-1.499 -3.691,-4.94 0,-3.338 1.976,-4.648 3.837,-4.648 1.041,0 2.234,0.48 2.935,1.209 L 0,0 z"
                 inkscape:connector-curvature="0" />
            </g>
            <g
               transform="translate(308.2361,162.039)"
               id="g4018">
              <path
                 id="path4020"
                 style="fill:#173e7d;fill-opacity:1;fill-rule:nonzero;stroke:none"
                 d="M 0,0 C 0,1.807 -0.034,3.058 -0.13,4.486 0.824,4.466 1.797,4.407 2.75,4.407 4.345,4.407 5.701,4.433 6.139,4.486 6.107,4.281 6.076,4.096 6.076,3.804 6.076,3.465 6.107,3.327 6.139,3.078 4.908,3.168 2.96,3.263 2.479,3.263 2.398,2.085 2.398,0.918 2.398,-0.262 c 1.414,0.025 2.447,0.061 3.678,0.131 -0.065,-0.368 -0.083,-0.521 -0.083,-0.724 0,-0.188 0.03,-0.338 0.083,-0.669 -1.231,0.1 -2.45,0.138 -3.678,0.138 0,-0.677 -0.015,-1.379 -0.015,-2.06 0,-0.692 0.015,-1.381 0.048,-2.027 1.212,0 2.464,0.052 3.708,0.2 C 6.107,-5.497 6.076,-5.664 6.076,-6 6.076,-6.333 6.107,-6.499 6.139,-6.692 5.556,-6.671 4.795,-6.62 3.303,-6.62 0.66,-6.62 0.228,-6.657 -0.13,-6.692 -0.034,-5.273 0,-4.026 0,-2.215 L 0,0 z"
                 inkscape:connector-curvature="0" />
            </g>
            <g
               transform="translate(324.9081,160.73)"
               id="g4022">
              <path
                 id="path4024"
                 style="fill:#173e7d;fill-opacity:1;fill-rule:nonzero;stroke:none"
                 d="m 0,0 c -0.294,0 -0.508,-0.019 -0.695,-0.019 0,-0.462 -0.018,-0.906 -0.018,-1.575 0,-1.024 0.028,-2.264 0.028,-2.842 0.296,-0.012 0.542,-0.027 0.896,-0.027 0.952,0 1.782,0.791 1.782,2.204 C 1.993,-0.754 1.294,0 0,0 m 0.143,4.871 c -0.47,0 -0.579,-0.019 -0.796,-0.041 -0.032,-0.8 -0.06,-1.714 -0.06,-2.261 0,-0.582 0.018,-1.106 0.018,-1.657 l 0.734,0 c 0.914,0 1.842,0.689 1.842,2.061 0,1.035 -0.455,1.898 -1.738,1.898 M -3.114,1.309 c 0,1.807 -0.036,3.058 -0.129,4.486 0.362,-0.032 0.795,-0.079 1.335,-0.079 0.919,0 1.989,0.079 2.913,0.079 1.938,0 3.272,-0.755 3.272,-2.511 0,-1.77 -1.639,-2.517 -2.641,-2.68 l 0,-0.036 c 0.988,-0.038 2.918,-0.754 2.918,-2.705 0,-2.326 -1.852,-3.246 -3.778,-3.246 -0.858,0 -1.57,0.072 -2.379,0.072 -0.581,0 -1.278,-0.037 -1.64,-0.072 0.093,1.419 0.129,2.666 0.129,4.477 l 0,2.215 z"
                 inkscape:connector-curvature="0" />
            </g>
            <g
               transform="translate(336.6581,159.62801)"
               id="g4026">
              <path
                 id="path4028"
                 style="fill:#173e7d;fill-opacity:1;fill-rule:nonzero;stroke:none"
                 d="M 0,0 C -0.47,1.308 -0.926,2.586 -1.442,3.849 -1.997,2.586 -2.498,1.308 -2.964,0 L 0,0 z m 4.287,-4.281 c -0.512,0.035 -0.968,0.072 -1.419,0.072 -0.453,0 -0.925,-0.037 -1.379,-0.072 -0.339,1.09 -0.712,2.213 -1.117,3.316 -0.694,0.015 -1.381,0.034 -2.075,0.034 -0.565,0 -1.118,-0.019 -1.688,-0.034 -0.434,-1.103 -0.789,-2.201 -1.098,-3.316 -0.26,0.035 -0.495,0.072 -0.758,0.072 -0.267,0 -0.507,-0.037 -0.817,-0.072 0.796,1.793 3.221,7.57 4.622,11.256 0.215,-0.028 0.402,-0.078 0.613,-0.078 0.211,0 0.405,0.05 0.611,0.078 1.385,-3.686 3.274,-8.617 4.505,-11.256"
                 inkscape:connector-curvature="0" />
            </g>
            <g
               transform="translate(343.0822,166.52499)"
               id="g4030">
              <path
                 id="path4032"
                 style="fill:#173e7d;fill-opacity:1;fill-rule:nonzero;stroke:none"
                 d="m 0,0 c 0.248,-0.053 0.491,-0.079 0.733,-0.079 0.242,0 0.489,0.026 0.732,0.079 2.328,-2.578 4.648,-5.138 7.029,-7.713 0,2.575 0,6.979 -0.114,7.713 0.246,-0.053 0.487,-0.079 0.729,-0.079 0.246,0 0.491,0.026 0.729,0.079 -0.259,-4.723 -0.259,-6.871 -0.259,-11.178 -0.224,0.04 -0.438,0.072 -0.662,0.072 -0.231,0 -0.443,-0.032 -0.625,-0.072 -2.225,2.622 -4.591,5.243 -7.09,7.865 -0.031,-1.209 -0.031,-2.559 -0.031,-3.769 0,-2.598 0.051,-3.496 0.099,-4.096 -0.26,0.04 -0.519,0.072 -0.765,0.072 -0.244,0 -0.505,-0.032 -0.745,-0.072 0.087,0.463 0.327,4.651 0.327,7.952 C 0.087,-1.765 0.018,-0.78 0,0"
                 inkscape:connector-curvature="0" />
            </g>
            <g
               transform="translate(358.2852,160.43201)"
               id="g4034">
              <path
                 id="path4036"
                 style="fill:#173e7d;fill-opacity:1;fill-rule:nonzero;stroke:none"
                 d="m 0,0 c 0,-2.337 0,-4.071 0.128,-5.085 -0.36,0.035 -0.791,0.072 -1.327,0.072 -0.534,0 -0.971,-0.037 -1.328,-0.072 0.096,1.419 0.133,2.666 0.133,4.477 l 0,2.215 c 0,1.807 -0.037,3.058 -0.133,4.486 0.357,-0.032 0.794,-0.079 1.328,-0.079 0.536,0 0.967,0.047 1.327,0.079 C 0,5.235 0,3.01 0,0.918 1.456,2.644 3.563,5.261 4.132,6.093 4.439,6.061 4.726,6.014 5.033,6.014 c 0.3,0 0.605,0.047 0.972,0.079 C 5.279,5.359 2.671,2.485 1.835,1.427 3.222,-0.68 5.377,-3.943 6.254,-5.085 5.618,-5.05 5.15,-5.013 4.68,-5.013 4.21,-5.013 3.74,-5.05 3.278,-5.085 2.207,-3.389 1.102,-1.689 0.03,0 L 0,0 z"
                 inkscape:connector-curvature="0" />
            </g>
            <path
               id="path4038"
               style="fill:#173e7d;fill-opacity:1;fill-rule:nonzero;stroke:none"
               d="m 377.591,147.748 -112.199,0 0,1.146 112.199,0 0,-1.146 z"
               inkscape:connector-curvature="0" />
          </g>
        </g>
        <g
           id="g4040"
           transform="matrix(2.4661,0,0,-2.4661,-627.14608,925.33167)">
          <g
             id="g4042">
            <g
               id="g4044">
              <g
                 id="g4046" />
            </g>
          </g>
        </g>
        <g
           id="g4050"
           transform="matrix(2.4661,0,0,-2.4661,-627.14608,925.33167)">
          <g
             id="g4052">
            <g
               id="g4054">
              <g
                 id="g4056">
                <path
                   id="path4058"
                   style="fill:url(#radialGradient4062);stroke:none"
                   d="m 387.28,159.784 c -1.118,-1.417 -1.594,-3.029 -1.647,-3.218 l 0,0 c -0.355,-1.398 -0.634,-3.466 -0.148,-5.925 l 0,0 c 0.122,-0.534 0.674,-2.631 2.309,-4.818 l 0,0 c 2.928,-3.848 6.813,-6.887 11.244,-8.81 l 0,0 0.072,-0.023 c 0.346,-0.154 0.699,-0.291 1.061,-0.429 l 0,0 0.175,-0.068 c 0.325,-0.123 0.663,-0.249 0.993,-0.351 l 0,0 c 0.097,-0.033 0.197,-0.066 0.293,-0.096 l 0,0 c 0.301,-0.1 0.613,-0.196 0.926,-0.281 l 0,0 c 0.099,-0.027 0.207,-0.056 0.317,-0.083 l 0,0 c 0.225,-0.061 0.429,-0.109 0.612,-0.16 l 0,0 c 0.753,-0.179 1.511,-0.337 2.29,-0.458 l 0,0 0.132,-0.022 c 1.586,-0.232 2.351,-0.259 3.353,-0.319 l 0,0 c 0.33,-0.012 0.662,-0.02 0.992,-0.02 l 0,0 c 0.228,0 0.456,0.008 0.683,0.008 l 0,0 0.066,0.003 c 0.173,0.003 0.339,0.012 0.511,0.027 l 0,0 c 0.137,0.01 0.286,0.01 0.428,0.02 l 0,0 0.266,0.009 c 0.26,0.017 0.52,0.043 0.783,0.064 l 0,0 c -4.681,0.33 -11.061,2.221 -13.428,8.323 l 0,0 c -4.04,10.383 15.559,25.462 38.803,17.842 l 0,0 c -6.895,4.125 -17.598,6.646 -27.671,6.646 l 0,0 c -9.718,10e-4 -18.85,-2.346 -23.415,-7.861"
                   inkscape:connector-curvature="0" />
              </g>
            </g>
          </g>
        </g>
      </g>
    </g>
  </g>
</svg>
