<?xml version="1.0" encoding="UTF-8" standalone="no"?>
<svg
   xmlns:dc="http://purl.org/dc/elements/1.1/"
   xmlns:cc="http://creativecommons.org/ns#"
   xmlns:rdf="http://www.w3.org/1999/02/22-rdf-syntax-ns#"
   xmlns:svg="http://www.w3.org/2000/svg"
   xmlns="http://www.w3.org/2000/svg"
   xmlns:sodipodi="http://sodipodi.sourceforge.net/DTD/sodipodi-0.dtd"
   xmlns:inkscape="http://www.inkscape.org/namespaces/inkscape"
   height="23.149813"
   viewBox="0 0 22.550568 23.149813"
   width="22.550568"
   id="svg2"
   version="1.1"
   inkscape:version="0.91 r13725"
   sodipodi:docname="actions_active.svg">
  <metadata
     id="metadata24">
    <rdf:RDF>
      <cc:Work
         rdf:about="">
        <dc:format>image/svg+xml</dc:format>
        <dc:type
           rdf:resource="http://purl.org/dc/dcmitype/StillImage" />
        <dc:title></dc:title>
      </cc:Work>
    </rdf:RDF>
  </metadata>
  <defs
     id="defs22" />
  <sodipodi:namedview
     pagecolor="#ffffff"
     bordercolor="#666666"
     borderopacity="1"
     objecttolerance="10"
     gridtolerance="10"
     guidetolerance="10"
     inkscape:pageopacity="0"
     inkscape:pageshadow="2"
     inkscape:window-width="1366"
     inkscape:window-height="705"
     id="namedview20"
     showgrid="false"
     fit-margin-top="0"
     fit-margin-left="0"
     fit-margin-right="0"
     fit-margin-bottom="0"
     inkscape:zoom="6.675088"
     inkscape:cx="21.133884"
     inkscape:cy="4.1491927"
     inkscape:window-x="-4"
     inkscape:window-y="-4"
     inkscape:window-maximized="1"
     inkscape:current-layer="svg2" />
  <rect
     style="fill:#b3b3b3"
     id="rect4167"
     width="13.632779"
     height="23"
     x="0"
     y="0.14981188" />
  <path
     d="m 11.35019,0 c 6.185745,0 11.200378,5.14878 11.200378,11.5 0,6.35122 -5.014633,11.5 -11.200378,11.5 C 5.1644442,23 0.14981073,17.85122 0.14981073,11.5 0.14981073,5.14878 5.1644442,0 11.35019,0 Z"
     id="path4"
     style="fill:#b3b3b3"
     inkscape:connector-curvature="0" />
  <path
     d="m 16.565738,8.80647 c -0.13892,-0.02829 -0.28359,0.01472 -0.38456,0.11546 l -3.27129,3.33592 c -0.32982,0.33028 -1.43865,0.08901 -2.185,-0.20217 -0.29164,-0.74635 -0.53268,-1.85541 -0.20378,-2.185 l 3.35225,-3.25542 c 0.10074,-0.10051 0.14444,-0.24472 0.11546,-0.38364 -0.02875,-0.13938 -0.1265,-0.25461 -0.25783,-0.30705 -2.0884,-0.83053 -4.4649903,-0.34086 -6.0536003,1.24706 -1.40254,1.40254 -1.92234,3.36927 -1.51064,5.19754 -0.0529,0.9062 -0.87676,1.96811 -1.30272,2.4012 l -3.27336,3.26623 c 0.83858,1.21164 1.90348,2.25377 3.13421,3.06613 l 3.11811,-3.11236 c 0.43723,-0.43079 1.61805,-1.24292 2.5175803,-1.33607 0.1357,0.0087 0.41653,0.02737 0.47886,0.04117 l -4.6e-4,-0.0053 c 1.75398,0.25484 3.52567,-0.31786 4.78584,-1.57642 1.58861,-1.58608 2.0792,-3.96175 1.24844,-6.04877 -0.05244,-0.13248 -0.1679,-0.22954 -0.30751,-0.25852 z"
     id="path6"
     style="fill:#483737"
     inkscape:connector-curvature="0" />
  <path
     d="m 16.565738,8.57647 c -0.13892,-0.02829 -0.28359,0.01472 -0.38456,0.11546 l -3.27129,3.33592 c -0.32982,0.33028 -1.43865,0.08901 -2.185,-0.20217 -0.29164,-0.74635 -0.53268,-1.85541 -0.20378,-2.185 l 3.35225,-3.25542 c 0.10074,-0.10051 0.14444,-0.24472 0.11546,-0.38364 -0.02875,-0.13938 -0.1265,-0.25461 -0.25783,-0.30705 -2.0884,-0.83053 -4.4649903,-0.34086 -6.0536003,1.24706 -1.40254,1.40254 -1.92234,3.36927 -1.51064,5.19754 -0.0529,0.9062 -0.87676,1.96811 -1.30272,2.4012 l -3.36812,3.36053 c 0.82156,1.22383 1.87197,2.28091 3.09005,3.11029 l 3.2568,-3.25105 c 0.43723,-0.43079 1.61805,-1.24292 2.5175803,-1.33607 0.1357,0.0087 0.41653,0.02737 0.47886,0.04117 l -4.6e-4,-0.0053 c 1.75398,0.25484 3.52567,-0.31786 4.78584,-1.57642 1.58861,-1.58608 2.0792,-3.96175 1.24844,-6.04877 -0.05221,-0.13225 -0.16767,-0.22931 -0.30728,-0.25829 z"
     id="path8"
     inkscape:connector-curvature="0"
     style="fill:#ededed" />
  <g
     id="g10"
     transform="matrix(0.23,0,0,0.23,-0.44943231,0)"
     style="fill:#e1e1e1">
    <path
       d="m 76.862,44.556 c 0.127,1.086 0.187,2.175 0.17,3.26 -0.073,-2.83 -0.63,-5.673 -1.717,-8.403 -0.228,-0.575 -0.729,-0.998 -1.337,-1.123 -0.604,-0.123 -1.233,0.064 -1.672,0.502 L 58.084,53.295 c -1.434,1.436 -6.255,0.387 -9.5,-0.879 -0.111,-0.284 -0.22,-0.581 -0.327,-0.887 L 14.541,85.246 c 2.247,2.261 4.709,4.307 7.353,6.107 l 14.16,-14.135 c 1.901,-1.873 7.035,-5.404 10.946,-5.809 0.59,0.038 1.811,0.119 2.082,0.179 L 49.08,71.565 c 7.626,1.108 15.329,-1.382 20.808,-6.854 5.382,-5.374 7.849,-12.831 6.974,-20.155 z m -0.868,-4.181 -0.146,-0.465 0.146,0.465 z m 0.813,3.729 c -0.039,-0.29 -0.083,-0.578 -0.134,-0.866 0.05,0.288 0.095,0.577 0.134,0.866 z m -0.321,-1.814 -0.174,-0.754 0.174,0.754 z"
       id="path12"
       inkscape:connector-curvature="0" />
  </g>
  <path
     d="m 7.6773877,7.17163 c 1.58861,-1.58792 3.9652003,-2.07759 6.0536003,-1.24706 0.12282,0.04899 0.21413,0.1541 0.24909,0.28152 0.01955,-0.06555 0.02323,-0.13547 0.0087,-0.20447 -0.02871,-0.13938 -0.12646,-0.25461 -0.25779,-0.30705 -2.0884,-0.83053 -4.4649903,-0.34086 -6.0536003,1.24706 -1.10653,1.10653 -1.66129,2.5645 -1.64473,4.02845 0.04117,-1.38598 0.59616,-2.74988 1.64473,-3.79845 z m -2.81336,7.36874 -3.36812,3.36053 0.09453,0.1357 3.27336,-3.26623 c 0.42573,-0.43332 1.24959,-1.495 1.30272,-2.4012 l -0.01587,-0.08303 c -0.12512,0.87124 -0.88366,1.84414 -1.28662,2.25423 z"
     id="path14"
     inkscape:connector-curvature="0"
     style="fill:#f4f4f4" />
  <path
     d="m 6.1540977,15.57491 -3.63538,3.63515 c 0.2576,0.28474 0.52923,0.55706 0.81397,0.81489 l 3.63584,-3.63584 c 0.22494,-0.22517 0.22494,-0.58949 0,-0.81443 -0.22494,-0.22494 -0.58949,-0.22471 -0.81443,2.3e-4 z"
     id="path16"
     inkscape:connector-curvature="0"
     style="fill:#ccd0d2" />
  <path
     d="m 6.1540977,15.57491 -3.63538,3.63515 0.11132,0.11891 3.52406,-3.52406 c 0.22517,-0.22494 0.58949,-0.22494 0.81443,0 0.08303,0.08303 0.13478,0.18515 0.15663,0.29233 0.03726,-0.18308 -0.01472,-0.38019 -0.15663,-0.52233 -0.22494,-0.22494 -0.58949,-0.22494 -0.81443,0 z"
     id="path18"
     inkscape:connector-curvature="0"
     style="fill:#b8bcbe" />
</svg>
