<?xml version="1.0" encoding="UTF-8" standalone="no"?>
<svg
   xmlns:dc="http://purl.org/dc/elements/1.1/"
   xmlns:cc="http://creativecommons.org/ns#"
   xmlns:rdf="http://www.w3.org/1999/02/22-rdf-syntax-ns#"
   xmlns:svg="http://www.w3.org/2000/svg"
   xmlns="http://www.w3.org/2000/svg"
   xmlns:sodipodi="http://sodipodi.sourceforge.net/DTD/sodipodi-0.dtd"
   xmlns:inkscape="http://www.inkscape.org/namespaces/inkscape"
   enable-background="new 0 0 77.945 77.945"
   height="17"
   id="Layer_1"
   version="1.1"
   viewBox="0 0 17 17"
   width="17"
   xml:space="preserve"
   inkscape:version="0.91 r13725"
   sodipodi:docname="addplus.svg"
   inkscape:export-filename="D:\dev\docs\onousc\addplus.png"
   inkscape:export-xdpi="90"
   inkscape:export-ydpi="90"><metadata
     id="metadata29"><rdf:RDF><cc:Work
         rdf:about=""><dc:format>image/svg+xml</dc:format><dc:type
           rdf:resource="http://purl.org/dc/dcmitype/StillImage" /><dc:title /></cc:Work></rdf:RDF></metadata><defs
     id="defs27" /><sodipodi:namedview
     pagecolor="#ffffff"
     bordercolor="#666666"
     borderopacity="1"
     objecttolerance="10"
     gridtolerance="10"
     guidetolerance="10"
     inkscape:pageopacity="0"
     inkscape:pageshadow="2"
     inkscape:window-width="1366"
     inkscape:window-height="705"
     id="namedview25"
     showgrid="false"
     fit-margin-top="0"
     fit-margin-left="0"
     fit-margin-right="0"
     fit-margin-bottom="0"
     inkscape:zoom="12.111104"
     inkscape:cx="13.57115"
     inkscape:cy="12.441103"
     inkscape:window-x="-4"
     inkscape:window-y="-4"
     inkscape:window-maximized="1"
     inkscape:current-layer="Layer_1" /><g
     id="g3"
     transform="scale(0.21810251,0.21809691)"
     style="fill:#000000"
     inkscape:export-filename="D:\dev\docs\onousc\addplus.png"
     inkscape:export-xdpi="90"
     inkscape:export-ydpi="90"><g
       id="g5"
       style="fill:#000000"><g
         id="g7"
         style="fill:#000000"><g
           id="g9"
           style="fill:#000000"><g
             id="g11"
             style="fill:#000000"><path
               d="M 0,38.973 C 0.001,17.448 17.448,0 38.972,0 l 0,0 c 21.523,0 38.973,17.448 38.973,38.974 l 0,0 c 0,21.522 -17.447,38.971 -38.973,38.973 l 0,0 C 17.448,77.943 0.001,60.496 0,38.973 l 0,0 z M 12.131,12.131 C 5.262,19.002 1.013,28.488 1.013,38.973 l 0,0 c 0,10.483 4.249,19.971 11.117,26.842 l 0,0 c 6.871,6.869 16.356,11.117 26.842,11.117 l 0,0 c 10.484,0 19.971,-4.248 26.842,-11.117 l 0,0 C 72.685,58.944 76.931,49.458 76.931,38.973 l 0,0 C 76.931,28.49 72.685,19.001 65.814,12.13 l 0,0 C 58.941,5.26 49.457,1.014 38.972,1.014 l 0,0 c -10.485,0 -19.97,4.246 -26.841,11.117 l 0,0 z"
               id="path13"
               inkscape:connector-curvature="0"
               style="fill:#000000" /></g></g></g><g
         id="g15"
         style="fill:#000000"><g
           id="g17"
           style="fill:#000000"><polygon
             points="38.231,61.238 38.231,16.706 39.431,16.706 39.431,61.238 38.231,61.238 "
             id="polygon19"
             style="fill:#000000" /></g><g
           id="g21"
           style="fill:#000000"><polygon
             points="16.847,38.444 16.847,37.244 61.096,37.244 61.096,38.444 16.847,38.444 "
             id="polygon23"
             style="fill:#000000" /></g></g></g></g></svg>