<?xml version="1.0" encoding="UTF-8" standalone="no"?>
<svg
   xmlns:dc="http://purl.org/dc/elements/1.1/"
   xmlns:cc="http://creativecommons.org/ns#"
   xmlns:rdf="http://www.w3.org/1999/02/22-rdf-syntax-ns#"
   xmlns:svg="http://www.w3.org/2000/svg"
   xmlns="http://www.w3.org/2000/svg"
   xmlns:sodipodi="http://sodipodi.sourceforge.net/DTD/sodipodi-0.dtd"
   xmlns:inkscape="http://www.inkscape.org/namespaces/inkscape"
   height="17"
   id="Layer_1"
   version="1.1"
   viewBox="0 0 17 17"
   width="17"
   xml:space="preserve"
   inkscape:version="0.48.4 r9939"
   sodipodi:docname="advancedSearch_plus.svg"><metadata
     id="metadata9"><rdf:RDF><cc:Work
         rdf:about=""><dc:format>image/svg+xml</dc:format><dc:type
           rdf:resource="http://purl.org/dc/dcmitype/StillImage" /><dc:title /></cc:Work></rdf:RDF></metadata><defs
     id="defs7" /><sodipodi:namedview
     pagecolor="#ffffff"
     bordercolor="#666666"
     borderopacity="1"
     objecttolerance="10"
     gridtolerance="10"
     guidetolerance="10"
     inkscape:pageopacity="0"
     inkscape:pageshadow="2"
     inkscape:window-width="1920"
     inkscape:window-height="1017"
     id="namedview5"
     showgrid="false"
     fit-margin-top="0"
     fit-margin-left="0"
     fit-margin-right="0"
     fit-margin-bottom="0"
     inkscape:zoom="7.375"
     inkscape:cx="14"
     inkscape:cy="14"
     inkscape:window-x="-4"
     inkscape:window-y="-4"
     inkscape:window-maximized="1"
     inkscape:current-layer="Layer_1" /><path
     d="m 15.785714,7.285714 -6.071428,0 0,-6.0714283 C 9.714286,0.544 9.170286,0 8.5,0 7.829714,0 7.285714,0.544 7.285714,1.2142857 l 0,6.0714283 -6.0714283,0 C 0.544,7.285714 0,7.829714 0,8.5 0,9.170286 0.544,9.714286 1.2142857,9.714286 l 6.0714283,0 0,6.071428 C 7.285714,16.456 7.829714,17 8.5,17 9.170286,17 9.714286,16.456 9.714286,15.785714 l 0,-6.071428 6.071428,0 C 16.456,9.714286 17,9.170286 17,8.5 17,7.829714 16.456,7.285714 15.785714,7.285714 z"
     id="path3"
     inkscape:connector-curvature="0"
     style="fill:#ffffff" /></svg>