<?xml version="1.0" encoding="UTF-8" standalone="no"?>
<svg
   xmlns:dc="http://purl.org/dc/elements/1.1/"
   xmlns:cc="http://creativecommons.org/ns#"
   xmlns:rdf="http://www.w3.org/1999/02/22-rdf-syntax-ns#"
   xmlns:svg="http://www.w3.org/2000/svg"
   xmlns="http://www.w3.org/2000/svg"
   xmlns:sodipodi="http://sodipodi.sourceforge.net/DTD/sodipodi-0.dtd"
   xmlns:inkscape="http://www.inkscape.org/namespaces/inkscape"
   height="15.242239"
   id="Layer_1"
   version="1.2"
   viewBox="0 0 14.425395 15.242239"
   width="14.425395"
   xml:space="preserve"
   inkscape:version="0.48.4 r9939"
   sodipodi:docname="1441053325_arrow-back.svg"><metadata
     id="metadata9"><rdf:RDF><cc:Work
         rdf:about=""><dc:format>image/svg+xml</dc:format><dc:type
           rdf:resource="http://purl.org/dc/dcmitype/StillImage" /><dc:title></dc:title></cc:Work></rdf:RDF></metadata><defs
     id="defs7" /><sodipodi:namedview
     pagecolor="#ffffff"
     bordercolor="#666666"
     borderopacity="1"
     objecttolerance="10"
     gridtolerance="10"
     guidetolerance="10"
     inkscape:pageopacity="0"
     inkscape:pageshadow="2"
     inkscape:window-width="1920"
     inkscape:window-height="1017"
     id="namedview5"
     showgrid="false"
     fit-margin-top="0"
     fit-margin-left="0"
     fit-margin-right="0"
     fit-margin-bottom="0"
     inkscape:zoom="9.8333333"
     inkscape:cx="-9.6112492"
     inkscape:cy="7.167487"
     inkscape:window-x="-4"
     inkscape:window-y="-4"
     inkscape:window-maximized="1"
     inkscape:current-layer="Layer_1" /><path
     d="M 8.463177,3.7211533 9.054738,1.2314673 C 9.113912,0.98240198 9.077749,0.71068108 8.93334,0.47491218 8.788701,0.24011588 8.562059,0.08656398 8.312993,0.02738478 8.063927,-0.03179482 7.792438,0.00339878 7.557642,0.14803938 L 0,4.7331412 4.6876804,12.226761 c 0.1446401,0.234796 0.3710516,0.389322 0.6201176,0.448501 0.249065,0.05917 0.520786,0.02301 0.755582,-0.121628 0.234796,-0.144639 0.389552,-0.372024 0.4485,-0.620117 L 7.087259,9.5119351 c 2.659794,0.7018719 5.468277,1.8810459 6.861177,5.7303039 l 0.231169,-0.972914 C 15.25061,9.7618161 12.726166,5.2459242 8.463177,3.7211533 z"
     id="path3"
     style="fill:#28a8bb;fill-opacity:0.94117647"
     inkscape:connector-curvature="0" /></svg>