<?xml version="1.0" encoding="UTF-8" standalone="no"?>
<!-- Generator: Adobe Illustrator 18.1.1, SVG Export Plug-In . SVG Version: 6.00 Build 0)  -->

<svg
   xmlns:dc="http://purl.org/dc/elements/1.1/"
   xmlns:cc="http://creativecommons.org/ns#"
   xmlns:rdf="http://www.w3.org/1999/02/22-rdf-syntax-ns#"
   xmlns:svg="http://www.w3.org/2000/svg"
   xmlns="http://www.w3.org/2000/svg"
   xmlns:sodipodi="http://sodipodi.sourceforge.net/DTD/sodipodi-0.dtd"
   xmlns:inkscape="http://www.inkscape.org/namespaces/inkscape"
   version="1.1"
   id="Capa_1"
   x="0px"
   y="0px"
   viewBox="0 0 24.999998 20.000002"
   xml:space="preserve"
   inkscape:version="0.48.4 r9939"
   width="100%"
   height="100%"
   sodipodi:docname="shops.svg"><metadata
   id="metadata53"><rdf:RDF><cc:Work
       rdf:about=""><dc:format>image/svg+xml</dc:format><dc:type
         rdf:resource="http://purl.org/dc/dcmitype/StillImage" /><dc:title></dc:title></cc:Work></rdf:RDF></metadata><defs
   id="defs51" /><sodipodi:namedview
   pagecolor="#ffffff"
   bordercolor="#666666"
   borderopacity="1"
   objecttolerance="10"
   gridtolerance="10"
   guidetolerance="10"
   inkscape:pageopacity="0"
   inkscape:pageshadow="2"
   inkscape:window-width="1920"
   inkscape:window-height="1017"
   id="namedview49"
   showgrid="false"
   fit-margin-top="0"
   fit-margin-left="0"
   fit-margin-right="0"
   fit-margin-bottom="0"
   inkscape:zoom="3.0849673"
   inkscape:cx="16.966205"
   inkscape:cy="84.410173"
   inkscape:window-x="-4"
   inkscape:window-y="-4"
   inkscape:window-maximized="1"
   inkscape:current-layer="Capa_1" />
<g
   id="g3"
   transform="matrix(0.04084967,0,0,0.03873147,0,-1.851829)"
   style="fill:#d35400;fill-opacity:1">
	<g
   id="g5"
   style="fill:#d35400;fill-opacity:1">
		<path
   d="M 102,164.042 V 47.812 H 0 v 116.229 c 0,30.747 22.714,55.896 51,55.896 28.28,10e-4 51,-25.149 51,-55.895 z"
   id="path7"
   inkscape:connector-curvature="0"
   style="fill:#d35400;fill-opacity:1" />
		<path
   d="m 178.5,219.938 c 28.28,0 51,-25.149 51,-55.896 V 47.812 h -102 v 116.229 c 0,30.747 22.714,55.897 51,55.897 z"
   id="path9"
   inkscape:connector-curvature="0"
   style="fill:#d35400;fill-opacity:1" />
		<path
   d="m 306,219.938 c 28.28,0 51,-25.149 51,-55.896 V 47.812 H 255 v 116.229 c 0,30.747 22.714,55.897 51,55.897 z"
   id="path11"
   inkscape:connector-curvature="0"
   style="fill:#d35400;fill-opacity:1" />
		<path
   d="m 433.5,219.938 c 28.279,0 51,-25.149 51,-55.896 V 47.812 h -102 v 116.229 c 0,30.747 22.714,55.897 51,55.897 z"
   id="path13"
   inkscape:connector-curvature="0"
   style="fill:#d35400;fill-opacity:1" />
		<path
   d="m 510,47.812 v 116.229 c 0,30.74 22.714,55.896 51,55.896 28.279,0 51,-25.149 51,-55.896 V 47.812 H 510 z"
   id="path15"
   inkscape:connector-curvature="0"
   style="fill:#d35400;fill-opacity:1" />
		<path
   d="m 497.25,208.992 c -13.713,21.949 -37.173,36.446 -63.75,36.446 -26.577,0 -50.037,-14.497 -63.75,-36.446 -13.713,21.949 -37.173,36.446 -63.75,36.446 -26.577,0 -50.037,-14.497 -63.75,-36.446 -13.713,21.949 -37.173,36.446 -63.75,36.446 -26.577,0 -50.037,-14.497 -63.75,-36.446 -13.713,21.949 -37.173,36.446 -63.75,36.446 v 318.75 h 318.75 v -216.75 h 127.5 v 216.75 H 561 v -318.75 c -26.577,0 -50.037,-14.497 -63.75,-36.446 z M 306,462.188 H 114.75 V 347.438 H 306 v 114.75 z"
   id="path17"
   inkscape:connector-curvature="0"
   style="fill:#d35400;fill-opacity:1" />
	</g>
</g>
<g
   id="g19"
   transform="translate(0,-544.188)">
</g>
<g
   id="g21"
   transform="translate(0,-544.188)">
</g>
<g
   id="g23"
   transform="translate(0,-544.188)">
</g>
<g
   id="g25"
   transform="translate(0,-544.188)">
</g>
<g
   id="g27"
   transform="translate(0,-544.188)">
</g>
<g
   id="g29"
   transform="translate(0,-544.188)">
</g>
<g
   id="g31"
   transform="translate(0,-544.188)">
</g>
<g
   id="g33"
   transform="translate(0,-544.188)">
</g>
<g
   id="g35"
   transform="translate(0,-544.188)">
</g>
<g
   id="g37"
   transform="translate(0,-544.188)">
</g>
<g
   id="g39"
   transform="translate(0,-544.188)">
</g>
<g
   id="g41"
   transform="translate(0,-544.188)">
</g>
<g
   id="g43"
   transform="translate(0,-544.188)">
</g>
<g
   id="g45"
   transform="translate(0,-544.188)">
</g>
<g
   id="g47"
   transform="translate(0,-544.188)">
</g>
</svg>