<?xml version="1.0" encoding="UTF-8" standalone="no"?>
<!-- Generator: Adobe Illustrator 17.1.0, SVG Export Plug-In . SVG Version: 6.00 Build 0)  -->

<svg
   xmlns:dc="http://purl.org/dc/elements/1.1/"
   xmlns:cc="http://creativecommons.org/ns#"
   xmlns:rdf="http://www.w3.org/1999/02/22-rdf-syntax-ns#"
   xmlns:svg="http://www.w3.org/2000/svg"
   xmlns="http://www.w3.org/2000/svg"
   xmlns:sodipodi="http://sodipodi.sourceforge.net/DTD/sodipodi-0.dtd"
   xmlns:inkscape="http://www.inkscape.org/namespaces/inkscape"
   version="1.1"
   id="Layer_1"
   x="0px"
   y="0px"
   viewBox="0 0 60 55"
   xml:space="preserve"
   inkscape:version="0.48.4 r9939"
   width="100%"
   height="100%"
   sodipodi:docname="commercial15.svg"><metadata
   id="metadata9"><rdf:RDF><cc:Work
       rdf:about=""><dc:format>image/svg+xml</dc:format><dc:type
         rdf:resource="http://purl.org/dc/dcmitype/StillImage" /><dc:title></dc:title></cc:Work></rdf:RDF></metadata><defs
   id="defs7" /><sodipodi:namedview
   pagecolor="#ffffff"
   bordercolor="#666666"
   borderopacity="1"
   objecttolerance="10"
   gridtolerance="10"
   guidetolerance="10"
   inkscape:pageopacity="0"
   inkscape:pageshadow="2"
   inkscape:window-width="1920"
   inkscape:window-height="1017"
   id="namedview5"
   showgrid="false"
   fit-margin-top="0"
   fit-margin-left="0"
   fit-margin-right="0"
   fit-margin-bottom="0"
   inkscape:zoom="4.72"
   inkscape:cx="101.78747"
   inkscape:cy="64.046135"
   inkscape:window-x="-4"
   inkscape:window-y="-4"
   inkscape:window-maximized="1"
   inkscape:current-layer="Layer_1" />
<path
   d="M 58.754102,9.2925128 52.194909,1.2084819 C 51.575335,0.4448069 50.635436,0 49.641312,0 H 15.740225 C 14.746251,0 13.806352,0.4448069 13.186703,1.208405 L 6.6275853,9.2925128 C 5.9423861,10.137015 5.3816867,11.711676 5.3816867,12.900415 v 5.921473 c 0.5210244,-0.805154 1.2824985,-1.409541 2.1956225,-1.718692 0.051,-0.676662 0.2598747,-1.333001 0.6170993,-1.930616 0.6186743,-1.035404 1.6112232,-1.771596 2.7943475,-2.073907 0.424124,-0.108856 0.812399,-0.158181 1.200673,-0.158181 1.564199,0 2.981697,0.781657 3.811646,2.009664 0.247125,-0.04235 0.496649,-0.06423 0.746999,-0.06423 0.768074,0 1.493848,0.207408 2.126098,0.564966 l 3.633146,-0.928351 c 0.455249,-0.116704 0.923174,-0.175427 1.391998,-0.175427 2.512872,0 4.70932,1.669778 5.342319,4.060885 l 7.120192,26.884034 c 0.371549,1.40269 0.16425,2.863372 -0.581999,4.113322 -0.747,1.249963 -1.945273,2.138893 -3.373122,2.503902 l -3.177671,0.812018 H 55.91813 C 58.172477,52.721257 60,50.925925 60,48.711297 l -7.5e-5,-35.919632 c 0,-1.079977 -0.560624,-2.654639 -1.245823,-3.4991407 z M 8.7710829,9.2240609 10.943231,6.5468698 H 25.763364 L 27.225787,4.1846635 H 12.859854 l 1.603648,-1.976512 c 0.311549,-0.38401 0.776924,-0.60423 1.276798,-0.60423 h 33.901087 c 0.499874,0 0.965249,0.22022 1.276798,0.60423 l 1.603649,1.976512 H 37.89985 l 0.816374,2.3622063 h 15.722157 l 2.172148,2.6771911 H 8.7710829 z m 0.6625492,9.8776731 -0.916199,0.234146 c -0.9758238,0.249397 -1.5611232,1.228745 -1.3072485,2.187372 l 0.0093,0.03512 c 0.2539497,0.958718 1.2507736,1.533635 2.2266725,1.284227 l 7.7698419,-1.985725 c 0.975898,-0.249396 1.561123,-1.228665 1.307248,-2.187442 l -0.0093,-0.03512 C 18.260072,17.67568 17.263174,17.100694 16.28735,17.350092 l -0.916199,0.234149 C 14.881626,17.70935 14.381452,17.420903 14.254102,16.93999 l -0.0078,-0.02927 c -0.295725,-1.116822 -1.457023,-1.786636 -2.593947,-1.496132 l -0.04755,0.01221 c -1.136849,0.290594 -1.8186733,1.431437 -1.522948,2.548252 l 0.0078,0.02927 c 0.1272,0.480969 -0.1664254,0.97233 -0.6560249,1.097437 z M 11.93803,16.58973 c 0.492824,-0.125916 0.996373,0.16445 1.124548,0.648593 0.128175,0.484212 -0.1674,0.978823 -0.660299,1.104737 -0.492824,0.125915 -0.996299,-0.16445 -1.124549,-0.648597 -0.128175,-0.484213 0.167475,-0.978818 0.6603,-1.104733 z m 11.450762,27.649775 c 0.0855,0.322781 -0.1116,0.65257 -0.4401,0.736485 L 11.64493,47.864779 c -0.328575,0.08406 -0.664274,-0.109653 -0.749699,-0.432407 l -0.1548,-0.584428 c -0.0855,-0.32285 0.1116,-0.65257 0.440174,-0.736484 l 11.303688,-2.888801 c 0.328649,-0.08406 0.664274,0.109654 0.749699,0.432347 l 0.1548,0.584499 z m 1.378648,-11.584356 0.1548,0.584415 c 0.08543,0.322793 -0.1116,0.652569 -0.440175,0.736496 L 9.0138576,37.929213 C 8.685283,38.01325 8.3496583,37.819559 8.2641584,37.496868 L 8.1093586,36.912372 c -0.085425,-0.32285 0.1115999,-0.65257 0.4401745,-0.736485 L 24.017741,32.222722 c 0.328575,-0.08404 0.664199,0.109538 0.749699,0.432427 z M 23.089092,28.715979 7.6208842,32.669145 C 7.2923095,32.753065 6.9566849,32.559491 6.871185,32.236725 L 6.7163852,31.652229 C 6.6309602,31.329437 6.8279851,30.999741 7.1565597,30.915745 L 22.624767,26.96265 c 0.32865,-0.08396 0.6642,0.109653 0.7497,0.432358 l 0.154799,0.584476 c 0.0855,0.322799 -0.111524,0.652519 -0.440174,0.736495 z m -0.3435,10.695873 -12.493561,3.192939 C 9.9234566,42.688735 9.5877569,42.495138 9.502332,42.172372 L 9.3475322,41.587875 c -0.0855,-0.322781 0.1115999,-0.6525 0.4401745,-0.736488 L 22.281268,37.658522 c 0.328574,-0.08404 0.664199,0.109653 0.749699,0.432419 l 0.1548,0.584484 c 0.08543,0.322719 -0.1116,0.652512 -0.440175,0.736427 z M 33.99108,45.898002 26.871713,19.01323 c -0.42735,-1.613843 -2.105698,-2.581838 -3.748496,-2.162027 l -3.627896,0.927185 c 0.08573,0.17402 0.156975,0.357849 0.208425,0.551846 0.433424,1.636918 -0.547875,3.278927 -2.178448,3.695651 L 9.8696816,23.982353 C 8.3069084,24.381767 6.6242853,23.591264 6.0996609,22.09095 6.0008859,21.808388 5.9474111,21.524364 5.9321111,21.244592 l -3.6315709,0.928143 c -1.64279811,0.419815 -2.628147,2.068526 -2.20079748,3.68246 L 7.2191846,52.739957 c 0.4274245,1.613932 2.1056976,2.581928 3.7484964,2.162026 l 20.822601,-5.321509 c 1.642873,-0.419907 2.628147,-2.068538 2.200798,-3.682472 z M 10.193832,51.979675 4.0030383,28.601719 24.82564,23.280187 31.016433,46.658229 10.193832,51.979675 z"
   id="path3"
   style="fill:#ffffff"
   inkscape:connector-curvature="0" />
</svg>