<?xml version="1.0" encoding="UTF-8" standalone="no"?>
<svg
   xmlns:dc="http://purl.org/dc/elements/1.1/"
   xmlns:cc="http://creativecommons.org/ns#"
   xmlns:rdf="http://www.w3.org/1999/02/22-rdf-syntax-ns#"
   xmlns:svg="http://www.w3.org/2000/svg"
   xmlns="http://www.w3.org/2000/svg"
   xmlns:sodipodi="http://sodipodi.sourceforge.net/DTD/sodipodi-0.dtd"
   xmlns:inkscape="http://www.inkscape.org/namespaces/inkscape"
   enable-background="new 0 0 512 512"
   height="18.000002"
   id="Layer_1"
   version="1.1"
   viewBox="0 0 14.999999 18.000002"
   width="14.999999"
   xml:space="preserve"
   inkscape:version="0.48.4 r9939"
   sodipodi:docname="1441122248_delete.svg"><metadata
     id="metadata17"><rdf:RDF><cc:Work
         rdf:about=""><dc:format>image/svg+xml</dc:format><dc:type
           rdf:resource="http://purl.org/dc/dcmitype/StillImage" /><dc:title></dc:title></cc:Work></rdf:RDF></metadata><defs
     id="defs15" /><sodipodi:namedview
     pagecolor="#ffffff"
     bordercolor="#666666"
     borderopacity="1"
     objecttolerance="10"
     gridtolerance="10"
     guidetolerance="10"
     inkscape:pageopacity="0"
     inkscape:pageshadow="2"
     inkscape:window-width="1920"
     inkscape:window-height="1017"
     id="namedview13"
     showgrid="false"
     fit-margin-top="0"
     fit-margin-left="0"
     fit-margin-right="0"
     fit-margin-bottom="0"
     inkscape:zoom="5.2149125"
     inkscape:cx="93.092831"
     inkscape:cy="78.417703"
     inkscape:window-x="-4"
     inkscape:window-y="-4"
     inkscape:window-maximized="1"
     inkscape:current-layer="Layer_1" /><g
     id="g3"
     style="fill:#666666"
     transform="matrix(0.03973615,0,0,0.0362394,-2.6767463,-0.26469258)"><path
       d="M 444.852,66.908 H 345.513 V 47.04 c 0,-21.943 -17.792,-39.736 -39.736,-39.736 h -99.339 c -21.944,0 -39.736,17.793 -39.736,39.736 V 66.908 H 67.363 v 19.868 h 20.47 l 19.887,377.489 c 0,21.944 17.792,39.736 39.736,39.736 h 218.546 c 21.944,0 39.736,-17.792 39.736,-39.736 L 425.276,86.776 h 19.577 V 66.908 z M 186.57,47.04 c 0,-10.962 8.926,-19.868 19.868,-19.868 h 99.339 c 10.962,0 19.868,8.906 19.868,19.868 V 66.908 H 186.57 V 47.04 z m 199.338,416.196 -0.039,0.505 v 0.524 c 0,10.943 -8.906,19.868 -19.868,19.868 H 147.455 c -10.942,0 -19.868,-8.925 -19.868,-19.868 v -0.524 L 127.568,463.218 107.72,86.776 h 297.669 l -19.481,376.46 z"
       id="path5"
       style="fill:#666666"
       inkscape:connector-curvature="0" /><rect
       height="317.88501"
       width="19.868"
       x="246.173"
       y="126.511"
       id="rect7"
       style="fill:#666666" /><polygon
       points="186.551,126.493 166.722,127.753 187.056,445.017 206.884,443.757 "
       id="polygon9"
       style="fill:#666666" /><polygon
       points="325.82,125.891 305.777,443.776 325.606,445.017 345.649,127.132 "
       id="polygon11"
       style="fill:#666666" /></g></svg>