<?xml version="1.0" encoding="UTF-8" standalone="no"?>
<!-- Generator: Adobe Illustrator 18.1.1, SVG Export Plug-In . SVG Version: 6.00 Build 0)  -->

<svg
   xmlns:dc="http://purl.org/dc/elements/1.1/"
   xmlns:cc="http://creativecommons.org/ns#"
   xmlns:rdf="http://www.w3.org/1999/02/22-rdf-syntax-ns#"
   xmlns:svg="http://www.w3.org/2000/svg"
   xmlns="http://www.w3.org/2000/svg"
   xmlns:sodipodi="http://sodipodi.sourceforge.net/DTD/sodipodi-0.dtd"
   xmlns:inkscape="http://www.inkscape.org/namespaces/inkscape"
   version="1.1"
   id="Capa_1"
   x="0px"
   y="0px"
   viewBox="0 0 15.999999 17.999999"
   xml:space="preserve"
   inkscape:version="0.91 r13725"
   sodipodi:docname="fastupload.svg"
   width="16"
   height="18"><metadata
     id="metadata40"><rdf:RDF><cc:Work
         rdf:about=""><dc:format>image/svg+xml</dc:format><dc:type
           rdf:resource="http://purl.org/dc/dcmitype/StillImage" /><dc:title></dc:title></cc:Work></rdf:RDF></metadata><defs
     id="defs38" /><sodipodi:namedview
     pagecolor="#ffffff"
     bordercolor="#666666"
     borderopacity="1"
     objecttolerance="10"
     gridtolerance="10"
     guidetolerance="10"
     inkscape:pageopacity="0"
     inkscape:pageshadow="2"
     inkscape:window-width="1366"
     inkscape:window-height="705"
     id="namedview36"
     showgrid="false"
     fit-margin-top="0"
     fit-margin-left="0"
     fit-margin-right="0"
     fit-margin-bottom="0"
     inkscape:zoom="0.8790357"
     inkscape:cx="120.81401"
     inkscape:cy="134.23799"
     inkscape:window-x="-4"
     inkscape:window-y="-4"
     inkscape:window-maximized="1"
     inkscape:current-layer="Capa_1" /><g
     id="Upload"
     transform="matrix(0.06621722,0,0,0.0670451,-0.88889996,0)"
     style="fill:#ffffff"><path
       style="clip-rule:evenodd;fill-rule:evenodd;fill:#ffffff"
       d="m 254.958,245.159 c -0.5,-11.909 -10.124,-21.429 -22.015,-21.429 l -197.41,0 c -12.21,0 -22.109,10.017 -22.109,22.373 0,12.356 9.899,22.373 22.109,22.373 l 197.41,0 c 11.888,0 21.509,-9.515 22.014,-21.419 0.014,-0.323 0.096,-0.627 0.096,-0.954 0,-0.323 -0.082,-0.624 -0.095,-0.944 z M 79.261,109.806 111.972,77.05 l 0,106.41 c 0,12.356 10.032,22.373 22.407,22.373 12.375,0 22.406,-10.017 22.406,-22.373 l 0,-106.41 32.71,32.756 c 8.874,8.876 23.26,8.876 32.134,0 8.874,-8.876 8.874,-23.266 0,-32.143 L 150.76,6.696 C 146.713,2.648 141.512,0.541 136.218,0.185 135.601,0.134 135.008,0 134.378,0 133.75,0 133.16,0.134 132.546,0.184 127.248,0.538 122.044,2.646 117.995,6.696 L 47.127,77.663 c -8.874,8.877 -8.874,23.267 0,32.143 8.873,8.875 23.261,8.875 32.134,0 z"
       id="path4"
       inkscape:connector-curvature="0" /></g><g
     id="g6"
     transform="translate(-13.424,-250.476)" /><g
     id="g8"
     transform="translate(-13.424,-250.476)" /><g
     id="g10"
     transform="translate(-13.424,-250.476)" /><g
     id="g12"
     transform="translate(-13.424,-250.476)" /><g
     id="g14"
     transform="translate(-13.424,-250.476)" /><g
     id="g16"
     transform="translate(-13.424,-250.476)" /><g
     id="g18"
     transform="translate(-13.424,-250.476)" /><g
     id="g20"
     transform="translate(-13.424,-250.476)" /><g
     id="g22"
     transform="translate(-13.424,-250.476)" /><g
     id="g24"
     transform="translate(-13.424,-250.476)" /><g
     id="g26"
     transform="translate(-13.424,-250.476)" /><g
     id="g28"
     transform="translate(-13.424,-250.476)" /><g
     id="g30"
     transform="translate(-13.424,-250.476)" /><g
     id="g32"
     transform="translate(-13.424,-250.476)" /><g
     id="g34"
     transform="translate(-13.424,-250.476)" /></svg>