<?xml version="1.0" encoding="UTF-8" standalone="no"?>
<svg
   xmlns:dc="http://purl.org/dc/elements/1.1/"
   xmlns:cc="http://creativecommons.org/ns#"
   xmlns:rdf="http://www.w3.org/1999/02/22-rdf-syntax-ns#"
   xmlns:svg="http://www.w3.org/2000/svg"
   xmlns="http://www.w3.org/2000/svg"
   xmlns:sodipodi="http://sodipodi.sourceforge.net/DTD/sodipodi-0.dtd"
   xmlns:inkscape="http://www.inkscape.org/namespaces/inkscape"
   height="16"
   id="Layer_1"
   version="1.1"
   viewBox="0 0 16 16"
   width="16"
   xml:space="preserve"
   inkscape:version="0.91 r13725"
   sodipodi:docname="fastadd.svg"><metadata
     id="metadata9"><rdf:RDF><cc:Work
         rdf:about=""><dc:format>image/svg+xml</dc:format><dc:type
           rdf:resource="http://purl.org/dc/dcmitype/StillImage" /><dc:title></dc:title></cc:Work></rdf:RDF></metadata><defs
     id="defs7" /><sodipodi:namedview
     pagecolor="#ffffff"
     bordercolor="#666666"
     borderopacity="1"
     objecttolerance="10"
     gridtolerance="10"
     guidetolerance="10"
     inkscape:pageopacity="0"
     inkscape:pageshadow="2"
     inkscape:window-width="1366"
     inkscape:window-height="705"
     id="namedview5"
     showgrid="false"
     fit-margin-top="0"
     fit-margin-left="0"
     fit-margin-right="0"
     fit-margin-bottom="0"
     inkscape:zoom="7.375"
     inkscape:cx="14"
     inkscape:cy="14"
     inkscape:window-x="-4"
     inkscape:window-y="-4"
     inkscape:window-maximized="1"
     inkscape:current-layer="Layer_1" /><path
     d="m 14.857143,6.857143 -5.714286,0 0,-5.714286 C 9.142857,0.512 8.630857,0 8,0 7.3691429,0 6.8571429,0.512 6.8571429,1.142857 l 0,5.714286 -5.7142858,0 C 0.512,6.857143 0,7.369143 0,8 0,8.630857 0.512,9.142857 1.1428571,9.142857 l 5.7142858,0 0,5.714286 C 6.8571429,15.488 7.3691429,16 8,16 8.630857,16 9.142857,15.488 9.142857,14.857143 l 0,-5.714286 5.714286,0 C 15.488,9.142857 16,8.630857 16,8 16,7.369143 15.488,6.857143 14.857143,6.857143 Z"
     id="path3"
     style="fill:#ffffff"
     inkscape:connector-curvature="0" /></svg>