<?xml version="1.0" encoding="UTF-8" standalone="no"?>
<svg
   xmlns:dc="http://purl.org/dc/elements/1.1/"
   xmlns:cc="http://creativecommons.org/ns#"
   xmlns:rdf="http://www.w3.org/1999/02/22-rdf-syntax-ns#"
   xmlns:svg="http://www.w3.org/2000/svg"
   xmlns="http://www.w3.org/2000/svg"
   xmlns:sodipodi="http://sodipodi.sourceforge.net/DTD/sodipodi-0.dtd"
   xmlns:inkscape="http://www.inkscape.org/namespaces/inkscape"
   height="16"
   id="Layer_1"
   version="1.1"
   viewBox="0 0 16 16"
   width="16"
   xml:space="preserve"
   inkscape:version="0.48.4 r9939"
   sodipodi:docname="1441056473_icon-ios7-refresh.svg"><metadata
     id="metadata11"><rdf:RDF><cc:Work
         rdf:about=""><dc:format>image/svg+xml</dc:format><dc:type
           rdf:resource="http://purl.org/dc/dcmitype/StillImage" /><dc:title></dc:title></cc:Work></rdf:RDF></metadata><defs
     id="defs9" /><sodipodi:namedview
     pagecolor="#ffffff"
     bordercolor="#666666"
     borderopacity="1"
     objecttolerance="10"
     gridtolerance="10"
     guidetolerance="10"
     inkscape:pageopacity="0"
     inkscape:pageshadow="2"
     inkscape:window-width="1920"
     inkscape:window-height="1017"
     id="namedview7"
     showgrid="false"
     fit-margin-top="0"
     fit-margin-left="0"
     fit-margin-right="0"
     fit-margin-bottom="0"
     inkscape:zoom="3.6875"
     inkscape:cx="156.35603"
     inkscape:cy="42.175391"
     inkscape:window-x="-4"
     inkscape:window-y="-4"
     inkscape:window-maximized="1"
     inkscape:current-layer="Layer_1" /><g
     id="g3"
     style="fill:#28a8bb;fill-opacity:1"
     transform="matrix(0.03846154,0,0,0.03846154,-1.8461539,-1.8461539)"><path
       d="M 256,48 C 141.1,48 48,141.1 48,256 48,370.9 141.1,464 256,464 370.9,464 464,370.9 464,256 464,141.1 370.9,48 256,48 z m 0,336.1 C 185.3,384.1 128,326.8 128,256 128,185.2 185.3,127.9 256,127.9 V 84 l 96,64 -96,55.7 v -55.8 c -59.6,0 -108.1,48.5 -108.1,108.1 0,59.6 48.5,108.1 108.1,108.1 59.6,0 108.1,-48.1 108.1,-108.1 H 384 c 0,71 -57.3,128.1 -128,128.1 z"
       id="path5"
       style="fill:#28a8bb;fill-opacity:1"
       inkscape:connector-curvature="0" /></g></svg>