<?xml version="1.0" encoding="UTF-8" standalone="no"?>
<!-- Generator: Adobe Illustrator 16.0.4, SVG Export Plug-In . SVG Version: 6.00 Build 0)  -->

<svg
   xmlns:dc="http://purl.org/dc/elements/1.1/"
   xmlns:cc="http://creativecommons.org/ns#"
   xmlns:rdf="http://www.w3.org/1999/02/22-rdf-syntax-ns#"
   xmlns:svg="http://www.w3.org/2000/svg"
   xmlns="http://www.w3.org/2000/svg"
   xmlns:sodipodi="http://sodipodi.sourceforge.net/DTD/sodipodi-0.dtd"
   xmlns:inkscape="http://www.inkscape.org/namespaces/inkscape"
   version="1.1"
   id="Capa_1"
   x="0px"
   y="0px"
   width="18.035236"
   height="17.955061"
   viewBox="0 0 18.035237 17.955061"
   xml:space="preserve"
   inkscape:version="0.48.4 r9939"
   sodipodi:docname="import.svg"
   inkscape:export-filename="C:\Users\amtarji\Desktop\CTM\css\export.png"
   inkscape:export-xdpi="90"
   inkscape:export-ydpi="90"><metadata
   id="metadata65"><rdf:RDF><cc:Work
       rdf:about=""><dc:format>image/svg+xml</dc:format><dc:type
         rdf:resource="http://purl.org/dc/dcmitype/StillImage" /><dc:title /></cc:Work></rdf:RDF></metadata><defs
   id="defs63">
	
	
	
	
	
</defs><sodipodi:namedview
   pagecolor="#ffffff"
   bordercolor="#666666"
   borderopacity="1"
   objecttolerance="10"
   gridtolerance="10"
   guidetolerance="10"
   inkscape:pageopacity="0"
   inkscape:pageshadow="2"
   inkscape:window-width="1920"
   inkscape:window-height="1017"
   id="namedview61"
   showgrid="true"
   inkscape:zoom="5.3350212"
   inkscape:cx="8.0108825"
   inkscape:cy="-16.438138"
   inkscape:window-x="-4"
   inkscape:window-y="-4"
   inkscape:window-maximized="1"
   inkscape:current-layer="Capa_1"
   fit-margin-top="0"
   fit-margin-left="0"
   fit-margin-right="0"
   fit-margin-bottom="0"><inkscape:grid
     type="xygrid"
     id="grid3066"
     empspacing="5"
     visible="true"
     enabled="true"
     snapvisiblegridlinesonly="true"
     originx="-13.556289px"
     originy="-19.213143px" /></sodipodi:namedview>

<g
   id="g31"
   transform="translate(-13.556289,-7.067796)">
</g>
<g
   id="g33"
   transform="translate(-13.556289,-7.067796)">
</g>
<g
   id="g35"
   transform="translate(-13.556289,-7.067796)">
</g>
<g
   id="g37"
   transform="translate(-13.556289,-7.067796)">
</g>
<g
   id="g39"
   transform="translate(-13.556289,-7.067796)">
</g>
<g
   id="g41"
   transform="translate(-13.556289,-7.067796)">
</g>
<g
   id="g43"
   transform="translate(-13.556289,-7.067796)">
</g>
<g
   id="g45"
   transform="translate(-13.556289,-7.067796)">
</g>
<g
   id="g47"
   transform="translate(-13.556289,-7.067796)">
</g>
<g
   id="g49"
   transform="translate(-13.556289,-7.067796)">
</g>
<g
   id="g51"
   transform="translate(-13.556289,-7.067796)">
</g>
<g
   id="g53"
   transform="translate(-13.556289,-7.067796)">
</g>
<g
   id="g55"
   transform="translate(-13.556289,-7.067796)">
</g>
<g
   id="g57"
   transform="translate(-13.556289,-7.067796)">
</g>
<g
   id="g59"
   transform="translate(-13.556289,-7.067796)">
</g>
<g
   id="g4030"
   transform="matrix(1.0210367,0,0,1.0160776,-13.840829,-13.572802)"><g
     style="fill:#195880;fill-opacity:1;stroke:none"
     transform="matrix(1,0,0,-1,0,41.750983)"
     id="g3941"><g
       id="g7"
       style="fill:#195880;fill-opacity:1;stroke:none"
       transform="matrix(0.86715657,0,0,-0.70094574,3.1363195,34.379839)">
		<line
   id="line9"
   y2="24.577999"
   x2="22.118999"
   y1="12.951"
   x1="22.118999"
   style="fill:#195880;fill-opacity:1;stroke:none" />
		<path
   inkscape:connector-curvature="0"
   id="path11"
   d="m 22.119,25.328 c -0.414,0 -0.75,-0.336 -0.75,-0.75 V 12.951 c 0,-0.414 0.336,-0.75 0.75,-0.75 0.414,0 0.75,0.336 0.75,0.75 v 11.627 c 0,0.414 -0.336,0.75 -0.75,0.75 z"
   style="fill:#195880;fill-opacity:1;stroke:none" />
	</g><g
       id="g19"
       style="fill:#195880;fill-opacity:1;stroke:none"
       transform="matrix(0.86715657,0,0,-0.70094574,3.1363195,34.379839)">
		<line
   id="line21"
   y2="24.577999"
   x2="22.118999"
   y1="21.252001"
   x1="18.785"
   style="fill:#195880;fill-opacity:1;stroke:none" />
		<path
   inkscape:connector-curvature="0"
   id="path23"
   d="m 22.119,25.328 c -0.191,0 -0.384,-0.073 -0.529,-0.219 l -3.334,-3.326 c -0.294,-0.293 -0.294,-0.768 -0.002,-1.061 0.292,-0.294 0.769,-0.294 1.061,-0.002 l 3.334,3.326 c 0.294,0.293 0.294,0.768 0.002,1.061 -0.147,0.148 -0.339,0.221 -0.532,0.221 z"
   style="fill:#195880;fill-opacity:1;stroke:none" />
	</g><g
       id="g25"
       style="fill:#195880;fill-opacity:1;stroke:none"
       transform="matrix(0.86715657,0,0,-0.70094574,3.1363195,34.379839)">
		<line
   id="line27"
   y2="24.577999"
   x2="22.118999"
   y1="21.252001"
   x1="25.452999"
   style="fill:#195880;fill-opacity:1;stroke:none" />
		<path
   inkscape:connector-curvature="0"
   id="path29"
   d="m 22.119,25.328 c -0.192,0 -0.385,-0.073 -0.531,-0.221 -0.292,-0.293 -0.292,-0.768 0.002,-1.061 l 3.334,-3.326 c 0.292,-0.292 0.769,-0.292 1.061,0.002 0.292,0.293 0.292,0.768 -0.002,1.061 l -3.334,3.326 c -0.146,0.146 -0.338,0.219 -0.53,0.219 z"
   style="fill:#195880;fill-opacity:1;stroke:none" />
	</g></g><path
     transform="matrix(0.91833661,0,0,0.75505362,0.52879004,4.4271461)"
     d="m 32.60498,23.529942 c 0,5.912793 -3.941009,10.706059 -8.80249,10.706059 C 18.941009,34.236001 15,29.442735 15,23.529942 c 0,-5.912794 3.941009,-10.70606 8.80249,-10.70606 4.861481,0 8.80249,4.793266 8.80249,10.70606 z"
     sodipodi:ry="10.706059"
     sodipodi:rx="8.8024902"
     sodipodi:cy="23.529942"
     sodipodi:cx="23.80249"
     id="path3904"
     style="fill:none;stroke:#195880;stroke-width:1.80136383;stroke-miterlimit:100;stroke-opacity:1;stroke-dasharray:none"
     sodipodi:type="arc" /><path
     inkscape:connector-curvature="0"
     id="path3906"
     d="m 25.281234,27.248066 -5.827547,0"
     style="fill:none;stroke:#195880;stroke-width:1.20000005;stroke-linecap:round;stroke-linejoin:round;stroke-miterlimit:4;stroke-opacity:1;stroke-dasharray:none" /></g></svg>