<?xml version="1.0" encoding="UTF-8" standalone="no"?>
<svg
   xmlns:dc="http://purl.org/dc/elements/1.1/"
   xmlns:cc="http://creativecommons.org/ns#"
   xmlns:rdf="http://www.w3.org/1999/02/22-rdf-syntax-ns#"
   xmlns:svg="http://www.w3.org/2000/svg"
   xmlns="http://www.w3.org/2000/svg"
   xmlns:sodipodi="http://sodipodi.sourceforge.net/DTD/sodipodi-0.dtd"
   xmlns:inkscape="http://www.inkscape.org/namespaces/inkscape"
   enable-background="new 0 0 80 80"
   height="16"
   id="Icons"
   version="1.1"
   viewBox="0 0 16 16"
   width="16"
   xml:space="preserve"
   inkscape:version="0.48.4 r9939"
   sodipodi:docname="1441056731_search-80px.svg"><metadata
     id="metadata9"><rdf:RDF><cc:Work
         rdf:about=""><dc:format>image/svg+xml</dc:format><dc:type
           rdf:resource="http://purl.org/dc/dcmitype/StillImage" /><dc:title></dc:title></cc:Work></rdf:RDF></metadata><defs
     id="defs7" /><sodipodi:namedview
     pagecolor="#ffffff"
     bordercolor="#666666"
     borderopacity="1"
     objecttolerance="10"
     gridtolerance="10"
     guidetolerance="10"
     inkscape:pageopacity="0"
     inkscape:pageshadow="2"
     inkscape:window-width="1920"
     inkscape:window-height="1017"
     id="namedview5"
     showgrid="false"
     fit-margin-top="0"
     fit-margin-left="0"
     fit-margin-right="0"
     fit-margin-bottom="0"
     inkscape:zoom="2.95"
     inkscape:cx="19.594"
     inkscape:cy="19.446"
     inkscape:window-x="-4"
     inkscape:window-y="-4"
     inkscape:window-maximized="1"
     inkscape:current-layer="Icons" /><path
     d="M 16,14.55123 11.856967,10.408197 C 12.644672,9.32623 13.114754,7.998361 13.114754,6.557377 13.114754,2.935656 10.179098,0 6.557377,0 2.935656,0 0,2.935656 0,6.557377 c 0,3.621721 2.935656,6.557377 6.557377,6.557377 1.440984,0 2.768853,-0.470082 3.85082,-1.257787 L 14.55123,16 16,14.55123 z M 6.557377,11.065574 c -2.485656,0 -4.508197,-2.022541 -4.508197,-4.508197 0,-2.485656 2.022541,-4.508197 4.508197,-4.508197 2.485656,0 4.508197,2.022541 4.508197,4.508197 0,2.485656 -2.022541,4.508197 -4.508197,4.508197 z"
     id="path3"
     style="fill:#999999"
     inkscape:connector-curvature="0" /></svg>