<?xml version="1.0" encoding="UTF-8" standalone="no"?>
<!-- Generator: Adobe Illustrator 17.1.0, SVG Export Plug-In . SVG Version: 6.00 Build 0)  -->

<svg
   xmlns:dc="http://purl.org/dc/elements/1.1/"
   xmlns:cc="http://creativecommons.org/ns#"
   xmlns:rdf="http://www.w3.org/1999/02/22-rdf-syntax-ns#"
   xmlns:svg="http://www.w3.org/2000/svg"
   xmlns="http://www.w3.org/2000/svg"
   xmlns:sodipodi="http://sodipodi.sourceforge.net/DTD/sodipodi-0.dtd"
   xmlns:inkscape="http://www.inkscape.org/namespaces/inkscape"
   version="1.1"
   id="Layer_1"
   x="0px"
   y="0px"
   viewBox="0 0 55 59.999988"
   xml:space="preserve"
   inkscape:version="0.48.4 r9939"
   width="100%"
   height="100%"
   sodipodi:docname="delivery21.svg"><metadata
   id="metadata9"><rdf:RDF><cc:Work
       rdf:about=""><dc:format>image/svg+xml</dc:format><dc:type
         rdf:resource="http://purl.org/dc/dcmitype/StillImage" /><dc:title></dc:title></cc:Work></rdf:RDF></metadata><defs
   id="defs7" /><sodipodi:namedview
   pagecolor="#ffffff"
   bordercolor="#666666"
   borderopacity="1"
   objecttolerance="10"
   gridtolerance="10"
   guidetolerance="10"
   inkscape:pageopacity="0"
   inkscape:pageshadow="2"
   inkscape:window-width="1920"
   inkscape:window-height="1017"
   id="namedview5"
   showgrid="false"
   fit-margin-top="0"
   fit-margin-left="0"
   fit-margin-right="0"
   fit-margin-bottom="0"
   inkscape:zoom="4.72"
   inkscape:cx="45.823246"
   inkscape:cy="65.920721"
   inkscape:window-x="-4"
   inkscape:window-y="-4"
   inkscape:window-maximized="1"
   inkscape:current-layer="Layer_1" />
<path
   d="m 54.137983,38.956066 -4.290738,-0.34755 v 16.65162 l -20.952535,4.57515 c -0.979193,0.21825 -1.998124,0.21825 -2.977317,0.008 L 5.8086609,55.551036 c -0.358232,-0.0808 -0.62096,-0.39607 -0.628938,-0.76792 l -0.350255,-13.61223 c -0.0079,-0.42847 0.310444,-0.79222 0.724442,-0.83257 l 17.0836251,-1.51965 c 0.294563,-0.0242 0.549314,-0.21825 0.660772,-0.50115 l 4.107708,-10.12026 v 27.76616 l 18.564269,-3.58087 v -14.09735 l -10.935913,-0.70418 c -0.883689,-0.0569 -1.663823,-0.60555 -2.027005,-1.42559 l -5.665095,-12.79198 -5.691907,13.02215 c -0.119361,0.26678 -0.366135,0.4446 -0.644818,0.47693 l -20.13251509,2.06122 c -0.612984,0.0647 -1.058817,-0.5739 -0.796089,-1.1478 L 5.4344749,26.144066 c 0.111458,-0.23438 0.326397,-0.40418 0.573172,-0.45263 l 20.6499941,-3.84764 0.68463,-0.1293 0.668676,0.1212 21.095828,3.85574 c 0.254751,0.0485 0.469691,0.21825 0.581149,0.46073 l 5.238097,11.6642 c 0.254825,0.5658 -0.183031,1.18823 -0.788038,1.1397 z M 32.508057,10.766386 H 30.02185 v 5.36384 c 0,0.55793 -0.445464,1.01025 -0.994926,1.01025 h -2.984778 c -0.549462,0 -0.994926,-0.45232 -0.994926,-1.01025 v -5.36384 h -2.485985 c -0.765879,0 -1.244581,-0.8418697 -0.861605,-1.5153697 l 4.972858,-8.74589005 c 0.382902,-0.67349 1.340232,-0.67349 1.723208,-7e-5 l 4.973891,8.74589005 c 0.383051,0.67349 -0.09558,1.5154397 -0.86153,1.5154397 z"
   id="path3"
   inkscape:connector-curvature="0"
   style="fill:#ffffff" />
</svg>