<?xml version="1.0" encoding="UTF-8" standalone="no"?>
<!-- Generator: Adobe Illustrator 16.0.4, SVG Export Plug-In . SVG Version: 6.00 Build 0)  -->

<svg
   xmlns:dc="http://purl.org/dc/elements/1.1/"
   xmlns:cc="http://creativecommons.org/ns#"
   xmlns:rdf="http://www.w3.org/1999/02/22-rdf-syntax-ns#"
   xmlns:svg="http://www.w3.org/2000/svg"
   xmlns="http://www.w3.org/2000/svg"
   xmlns:sodipodi="http://sodipodi.sourceforge.net/DTD/sodipodi-0.dtd"
   xmlns:inkscape="http://www.inkscape.org/namespaces/inkscape"
   version="1.1"
   id="Layer_1"
   x="0px"
   y="0px"
   width="18"
   height="14"
   viewBox="0 0 18 14"
   enable-background="new 0 0 512 512"
   xml:space="preserve"
   inkscape:version="0.48.4 r9939"
   sodipodi:docname="openFile.svg"><metadata
   id="metadata9"><rdf:RDF><cc:Work
       rdf:about=""><dc:format>image/svg+xml</dc:format><dc:type
         rdf:resource="http://purl.org/dc/dcmitype/StillImage" /></cc:Work></rdf:RDF></metadata><defs
   id="defs7" /><sodipodi:namedview
   pagecolor="#ffffff"
   bordercolor="#666666"
   borderopacity="1"
   objecttolerance="10"
   gridtolerance="10"
   guidetolerance="10"
   inkscape:pageopacity="0"
   inkscape:pageshadow="2"
   inkscape:window-width="1920"
   inkscape:window-height="1017"
   id="namedview5"
   showgrid="false"
   fit-margin-top="0"
   fit-margin-left="0"
   fit-margin-right="0"
   fit-margin-bottom="0"
   inkscape:zoom="7.375"
   inkscape:cx="51.542708"
   inkscape:cy="-9.0593868"
   inkscape:window-x="-4"
   inkscape:window-y="-4"
   inkscape:window-maximized="1"
   inkscape:current-layer="Layer_1" />
<path
   d="m 17.310491,4.9273489 h -0.952872 v -2.11169 c 0,-0.43019 -0.317624,-0.78218 -0.705831,-0.78218 H 8.7699336 L 7.8523531,0.39106887 C 7.7111868,0.15641887 7.534729,-1.1275799e-6 7.2876881,-1.1275799e-6 H 2.1704119 C 1.7822047,-1.1275799e-6 1.4998722,0.35196887 1.4998722,0.78210887 V 4.9273489 H 0.72345792 c -0.42349872,0 -0.81170588,0.43017 -0.7058312,0.93857 L 1.4998722,13.374309 c 0.070583,0.35197 0.3529156,0.62569 0.6705397,0.62569 H 15.651788 c 0.317624,0 0.635248,-0.23462 0.705831,-0.58659 l 1.623412,-7.5474901 c 0.105874,-0.5084 -0.247041,-0.93857 -0.67054,-0.93857 z M 2.8762431,1.5251589 h 3.9879463 l 0.9175805,1.68152 c 0.1411663,0.23467 0.3529156,0.35197 0.5999566,0.35197 h 6.5995215 v 1.3687 H 2.8762431 v -3.40219 z M 15.122414,12.435739 H 2.7350768 L 1.5704554,6.4525089 H 16.428202 l -1.305788,5.9832301 z"
   id="path3"
   style="fill:#808080"
   inkscape:connector-curvature="0" />
</svg>