<?xml version="1.0" encoding="UTF-8" standalone="no"?>
<svg
   xmlns:dc="http://purl.org/dc/elements/1.1/"
   xmlns:cc="http://creativecommons.org/ns#"
   xmlns:rdf="http://www.w3.org/1999/02/22-rdf-syntax-ns#"
   xmlns:svg="http://www.w3.org/2000/svg"
   xmlns="http://www.w3.org/2000/svg"
   xmlns:sodipodi="http://sodipodi.sourceforge.net/DTD/sodipodi-0.dtd"
   xmlns:inkscape="http://www.inkscape.org/namespaces/inkscape"
   enable-background="new 0 0 32 32"
   height="16"
   id="Layer_1"
   version="1.1"
   viewBox="0 0 18 16"
   width="18"
   xml:space="preserve"
   inkscape:version="0.48.4 r9939"
   sodipodi:docname="pad.svg"><metadata
     id="metadata17"><rdf:RDF><cc:Work
         rdf:about=""><dc:format>image/svg+xml</dc:format><dc:type
           rdf:resource="http://purl.org/dc/dcmitype/StillImage" /><dc:title /></cc:Work></rdf:RDF></metadata><defs
     id="defs15" /><sodipodi:namedview
     pagecolor="#ffffff"
     bordercolor="#666666"
     borderopacity="1"
     objecttolerance="10"
     gridtolerance="10"
     guidetolerance="10"
     inkscape:pageopacity="0"
     inkscape:pageshadow="2"
     inkscape:window-width="1920"
     inkscape:window-height="1017"
     id="namedview13"
     showgrid="false"
     fit-margin-top="0"
     fit-margin-left="0"
     fit-margin-right="0"
     fit-margin-bottom="0"
     inkscape:zoom="7.375"
     inkscape:cx="10.992"
     inkscape:cy="6.6540846"
     inkscape:window-x="-4"
     inkscape:window-y="-4"
     inkscape:window-maximized="1"
     inkscape:current-layer="Layer_1" /><g
     id="g3"
     style="fill:#999999"
     transform="matrix(0.79176564,0,0,0.76186848,-3.9651623,-4.1902766)"><path
       d="M 15.42,7.221 C 15.42,6.27 14.649,5.5 13.699,5.5 H 6.729 C 5.778,5.5 5.008,6.271 5.008,7.221 v 6.103 c 0,0.951 0.771,1.721 1.721,1.721 H 13.7 c 0.951,0 1.721,-0.771 1.721,-1.721 V 7.221 z"
       id="path5"
       style="fill:#999999"
       inkscape:connector-curvature="0" /><path
       d="M 27.742,7.221 C 27.742,6.27 26.972,5.5 26.021,5.5 H 19.05 c -0.951,0 -1.721,0.771 -1.721,1.721 v 6.103 c 0,0.951 0.77,1.721 1.721,1.721 h 6.971 c 0.951,0 1.721,-0.771 1.721,-1.721 V 7.221 z"
       id="path7"
       style="fill:#999999"
       inkscape:connector-curvature="0" /><path
       d="m 15.42,18.676 c 0,-0.951 -0.771,-1.721 -1.721,-1.721 h -6.97 c -0.951,0 -1.721,0.77 -1.721,1.721 v 6.104 c 0,0.95 0.771,1.721 1.721,1.721 H 13.7 c 0.951,0 1.721,-0.771 1.721,-1.721 v -6.104 z"
       id="path9"
       style="fill:#999999"
       inkscape:connector-curvature="0" /><path
       d="m 27.742,18.676 c 0,-0.951 -0.77,-1.721 -1.721,-1.721 H 19.05 c -0.951,0 -1.721,0.77 -1.721,1.721 v 6.104 c 0,0.95 0.77,1.721 1.721,1.721 h 6.971 c 0.951,0 1.721,-0.771 1.721,-1.721 v -6.104 z"
       id="path11"
       style="fill:#999999"
       inkscape:connector-curvature="0" /></g></svg>