<?xml version="1.0" encoding="UTF-8" standalone="no"?>
<svg
   xmlns:dc="http://purl.org/dc/elements/1.1/"
   xmlns:cc="http://creativecommons.org/ns#"
   xmlns:rdf="http://www.w3.org/1999/02/22-rdf-syntax-ns#"
   xmlns:svg="http://www.w3.org/2000/svg"
   xmlns="http://www.w3.org/2000/svg"
   xmlns:sodipodi="http://sodipodi.sourceforge.net/DTD/sodipodi-0.dtd"
   xmlns:inkscape="http://www.inkscape.org/namespaces/inkscape"
   height="18"
   version="1.1"
   viewBox="0 0 18 18"
   width="18"
   id="svg2"
   inkscape:version="0.48.4 r9939"
   sodipodi:docname="1441724669_radio-button-on.svg">
  <metadata
     id="metadata16">
    <rdf:RDF>
      <cc:Work
         rdf:about="">
        <dc:format>image/svg+xml</dc:format>
        <dc:type
           rdf:resource="http://purl.org/dc/dcmitype/StillImage" />
        <dc:title></dc:title>
      </cc:Work>
    </rdf:RDF>
  </metadata>
  <sodipodi:namedview
     pagecolor="#ffffff"
     bordercolor="#666666"
     borderopacity="1"
     objecttolerance="10"
     gridtolerance="10"
     guidetolerance="10"
     inkscape:pageopacity="0"
     inkscape:pageshadow="2"
     inkscape:window-width="1920"
     inkscape:window-height="1017"
     id="namedview14"
     showgrid="false"
     fit-margin-top="0"
     fit-margin-left="0"
     fit-margin-right="0"
     fit-margin-bottom="0"
     inkscape:zoom="11.8"
     inkscape:cx="10"
     inkscape:cy="10"
     inkscape:window-x="-4"
     inkscape:window-y="-4"
     inkscape:window-maximized="1"
     inkscape:current-layer="svg2" />
  <desc
     id="desc6" />
  <defs
     id="defs8" />
  <g
     id="Page-1"
     style="fill:#008080;fill-rule:evenodd;stroke:none"
     transform="scale(0.9,0.9)">
    <g
       id="Core"
       transform="translate(-338,-338)"
       style="fill:#008080">
      <g
         id="radio-button-on"
         transform="translate(338,338)"
         style="fill:#008080">
        <path
           d="m 10,5 c -2.8,0 -5,2.2 -5,5 0,2.8 2.2,5 5,5 2.8,0 5,-2.2 5,-5 0,-2.8 -2.2,-5 -5,-5 l 0,0 z M 10,0 C 4.5,0 0,4.5 0,10 0,15.5 4.5,20 10,20 15.5,20 20,15.5 20,10 20,4.5 15.5,0 10,0 l 0,0 z m 0,18 C 5.6,18 2,14.4 2,10 2,5.6 5.6,2 10,2 c 4.4,0 8,3.6 8,8 0,4.4 -3.6,8 -8,8 l 0,0 z"
           id="Shape"
           style="fill:#008080"
           inkscape:connector-curvature="0" />
      </g>
    </g>
  </g>
</svg>
