<?xml version="1.0" encoding="UTF-8" standalone="no"?>
<!-- Generator: Adobe Illustrator 16.0.0, SVG Export Plug-In . SVG Version: 6.00 Build 0)  -->

<svg
   xmlns:dc="http://purl.org/dc/elements/1.1/"
   xmlns:cc="http://creativecommons.org/ns#"
   xmlns:rdf="http://www.w3.org/1999/02/22-rdf-syntax-ns#"
   xmlns:svg="http://www.w3.org/2000/svg"
   xmlns="http://www.w3.org/2000/svg"
   xmlns:sodipodi="http://sodipodi.sourceforge.net/DTD/sodipodi-0.dtd"
   xmlns:inkscape="http://www.inkscape.org/namespaces/inkscape"
   version="1.1"
   id="Layer_2"
   x="0px"
   y="0px"
   width="23"
   height="25"
   viewBox="0 0 23 25"
   enable-background="new 0 0 100 100"
   xml:space="preserve"
   inkscape:version="0.48.4 r9939"
   sodipodi:docname="speech66.svg"><metadata
   id="metadata9"><rdf:RDF><cc:Work
       rdf:about=""><dc:format>image/svg+xml</dc:format><dc:type
         rdf:resource="http://purl.org/dc/dcmitype/StillImage" /><dc:title></dc:title></cc:Work></rdf:RDF></metadata><defs
   id="defs7" /><sodipodi:namedview
   pagecolor="#ffffff"
   bordercolor="#666666"
   borderopacity="1"
   objecttolerance="10"
   gridtolerance="10"
   guidetolerance="10"
   inkscape:pageopacity="0"
   inkscape:pageshadow="2"
   inkscape:window-width="1920"
   inkscape:window-height="1017"
   id="namedview5"
   showgrid="false"
   fit-margin-top="0"
   fit-margin-left="0"
   fit-margin-right="0"
   fit-margin-bottom="0"
   inkscape:zoom="9.44"
   inkscape:cx="-2.1144963"
   inkscape:cy="-0.0061914123"
   inkscape:window-x="-4"
   inkscape:window-y="-4"
   inkscape:window-maximized="1"
   inkscape:current-layer="Layer_2" />
<path
   d="M 11.500281,0 C 5.158857,0 0,4.252621 0,9.479927 0,13.425769 2.944745,16.934393 7.377189,18.3312 7.288319,19.808022 6.909787,21.201809 6.249462,22.482064 5.709503,23.528612 5.588012,24.135526 5.830994,24.576972 5.978076,24.846007 6.245806,25 6.564719,25 c 0.0011,0 0.0023,0 0.0034,0 0.424093,0 1.552382,-0.0154 8.692214,-6.560401 C 19.895517,17.122808 23,13.536584 23,9.479625 23.000562,4.252621 17.841142,0 11.500281,0 z m 3.345496,17.277707 -0.130209,0.03533 -0.102086,0.09391 C 9.776069,21.847379 7.790313,23.188023 7.015247,23.590821 7.071777,23.456152 7.149956,23.28827 7.256823,23.080832 8.079698,21.485646 8.514196,19.734656 8.5471,17.877682 L 8.5558,17.389125 8.114833,17.26744 C 3.949556,16.114607 1.151051,12.984625 1.151051,9.479927 c 0,-4.545208 4.642521,-8.243454 10.348931,-8.243454 5.705847,0 10.348369,3.698246 10.348369,8.243454 2.81e-4,3.519795 -2.813692,6.653401 -7.002592,7.79778 z M 12.363653,3.713344 c 0.06918,0.07609 0.106586,0.178752 0.103773,0.284736 l -0.241575,8.144113 c -0.0051,0.213476 -0.168175,0.383774 -0.367003,0.383774 h -0.717414 c -0.199392,0 -0.361942,-0.169996 -0.367004,-0.383774 L 10.532855,3.99808 c -0.0028,-0.106286 0.03459,-0.208646 0.103773,-0.284736 0.06918,-0.07579 0.163675,-0.118967 0.262668,-0.118967 h 1.201689 c 0.09899,3.01e-4 0.193486,0.04318 0.262668,0.118967 z m 0.08859,10.572672 v 1.474709 c 0,0.217402 -0.164237,0.393739 -0.367003,0.393739 h -1.169911 c -0.202766,0 -0.367004,-0.176337 -0.367004,-0.393739 v -1.474709 c 0,-0.217402 0.164238,-0.393739 0.367004,-0.393739 h 1.169911 c 0.202766,0 0.367003,0.176337 0.367003,0.393739 z"
   id="path3"
   style="fill:#3498db;fill-opacity:1;stroke:none"
   inkscape:connector-curvature="0" />
</svg>