<?xml version="1.0" encoding="UTF-8" standalone="no"?>
<svg
   xmlns:dc="http://purl.org/dc/elements/1.1/"
   xmlns:cc="http://creativecommons.org/ns#"
   xmlns:rdf="http://www.w3.org/1999/02/22-rdf-syntax-ns#"
   xmlns:svg="http://www.w3.org/2000/svg"
   xmlns="http://www.w3.org/2000/svg"
   xmlns:sodipodi="http://sodipodi.sourceforge.net/DTD/sodipodi-0.dtd"
   xmlns:inkscape="http://www.inkscape.org/namespaces/inkscape"
   height="17.000002"
   id="svg2"
   version="1.1"
   width="16.999998"
   inkscape:version="0.48.4 r9939"
   sodipodi:docname="refresh-arrow_a.svg">
  <metadata
     id="metadata9">
    <rdf:RDF>
      <cc:Work
         rdf:about="">
        <dc:format>image/svg+xml</dc:format>
        <dc:type
           rdf:resource="http://purl.org/dc/dcmitype/StillImage" />
        <dc:title />
      </cc:Work>
    </rdf:RDF>
  </metadata>
  <sodipodi:namedview
     pagecolor="#ffffff"
     bordercolor="#666666"
     borderopacity="1"
     objecttolerance="10"
     gridtolerance="10"
     guidetolerance="10"
     inkscape:pageopacity="0"
     inkscape:pageshadow="2"
     inkscape:window-width="1920"
     inkscape:window-height="1017"
     id="namedview7"
     showgrid="false"
     fit-margin-top="0"
     fit-margin-left="0"
     fit-margin-right="0"
     fit-margin-bottom="0"
     inkscape:zoom="3.6875"
     inkscape:cx="119.65321"
     inkscape:cy="57.657966"
     inkscape:window-x="-4"
     inkscape:window-y="-4"
     inkscape:window-maximized="1"
     inkscape:current-layer="svg2" />
  <defs
     id="defs4" />
  <g
     id="layer1"
     transform="matrix(0.03938355,0,0,0.03937941,-1.5811081,-22.860458)"
     style="fill:#ffffff">
    <path
       d="m 255.65625,40.15625 c -14.32936,0.027 -28.86966,1.48315 -43.4375,4.5 C 95.676057,68.79108 20.521418,183.23856 44.65625,299.78125 68.791082,416.32394 183.20731,491.47855 299.75,467.34375 l -6.09375,-29.375 C 192.98989,458.81575 94.878251,394.35386 74.03125,293.6875 53.184249,193.02114 117.64615,94.87825 218.3125,74.03125 c 100.66636,-20.847 198.778,43.61489 219.625,144.28125 8.71412,42.0789 2.57441,85.83876 -17.3125,123.84375 l -20.53125,-11.875 -10.1875,98.6875 80.375,-58.15625 L 446.625,357.15625 C 470.18386,312.76505 477.51726,261.52695 467.3125,212.25 446.19452,110.27514 355.96179,39.96747 255.65625,40.15625 z"
       id="path3036"
       style="fill:#ffffff;stroke:none"
       transform="translate(0,540.36218)"
       inkscape:connector-curvature="0" />
    <g
       id="g3016"
       transform="matrix(-1,0,0,1,502.69953,6.6120369e-6)"
       style="fill:#ffffff" />
  </g>
</svg>
