<?xml version="1.0" encoding="UTF-8" standalone="no"?>
<!-- Generator: Adobe Illustrator 17.0.0, SVG Export Plug-In . SVG Version: 6.00 Build 0)  -->

<svg
   xmlns:dc="http://purl.org/dc/elements/1.1/"
   xmlns:cc="http://creativecommons.org/ns#"
   xmlns:rdf="http://www.w3.org/1999/02/22-rdf-syntax-ns#"
   xmlns:svg="http://www.w3.org/2000/svg"
   xmlns="http://www.w3.org/2000/svg"
   xmlns:sodipodi="http://sodipodi.sourceforge.net/DTD/sodipodi-0.dtd"
   xmlns:inkscape="http://www.inkscape.org/namespaces/inkscape"
   version="1.1"
   id="Capa_1"
   x="0px"
   y="0px"
   width="18"
   height="18"
   viewBox="0 0 18 18"
   enable-background="new 0 0 64 64"
   xml:space="preserve"
   inkscape:version="0.48.4 r9939"
   sodipodi:docname="repair.svg"><metadata
   id="metadata15"><rdf:RDF><cc:Work
       rdf:about=""><dc:format>image/svg+xml</dc:format><dc:type
         rdf:resource="http://purl.org/dc/dcmitype/StillImage" /><dc:title></dc:title></cc:Work></rdf:RDF></metadata><defs
   id="defs13" /><sodipodi:namedview
   pagecolor="#ffffff"
   bordercolor="#666666"
   borderopacity="1"
   objecttolerance="10"
   gridtolerance="10"
   guidetolerance="10"
   inkscape:pageopacity="0"
   inkscape:pageshadow="2"
   inkscape:window-width="1920"
   inkscape:window-height="1017"
   id="namedview11"
   showgrid="false"
   inkscape:zoom="3.6875"
   inkscape:cx="19.840711"
   inkscape:cy="20.271"
   inkscape:window-x="-4"
   inkscape:window-y="-4"
   inkscape:window-maximized="1"
   inkscape:current-layer="Capa_1"
   fit-margin-top="0"
   fit-margin-left="0"
   fit-margin-right="0"
   fit-margin-bottom="0" />



<g
   id="g2992"
   transform="matrix(0.45708699,0,0,0.47440189,-5.5578528,-6.7974611)"><path
     id="path3"
     d="M 48.985,45.276 31.236,27.694 27.974,18.876 c -0.067,-0.181 -0.216,-0.322 -0.397,-0.378 l -9.322,-2.947 c -0.27,-0.086 -0.578,0.032 -0.723,0.271 -0.149,0.25 -0.11,0.565 0.096,0.768 l 8.265,8.178 -4.403,4.452 -8.266,-8.178 c -0.196,-0.193 -0.521,-0.233 -0.759,-0.091 -0.246,0.144 -0.361,0.438 -0.28,0.713 l 2.751,9.334 c 0.057,0.194 0.206,0.35 0.399,0.415 l 9.162,3.099 17.747,17.575 c 0.118,0.116 0.272,0.18 0.421,0.18 10e-4,0 0.002,0 0.003,0 0.02,0.003 0.04,0.004 0.059,0.004 0.144,0 0.278,-0.063 0.4,-0.188 l 5.862,-5.922 c 0.242,-0.247 0.239,-0.643 -0.004,-0.885 z M 42.679,50.759 25.273,33.52 c -0.071,-0.068 -0.152,-0.117 -0.238,-0.146 l -8.991,-3.042 -1.973,-6.694 6.985,6.91 c 0.12,0.118 0.25,0.148 0.444,0.181 0.166,-0.003 0.322,-0.068 0.44,-0.186 l 5.281,-5.34 c 0.118,-0.119 0.183,-0.277 0.181,-0.444 -0.001,-0.167 -0.067,-0.323 -0.186,-0.44 l -6.868,-6.798 6.561,2.075 3.204,8.662 c 0.033,0.088 0.082,0.165 0.146,0.227 l 17.403,17.24 -4.983,5.034 z"
     inkscape:connector-curvature="0" /><path
     id="path5"
     d="m 40.206,46.196 c 0.119,0.116 0.274,0.181 0.439,0.181 0.167,0 0.325,-0.065 0.444,-0.186 l 1.817,-1.835 c 0.118,-0.118 0.182,-0.274 0.182,-0.443 -10e-4,-0.166 -0.067,-0.323 -0.186,-0.441 l -2.599,-2.57 c -0.114,-0.113 -0.266,-0.178 -0.403,-0.178 -0.003,0 -0.006,0 -0.009,0 -0.157,-0.031 -0.317,0.025 -0.472,0.183 l -1.816,1.836 c -0.118,0.119 -0.182,0.276 -0.181,0.443 0.001,0.167 0.067,0.323 0.186,0.44 l 2.598,2.57 z m -0.337,-3.967 1.71,1.691 -0.938,0.947 -1.709,-1.691 0.937,-0.947 z"
     inkscape:connector-curvature="0" /><path
     id="path7"
     d="m 51.516,19.307 -1.078,-3.854 c -0.064,-0.23 -0.258,-0.406 -0.493,-0.447 l -3.76,-0.668 c -0.207,-0.036 -0.409,0.032 -0.549,0.173 l -10.62,10.617 c -0.118,0.118 -0.183,0.275 -0.183,0.442 0,0.167 0.065,0.324 0.183,0.442 l 0.971,0.971 -1.411,1.393 c -0.12,0.117 -0.188,0.28 -0.187,0.447 10e-4,0.167 0.07,0.329 0.189,0.446 l 1.893,1.834 c 0.117,0.113 0.271,0.176 0.435,0.176 0.167,0 0.324,-0.065 0.442,-0.183 l 1.377,-1.377 0.973,0.973 c 0.118,0.117 0.275,0.183 0.442,0.183 0.167,0 0.324,-0.065 0.442,-0.184 L 51.356,19.917 c 0.159,-0.158 0.221,-0.393 0.16,-0.61 z m -14.619,10.47 -0.991,-0.962 0.962,-0.95 0.829,0.829 0.142,0.142 -0.942,0.941 z m 3.241,-0.411 -3.797,-3.796 9.948,-9.943 3.05,0.541 0.874,3.123 -10.075,10.075 z"
     inkscape:connector-curvature="0" /><path
     id="path9"
     d="m 16.274,51.898 c 0.165,0 0.32,-0.064 0.439,-0.181 l 11.248,-11.09 c 0.12,-0.12 0.186,-0.279 0.186,-0.449 -10e-4,-0.166 -0.07,-0.329 -0.191,-0.446 l -1.961,-1.896 c -0.236,-0.229 -0.642,-0.229 -0.876,0.008 L 13.982,48.981 c -0.118,0.118 -0.183,0.275 -0.183,0.442 0,0.167 0.065,0.324 0.183,0.442 l 1.85,1.85 c 0.118,0.118 0.275,0.183 0.442,0.183 z m 9.294,-12.736 1.058,1.024 -10.349,10.207 -0.969,-0.969 10.26,-10.262 z"
     inkscape:connector-curvature="0" /></g>
</svg>