<?xml version="1.0" encoding="UTF-8" standalone="no"?>
<!-- Generated by IcoMoon.io -->

<svg
   xmlns:dc="http://purl.org/dc/elements/1.1/"
   xmlns:cc="http://creativecommons.org/ns#"
   xmlns:rdf="http://www.w3.org/1999/02/22-rdf-syntax-ns#"
   xmlns:svg="http://www.w3.org/2000/svg"
   xmlns="http://www.w3.org/2000/svg"
   xmlns:sodipodi="http://sodipodi.sourceforge.net/DTD/sodipodi-0.dtd"
   xmlns:inkscape="http://www.inkscape.org/namespaces/inkscape"
   version="1.1"
   width="13.700001"
   height="17"
   viewBox="0 0 13.700001 17"
   id="svg2"
   inkscape:version="0.48.4 r9939"
   sodipodi:docname="file.svg">
  <metadata
     id="metadata10">
    <rdf:RDF>
      <cc:Work
         rdf:about="">
        <dc:format>image/svg+xml</dc:format>
        <dc:type
           rdf:resource="http://purl.org/dc/dcmitype/StillImage" />
        <dc:title></dc:title>
      </cc:Work>
    </rdf:RDF>
  </metadata>
  <defs
     id="defs8" />
  <sodipodi:namedview
     pagecolor="#ffffff"
     bordercolor="#666666"
     borderopacity="1"
     objecttolerance="10"
     gridtolerance="10"
     guidetolerance="10"
     inkscape:pageopacity="0"
     inkscape:pageshadow="2"
     inkscape:window-width="1920"
     inkscape:window-height="1017"
     id="namedview6"
     showgrid="false"
     fit-margin-top="0"
     fit-margin-left="0"
     fit-margin-right="0"
     fit-margin-bottom="0"
     inkscape:zoom="7.375"
     inkscape:cx="14.001"
     inkscape:cy="16"
     inkscape:window-x="-4"
     inkscape:window-y="-4"
     inkscape:window-maximized="1"
     inkscape:current-layer="svg2" />
  <g
     id="g2994"
     transform="matrix(0.4662362,0,0,0.44146127,-0.93200616,2.8732394)"
     style="fill:#666666">
    <path
       style="fill:#666666"
       id="path4"
       d="M 28.232,6.232 23.767,1.768 C 22.795,0.796 20.874,0 19.499,0 h -15 c -1.375,0 -2.5,1.125 -2.5,2.5 v 27 c 0,1.375 1.125,2.5 2.5,2.5 h 23 c 1.375,0 2.5,-1.125 2.5,-2.5 v -19 c 0,-1.375 -0.796,-3.296 -1.768,-4.268 z M 26.818,7.646 C 26.916,7.744 27.013,7.864 27.108,8 H 22 V 2.892 c 0.136,0.095 0.256,0.192 0.354,0.29 l 4.465,4.464 z M 28,29.5 C 28,29.771 27.771,30 27.5,30 H 4.5 C 4.229,30 4,29.771 4,29.5 V 2.5 C 4,2.229 4.229,2 4.5,2 h 15 c 0.151,0 0.32,0.019 0.5,0.053 V 10 h 7.947 C 27.981,10.18 28,10.349 28,10.5 v 19 z"
       inkscape:connector-curvature="0" />
    <path
       id="path4-1"
       d="M 20.529536,1.7139832 V -6.5084744 L 31.383249,6.2033901 20.529536,18.915255 V 10.512712 C 7.9021466,10.165254 8.4439276,20.568857 11.658436,27.389832 3.724372,17.34534 5.4094104,1.2521188 20.529536,1.7139832 z"
       inkscape:connector-curvature="0"
       style="fill:#666666" />
  </g>
</svg>
