<?xml version="1.0" encoding="UTF-8" standalone="no"?>
<!-- Generator: Adobe Illustrator 16.0.0, SVG Export Plug-In . SVG Version: 6.00 Build 0)  -->

<svg
   xmlns:dc="http://purl.org/dc/elements/1.1/"
   xmlns:cc="http://creativecommons.org/ns#"
   xmlns:rdf="http://www.w3.org/1999/02/22-rdf-syntax-ns#"
   xmlns:svg="http://www.w3.org/2000/svg"
   xmlns="http://www.w3.org/2000/svg"
   xmlns:sodipodi="http://sodipodi.sourceforge.net/DTD/sodipodi-0.dtd"
   xmlns:inkscape="http://www.inkscape.org/namespaces/inkscape"
   version="1.1"
   id="Layer_1"
   x="0px"
   y="0px"
   width="23"
   height="25"
   viewBox="0 0 23 25"
   enable-background="new 0 0 512 512"
   xml:space="preserve"
   inkscape:version="0.48.4 r9939"
   sodipodi:docname="sign20.svg"><metadata
   id="metadata25"><rdf:RDF><cc:Work
       rdf:about=""><dc:format>image/svg+xml</dc:format><dc:type
         rdf:resource="http://purl.org/dc/dcmitype/StillImage" /><dc:title></dc:title></cc:Work></rdf:RDF></metadata><defs
   id="defs23" /><sodipodi:namedview
   pagecolor="#ffffff"
   bordercolor="#666666"
   borderopacity="1"
   objecttolerance="10"
   gridtolerance="10"
   guidetolerance="10"
   inkscape:pageopacity="0"
   inkscape:pageshadow="2"
   inkscape:window-width="1920"
   inkscape:window-height="1017"
   id="namedview21"
   showgrid="false"
   fit-margin-top="0"
   fit-margin-left="0"
   fit-margin-right="0"
   fit-margin-bottom="0"
   inkscape:zoom="7.375"
   inkscape:cx="43.998392"
   inkscape:cy="44.84211"
   inkscape:window-x="-4"
   inkscape:window-y="-4"
   inkscape:window-maximized="1"
   inkscape:current-layer="Layer_1" />
<g
   id="g3"
   style="fill:#1abc9c;fill-opacity:1"
   transform="matrix(0.05945185,0,0,0.05952381,-3.7196644,-2.7380357)">
	<path
   d="m 298.877,138.822 h 53.791 l 0.003,62.757 27.271,-42.343 v -35.494 c 0,-2.168 -0.863,-4.247 -2.396,-5.787 L 307.983,48.394 c -1.533,-1.532 -3.613,-2.395 -5.785,-2.395 H 87.113 c -13.535,0 -24.547,11.008 -24.547,24.543 v 370.914 c 0,13.534 11.012,24.543 24.547,24.543 h 268.283 c 13.533,0 24.545,-11.009 24.545,-24.543 V 336.15 l -27.263,41.72 0.003,60.856 H 89.84 V 73.273 h 198.906 v 55.417 c 0,5.599 4.535,10.132 10.131,10.132 z"
   id="path5"
   style="fill:#1abc9c;fill-opacity:1"
   inkscape:connector-curvature="0" />
	<path
   d="m 410.397,241.122 -11.271,-7.364 c -1.84,-1.201 -4.303,-0.686 -5.506,1.154 l -60.687,92.867 -11.669,-7.626 60.687,-92.867 c 1.203,-1.841 0.685,-4.304 -1.155,-5.506 l -11.269,-7.365 c -1.84,-1.202 -4.304,-0.686 -5.506,1.154 l -90.869,139.053 c -0.386,0.591 -0.608,1.276 -0.643,1.98 l -2.374,48.257 c -0.07,1.411 0.614,2.754 1.796,3.525 1.183,0.773 2.687,0.86 3.95,0.231 l 43.244,-21.551 c 0.632,-0.315 1.169,-0.793 1.556,-1.385 l 90.868,-139.052 c 1.204,-1.838 0.687,-4.302 -1.152,-5.505 z"
   id="path7"
   style="fill:#1abc9c;fill-opacity:1"
   inkscape:connector-curvature="0" />
	<path
   d="m 447.631,184.144 -40.869,-26.708 c -1.839,-1.201 -4.304,-0.685 -5.506,1.154 l -27.563,42.179 c -1.202,1.84 -0.686,4.306 1.154,5.508 l 40.869,26.706 c 1.839,1.202 4.305,0.686 5.506,-1.154 l 27.563,-42.178 c 1.202,-1.84 0.686,-4.305 -1.154,-5.507 z"
   id="path9"
   style="fill:#1abc9c;fill-opacity:1"
   inkscape:connector-curvature="0" />
	<path
   d="m 129.563,133.461 h 78 c 5.523,0 10,-4.478 10,-10 0,-5.522 -4.477,-10 -10,-10 h -78 c -5.523,0 -10,4.478 -10,10 0,5.522 4.478,10 10,10 z"
   id="path11"
   style="fill:#1abc9c;fill-opacity:1"
   inkscape:connector-curvature="0" />
	<path
   d="m 277.563,173.461 c 0,-5.522 -4.477,-10 -10,-10 h -138 c -5.523,0 -10,4.478 -10,10 0,5.522 4.477,10 10,10 h 138 c 5.523,0 10,-4.478 10,-10 z"
   id="path13"
   style="fill:#1abc9c;fill-opacity:1"
   inkscape:connector-curvature="0" />
	<path
   d="m 129.563,233.461 h 78 c 5.523,0 10,-4.478 10,-10 0,-5.522 -4.477,-10 -10,-10 h -78 c -5.523,0 -10,4.478 -10,10 0,5.522 4.478,10 10,10 z"
   id="path15"
   style="fill:#1abc9c;fill-opacity:1"
   inkscape:connector-curvature="0" />
	<path
   d="m 129.563,283.461 h 78 c 5.523,0 10,-4.478 10,-10 0,-5.522 -4.477,-10 -10,-10 h -78 c -5.523,0 -10,4.478 -10,10 0,5.522 4.478,10 10,10 z"
   id="path17"
   style="fill:#1abc9c;fill-opacity:1"
   inkscape:connector-curvature="0" />
	<path
   d="m 133.796,412.693 c -1.947,2.516 1.565,6.082 3.536,3.535 6.213,-8.028 11.344,-16.671 15.629,-25.795 2.674,1.678 6.185,1.341 9.065,0.205 4.151,-1.637 7.67,-4.796 11.021,-7.656 1.981,-1.691 4.287,-4.482 7.029,-4.748 2.094,-0.202 4.922,1.486 7.015,1.843 5.469,0.932 11.857,-0.651 17.137,-1.956 5.011,-1.237 10.879,-3.194 13.828,-7.731 1.763,-2.712 -2.568,-5.216 -4.317,-2.523 -2.361,3.632 -8.126,4.764 -12.022,5.726 -4.573,1.13 -9.879,2.246 -14.592,1.442 -3.552,-0.604 -6.425,-2.752 -10.077,-1.125 -4.892,2.18 -8.629,6.761 -12.949,9.854 -1.933,1.384 -4.142,2.713 -6.56,2.902 -0.995,0.077 -1.806,-0.288 -2.48,-0.896 0.532,-1.234 1.06,-2.472 1.563,-3.723 4.876,-12.104 7.081,-24.398 9.344,-37.147 1.15,-6.479 3.063,-16.688 -6.223,-17.31 -8.205,-0.548 -15.296,11.287 -17.918,17.524 -2.345,5.578 -2.606,12.058 -2.427,18.014 0.111,3.712 1.447,7.566 2.432,11.404 -7.874,1.263 -14.814,9.216 -13.598,17.1 1.197,7.758 10.898,3.752 14.521,0.881 3.667,-2.907 4.854,-6.536 4.893,-10.45 0.731,1.205 1.342,2.652 1.974,4.002 -4.226,9.478 -9.523,18.486 -15.824,26.628 z m 8.763,-28.302 c -0.74,3.298 -4.913,6.553 -8.199,6.859 -2.585,0.24 -1.008,-4.377 -0.497,-5.409 1.604,-3.242 5.578,-5.36 8.919,-6.27 0.157,1.627 0.131,3.238 -0.223,4.82 z m 4.177,-9.68 c -0.851,-3.976 -2.032,-7.969 -2.338,-11.583 -0.592,-6.975 0.647,-14.284 4.106,-20.384 2.161,-3.811 6.566,-9.654 11.239,-10.154 4.173,-0.445 1.628,9.705 1.267,11.744 -1.117,6.294 -1.914,12.541 -3.471,18.762 -1.446,5.779 -3.278,11.501 -5.469,17.095 -1.165,-2.898 -2.682,-4.755 -5.334,-5.48 z"
   id="path19"
   style="fill:#1abc9c;fill-opacity:1"
   inkscape:connector-curvature="0" />
</g>
</svg>