<?xml version="1.0" encoding="UTF-8" standalone="no"?>
<svg
   xmlns:dc="http://purl.org/dc/elements/1.1/"
   xmlns:cc="http://creativecommons.org/ns#"
   xmlns:rdf="http://www.w3.org/1999/02/22-rdf-syntax-ns#"
   xmlns:svg="http://www.w3.org/2000/svg"
   xmlns="http://www.w3.org/2000/svg"
   xmlns:sodipodi="http://sodipodi.sourceforge.net/DTD/sodipodi-0.dtd"
   xmlns:inkscape="http://www.inkscape.org/namespaces/inkscape"
   height="23"
   viewBox="0 0 23 23"
   width="23"
   id="svg2"
   version="1.1"
   inkscape:version="0.91 r13725"
   sodipodi:docname="actions.svg">
  <metadata
     id="metadata24">
    <rdf:RDF>
      <cc:Work
         rdf:about="">
        <dc:format>image/svg+xml</dc:format>
        <dc:type
           rdf:resource="http://purl.org/dc/dcmitype/StillImage" />
        <dc:title></dc:title>
      </cc:Work>
    </rdf:RDF>
  </metadata>
  <defs
     id="defs22" />
  <sodipodi:namedview
     pagecolor="#ffffff"
     bordercolor="#666666"
     borderopacity="1"
     objecttolerance="10"
     gridtolerance="10"
     guidetolerance="10"
     inkscape:pageopacity="0"
     inkscape:pageshadow="2"
     inkscape:window-width="1366"
     inkscape:window-height="705"
     id="namedview20"
     showgrid="false"
     fit-margin-top="0"
     fit-margin-left="0"
     fit-margin-right="0"
     fit-margin-bottom="0"
     inkscape:zoom="6.675088"
     inkscape:cx="21.583317"
     inkscape:cy="3.9993808"
     inkscape:window-x="-4"
     inkscape:window-y="-4"
     inkscape:window-maximized="1"
     inkscape:current-layer="svg2" />
  <path
     d="M 11.499999,0 C 17.851219,0 23,5.1487801 23,11.5 23,17.851219 17.851219,23 11.499999,23 5.1487795,23 0,17.851219 0,11.5 0,5.1487801 5.1487795,0 11.499999,0 Z"
     id="path4-4"
     style="fill:#b3b3b3"
     inkscape:connector-curvature="0" />
  <path
     d="m 11.399486,0.7365097 c 5.78592,0 10.476425,4.833922 10.476425,10.7967523 0,5.962831 -4.690505,10.796753 -10.476425,10.796753 -5.78592,0 -10.47642511,-4.833922 -10.47642511,-10.796753 0,-5.9628303 4.69050511,-10.7967523 10.47642511,-10.7967523 z"
     id="path4"
     style="fill:#ffffff"
     inkscape:connector-curvature="0" />
  <path
     d="m 16.42377,9.0044468 c -0.126555,-0.02656 -0.258349,0.01382 -0.350332,0.1083994 l -2.980124,3.1319218 c -0.300464,0.310083 -1.310601,0.08357 -1.990521,-0.189807 -0.265681,-0.700709 -0.485267,-1.741948 -0.185641,-2.051383 L 13.971029,6.9472336 C 14.062803,6.8528699 14.102613,6.7174787 14.076212,6.5870539 14.050021,6.4561973 13.960972,6.3480138 13.841331,6.2987806 11.938812,5.5190391 9.7737545,5.9787649 8.3265411,7.4695804 7.0488363,8.7863524 6.5753019,10.632813 6.9503579,12.349281 6.9021663,13.200065 6.1516352,14.197037 5.7635884,14.603643 l -2.9820097,3.066493 c 0.763941,1.137546 1.7340579,2.115948 2.855245,2.87863 l 2.8405779,-2.922033 c 0.3983137,-0.404446 1.4740331,-1.166913 2.2934994,-1.254366 0.123622,0.0082 0.379455,0.0257 0.436238,0.03865 l -4.19e-4,-0.005 c 1.597864,0.239256 3.211862,-0.298422 4.359869,-1.480019 1.447213,-1.489088 1.894137,-3.719481 1.13732,-5.6788756 -0.04777,-0.1243786 -0.152955,-0.2155032 -0.280139,-0.242711 z"
     id="path6"
     style="fill:#483737"
     inkscape:connector-curvature="0" />
  <path
     d="m 16.42377,8.7885117 c -0.126555,-0.02656 -0.258349,0.01382 -0.350332,0.1083994 l -2.980124,3.1319219 c -0.300464,0.310083 -1.310601,0.08357 -1.990521,-0.189807 -0.265681,-0.700709 -0.485267,-1.741948 -0.185641,-2.051383 L 13.971029,6.7312985 C 14.062803,6.6369349 14.102613,6.5015436 14.076212,6.3711189 14.050021,6.2402622 13.960972,6.1320788 13.841331,6.0828456 11.938812,5.3031041 9.7737545,5.7628298 8.3265411,7.2536454 7.0488363,8.5704173 6.5753019,10.416878 6.9503579,12.133346 6.9021663,12.98413 6.1516352,13.981102 5.7635884,14.387708 L 2.695253,17.542735 c 0.7484358,1.14899 1.7053525,2.141427 2.8150155,2.920089 l 2.9669236,-3.052242 c 0.3983137,-0.404446 1.474033,-1.166913 2.2934989,-1.254366 0.123622,0.0082 0.379456,0.0257 0.436238,0.03865 l -4.19e-4,-0.005 c 1.597864,0.239256 3.211862,-0.298422 4.359869,-1.480019 C 17.013593,13.220759 17.460517,10.990366 16.7037,9.0309714 16.65614,8.9068087 16.550954,8.8156842 16.42377,8.7884763 Z"
     id="path8"
     inkscape:connector-curvature="0"
     style="fill:#ededed" />
  <g
     id="g10"
     transform="matrix(0.20952851,0,0,0.21593505,0.92306089,0.7365097)"
     style="fill:#e1e1e1">
    <path
       d="m 76.862,44.556 c 0.127,1.086 0.187,2.175 0.17,3.26 -0.073,-2.83 -0.63,-5.673 -1.717,-8.403 -0.228,-0.575 -0.729,-0.998 -1.337,-1.123 -0.604,-0.123 -1.233,0.064 -1.672,0.502 L 58.084,53.295 c -1.434,1.436 -6.255,0.387 -9.5,-0.879 -0.111,-0.284 -0.22,-0.581 -0.327,-0.887 L 14.541,85.246 c 2.247,2.261 4.709,4.307 7.353,6.107 l 14.16,-14.135 c 1.901,-1.873 7.035,-5.404 10.946,-5.809 0.59,0.038 1.811,0.119 2.082,0.179 L 49.08,71.565 c 7.626,1.108 15.329,-1.382 20.808,-6.854 5.382,-5.374 7.849,-12.831 6.974,-20.155 z m -0.868,-4.181 -0.146,-0.465 0.146,0.465 z m 0.813,3.729 c -0.039,-0.29 -0.083,-0.578 -0.134,-0.866 0.05,0.288 0.095,0.577 0.134,0.866 z m -0.321,-1.814 -0.174,-0.754 0.174,0.754 z"
       id="path12"
       inkscape:connector-curvature="0" />
  </g>
  <path
     d="M 8.3265411,7.4695804 C 9.7737545,5.9787649 11.938812,5.5190391 13.841331,6.2987806 c 0.111888,0.045994 0.195071,0.1446765 0.226919,0.2643045 0.01781,-0.061541 0.02116,-0.1271857 0.0079,-0.1919662 C 14.050021,6.2402622 13.960972,6.1320788 13.841331,6.0828456 11.938812,5.3031041 9.7737545,5.7628298 8.3265411,7.2536454 7.3184995,8.2925089 6.8131167,9.661321 6.8282028,11.035748 6.8657084,9.734523 7.3713006,8.4540283 8.3265411,7.4695804 Z M 5.7635884,14.387708 2.695253,17.542735 2.781369,17.670136 5.7633787,14.603643 C 6.151216,14.196821 6.9017471,13.200065 6.9501482,12.349281 l -0.014457,-0.07795 C 6.8217074,13.08929 6.1306824,14.002695 5.7635884,14.387708 Z"
     id="path14"
     inkscape:connector-curvature="0"
     style="fill:#f4f4f4" />
  <path
     d="m 6.9388338,15.358983 -3.3118075,3.412854 c 0.2346719,0.267327 0.482125,0.522995 0.7415213,0.765058 l 3.3122267,-3.413502 c 0.2049188,-0.2114 0.2049188,-0.553441 0,-0.764626 -0.2049189,-0.211184 -0.5370216,-0.210968 -0.7419405,2.16e-4 z"
     id="path16"
     inkscape:connector-curvature="0"
     style="fill:#ccd0d2" />
  <path
     d="m 6.9388338,15.358983 -3.3118075,3.412854 0.1014117,0.111638 3.2103958,-3.308557 c 0.2051284,-0.211184 0.5370216,-0.211184 0.7419405,0 0.07564,0.07795 0.1227837,0.173828 0.1426889,0.274454 0.033944,-0.171884 -0.01341,-0.356941 -0.1426889,-0.490389 -0.2049189,-0.211184 -0.5370216,-0.211184 -0.7419405,0 z"
     id="path18"
     inkscape:connector-curvature="0"
     style="fill:#b8bcbe" />
</svg>
