<?xml version="1.0" encoding="UTF-8" standalone="no"?>
<!-- Generator: Adobe Illustrator 16.0.0, SVG Export Plug-In . SVG Version: 6.00 Build 0)  -->

<svg
   xmlns:dc="http://purl.org/dc/elements/1.1/"
   xmlns:cc="http://creativecommons.org/ns#"
   xmlns:rdf="http://www.w3.org/1999/02/22-rdf-syntax-ns#"
   xmlns:svg="http://www.w3.org/2000/svg"
   xmlns="http://www.w3.org/2000/svg"
   xmlns:sodipodi="http://sodipodi.sourceforge.net/DTD/sodipodi-0.dtd"
   xmlns:inkscape="http://www.inkscape.org/namespaces/inkscape"
   version="1.1"
   id="Layer_1"
   x="0px"
   y="0px"
   width="45"
   height="55"
   viewBox="0 0 45 55"
   enable-background="new 0 0 512 512"
   xml:space="preserve"
   inkscape:version="0.48.4 r9939"
   sodipodi:docname="bills_b.svg"><metadata
   id="metadata9"><rdf:RDF><cc:Work
       rdf:about=""><dc:format>image/svg+xml</dc:format><dc:type
         rdf:resource="http://purl.org/dc/dcmitype/StillImage" /><dc:title /></cc:Work></rdf:RDF></metadata><defs
   id="defs7" /><sodipodi:namedview
   pagecolor="#ffffff"
   bordercolor="#666666"
   borderopacity="1"
   objecttolerance="10"
   gridtolerance="10"
   guidetolerance="10"
   inkscape:pageopacity="0"
   inkscape:pageshadow="2"
   inkscape:window-width="1920"
   inkscape:window-height="1017"
   id="namedview5"
   showgrid="false"
   fit-margin-top="0"
   fit-margin-left="0"
   fit-margin-right="0"
   fit-margin-bottom="0"
   inkscape:zoom="2.6074563"
   inkscape:cx="-102.79846"
   inkscape:cy="-37.899304"
   inkscape:window-x="-4"
   inkscape:window-y="-4"
   inkscape:window-maximized="1"
   inkscape:current-layer="Layer_1" />
<path
   d="M 0,0 V 55 H 32.142857 L 45,41.25 V 0 H 0 z M 32.142857,50.13916 V 41.25 h 8.311942 l -8.311942,8.88916 z M 41.785714,37.8125 H 38.571429 V 34.375 h -3.214286 v 3.4375 h -6.428572 v 13.75 H 3.214286 V 3.4375 h 38.571428 v 34.375 z M 38.571429,13.75 H 6.428571 V 6.875 H 38.571429 V 13.75 z M 25.714286,24.0625 H 6.428571 V 20.625 h 19.285715 v 3.4375 z m 9.642857,-3.4375 h 3.214286 v 3.4375 H 35.357143 V 20.625 z m 0,6.875 h 3.214286 v 3.4375 H 35.357143 V 27.5 z m -6.428572,3.4375 h -22.5 V 27.5 h 22.5 v 3.4375 z m -9.642857,6.875 H 6.428571 V 34.375 h 12.857143 v 3.4375 z M 22.5,44.6875 H 6.428571 V 41.25 H 22.5 v 3.4375 z"
   id="path3"
   inkscape:connector-curvature="0"
   style="fill:#35b9bf;fill-opacity:0.94117647" />
</svg>