<?xml version="1.0" encoding="UTF-8" standalone="no"?>
<svg
   xmlns:dc="http://purl.org/dc/elements/1.1/"
   xmlns:cc="http://creativecommons.org/ns#"
   xmlns:rdf="http://www.w3.org/1999/02/22-rdf-syntax-ns#"
   xmlns:svg="http://www.w3.org/2000/svg"
   xmlns="http://www.w3.org/2000/svg"
   xmlns:sodipodi="http://sodipodi.sourceforge.net/DTD/sodipodi-0.dtd"
   xmlns:inkscape="http://www.inkscape.org/namespaces/inkscape"
   enable-background="new 0 0 48 48"
   height="18"
   version="1.1"
   viewBox="0 0 18 18"
   width="18"
   xml:space="preserve"
   id="svg2"
   inkscape:version="0.48.4 r9939"
   sodipodi:docname="edit-picture.svg"><metadata
     id="metadata35"><rdf:RDF><cc:Work
         rdf:about=""><dc:format>image/svg+xml</dc:format><dc:type
           rdf:resource="http://purl.org/dc/dcmitype/StillImage" /><dc:title /></cc:Work></rdf:RDF></metadata><defs
     id="defs33" /><sodipodi:namedview
     pagecolor="#ffffff"
     bordercolor="#666666"
     borderopacity="1"
     objecttolerance="10"
     gridtolerance="10"
     guidetolerance="10"
     inkscape:pageopacity="0"
     inkscape:pageshadow="2"
     inkscape:window-width="1920"
     inkscape:window-height="1017"
     id="namedview31"
     showgrid="false"
     fit-margin-top="0"
     fit-margin-left="0"
     fit-margin-right="0"
     fit-margin-bottom="0"
     inkscape:zoom="4.9166667"
     inkscape:cx="24"
     inkscape:cy="20"
     inkscape:window-x="-4"
     inkscape:window-y="-4"
     inkscape:window-maximized="1"
     inkscape:current-layer="Expanded" /><g
     id="Expanded"
     transform="translate(0,-26)"><g
       id="g3024"
       transform="matrix(0.40909091,0,0,0.40909091,0,26)"
       style="fill:#808080"><g
         id="g11"
         style="fill:#808080"><polygon
           points="5,44 5,42 42,42 42,5 44,5 44,44 "
           id="polygon13"
           style="fill:#808080" /></g><g
         id="g15"
         style="fill:#808080"><path
           d="M 38,2 V 38 H 2 V 2 H 38 M 40,0 H 0 V 40 H 40 V 0 l 0,0 z"
           id="path17"
           inkscape:connector-curvature="0"
           style="fill:#808080" /></g><g
         id="g19"
         style="fill:#808080"><path
           d="m 9.857,31.515 -1.715,-1.029 6,-10 c 0.167,-0.277 0.458,-0.458 0.78,-0.482 0.327,-0.028 0.639,0.108 0.845,0.357 l 4.143,4.971 7.257,-10.886 c 0.208,-0.312 0.574,-0.48 0.946,-0.439 0.373,0.043 0.69,0.291 0.822,0.643 l 6,16 -1.873,0.702 -5.314,-14.172 -6.917,10.375 c -0.175,0.263 -0.464,0.427 -0.779,0.444 -0.314,0.013 -0.62,-0.116 -0.821,-0.358 l -4.099,-4.918 -5.275,8.792 z"
           id="path21"
           inkscape:connector-curvature="0"
           style="fill:#808080" /></g><g
         id="g23"
         style="fill:#808080"><path
           d="M 12,14 C 9.794,14 8,12.206 8,10 8,7.794 9.794,6 12,6 c 2.206,0 4,1.794 4,4 0,2.206 -1.794,4 -4,4 z m 0,-6 c -1.103,0 -2,0.897 -2,2 0,1.103 0.897,2 2,2 1.103,0 2,-0.897 2,-2 0,-1.103 -0.897,-2 -2,-2 z"
           id="path25"
           inkscape:connector-curvature="0"
           style="fill:#808080" /></g><g
         id="g27"
         style="fill:#808080"><rect
           height="2"
           width="40"
           y="30"
           id="rect29"
           x="0"
           style="fill:#808080" /></g></g></g></svg>