<?xml version="1.0" encoding="UTF-8" standalone="no"?>
<svg
   xmlns:dc="http://purl.org/dc/elements/1.1/"
   xmlns:cc="http://creativecommons.org/ns#"
   xmlns:rdf="http://www.w3.org/1999/02/22-rdf-syntax-ns#"
   xmlns:svg="http://www.w3.org/2000/svg"
   xmlns="http://www.w3.org/2000/svg"
   xmlns:sodipodi="http://sodipodi.sourceforge.net/DTD/sodipodi-0.dtd"
   xmlns:inkscape="http://www.inkscape.org/namespaces/inkscape"
   enable-background="new 0 0 283.46 283.46"
   height="58.79369"
   id="Layer_1"
   version="1.1"
   viewBox="0 0 35.567677 32.550117"
   width="64.244164"
   xml:space="preserve"
   inkscape:version="0.48.4 r9939"
   sodipodi:docname="fingerprint.svg"><metadata
     id="metadata63"><rdf:RDF><cc:Work
         rdf:about=""><dc:format>image/svg+xml</dc:format><dc:type
           rdf:resource="http://purl.org/dc/dcmitype/StillImage" /><dc:title></dc:title></cc:Work></rdf:RDF></metadata><defs
     id="defs61" /><sodipodi:namedview
     pagecolor="#ffffff"
     bordercolor="#666666"
     borderopacity="1"
     objecttolerance="10"
     gridtolerance="10"
     guidetolerance="10"
     inkscape:pageopacity="0"
     inkscape:pageshadow="2"
     inkscape:window-width="1920"
     inkscape:window-height="1017"
     id="namedview59"
     showgrid="false"
     fit-margin-top="0"
     fit-margin-left="0"
     fit-margin-right="0"
     fit-margin-bottom="0"
     inkscape:zoom="4"
     inkscape:cx="-39.670597"
     inkscape:cy="54.748452"
     inkscape:window-x="-4"
     inkscape:window-y="-4"
     inkscape:window-maximized="1"
     inkscape:current-layer="Layer_1" /><g
     id="g3872"
     transform="translate(-0.01527608,22.558913)"><g
       style="stroke:#000000;stroke-opacity:0.68137255"
       transform="matrix(0.1203025,0,0,0.1180258,-0.48526317,-23.052595)"
       id="g3040"><g
         style="stroke:#000000;stroke-opacity:0.68137255"
         id="g3"><g
           style="stroke:#000000;stroke-opacity:0.68137255"
           id="g5"><path
             style="fill:none;stroke:#000000;stroke-width:8;stroke-linecap:round;stroke-miterlimit:10;stroke-opacity:0.68137255"
             inkscape:connector-curvature="0"
             d="M 22.855,81.087 C 9.543,107.082 4.61,137.596 10.832,168.451"
             stroke-miterlimit="10"
             id="path7" /><path
             style="fill:none;stroke:#000000;stroke-width:8;stroke-linecap:round;stroke-miterlimit:10;stroke-opacity:0.68137255"
             inkscape:connector-curvature="0"
             d="M 200.875,21.835 C 175.332,9.297 145.604,4.775 115.554,10.834 81.418,17.716 52.961,37.021 33.936,63.091"
             stroke-miterlimit="10"
             id="path9" /><path
             style="fill:none;stroke:#000000;stroke-width:8;stroke-linecap:round;stroke-miterlimit:10;stroke-opacity:0.68137255"
             inkscape:connector-curvature="0"
             d="M 273.164,115.555 C 266.104,80.542 245.975,51.499 218.879,32.485"
             stroke-miterlimit="10"
             id="path11" /></g></g><g
         style="stroke:#000000;stroke-opacity:0.68137255"
         id="g13"><g
           style="stroke:#000000;stroke-opacity:0.68137255"
           id="g15"><path
             style="fill:none;stroke:#000000;stroke-width:8;stroke-linecap:round;stroke-miterlimit:10;stroke-opacity:0.68137255"
             inkscape:connector-curvature="0"
             d="m 275.877,144.695 c 0.184,-9.594 -0.666,-19.357 -2.641,-29.154"
             stroke-miterlimit="10"
             id="path17" /><path
             style="fill:none;stroke:#000000;stroke-width:8;stroke-linecap:round;stroke-miterlimit:10;stroke-opacity:0.68137255"
             inkscape:connector-curvature="0"
             d="m 10.904,168.438 c 0.388,1.921 0.814,3.824 1.279,5.709"
             stroke-miterlimit="10"
             id="path19" /></g></g><path
         style="fill:none;stroke:#000000;stroke-width:8;stroke-linecap:round;stroke-miterlimit:10;stroke-opacity:0.68137255"
         inkscape:connector-curvature="0"
         d="m 107.454,271.29 c 29.977,-34.119 44.249,-81.34 34.579,-129.294"
         stroke-miterlimit="10"
         id="path21" /><path
         style="fill:none;stroke:#000000;stroke-width:8;stroke-linecap:round;stroke-miterlimit:10;stroke-opacity:0.68137255"
         inkscape:connector-curvature="0"
         d="m 119.176,220.338 c -6.555,16.798 -16.443,32.131 -29.02,45.026"
         stroke-miterlimit="10"
         id="path23" /><path
         style="fill:none;stroke:#000000;stroke-width:8;stroke-linecap:round;stroke-miterlimit:10;stroke-opacity:0.68137255"
         inkscape:connector-curvature="0"
         d="m 126.187,274.896 c 29.051,-37.175 42.302,-86.333 32.245,-136.205 l 0.052,-0.017 c -1.836,-9.104 -10.703,-14.996 -19.807,-13.16 -9.103,1.836 -14.994,10.703 -13.159,19.808 l 0.119,-0.02 c 3.746,18.581 3.45,37.04 -0.284,54.465"
         stroke-miterlimit="10"
         id="path25" /><path
         style="fill:none;stroke:#000000;stroke-width:8;stroke-linecap:round;stroke-miterlimit:10;stroke-opacity:0.68137255"
         inkscape:connector-curvature="0"
         d="m 110.51,156.144 c 5.245,38.701 -9.215,76.082 -36.162,101.293"
         stroke-miterlimit="10"
         id="path27" /><path
         style="fill:none;stroke:#000000;stroke-width:8;stroke-linecap:round;stroke-miterlimit:10;stroke-opacity:0.68137255"
         inkscape:connector-curvature="0"
         d="m 178.494,171.434 c -0.033,-11.89 -1.227,-23.95 -3.666,-36.049 l 0.037,-0.014 c -3.659,-18.152 -21.34,-29.901 -39.492,-26.24 -13.559,2.734 -23.546,13.292 -26.203,26.027"
         stroke-miterlimit="10"
         id="path29" /><path
         style="fill:none;stroke:#000000;stroke-width:8;stroke-linecap:round;stroke-miterlimit:10;stroke-opacity:0.68137255"
         inkscape:connector-curvature="0"
         d="m 146.273,275.748 c 16.744,-24.469 27.606,-52.939 31.045,-83.098"
         stroke-miterlimit="10"
         id="path31" /><path
         style="fill:none;stroke:#000000;stroke-width:8;stroke-linecap:round;stroke-miterlimit:10;stroke-opacity:0.68137255"
         inkscape:connector-curvature="0"
         d="m 145.93,91.898 c -4.529,-0.353 -9.184,-0.093 -13.859,0.85 -27.201,5.485 -44.805,31.979 -39.32,59.182 l 0.094,-0.016 c 7.418,36.792 -6.293,72.938 -32.779,95.876"
         stroke-miterlimit="10"
         id="path33" /><path
         style="fill:none;stroke:#000000;stroke-width:8;stroke-linecap:round;stroke-miterlimit:10;stroke-opacity:0.68137255"
         inkscape:connector-curvature="0"
         d="m 167.608,273.324 c 24.108,-41.098 33.776,-90.867 23.617,-141.246 l 0.024,-0.01 C 188.226,117.08 178.825,105.005 166.442,98.101"
         stroke-miterlimit="10"
         id="path35" /><path
         style="fill:none;stroke:#000000;stroke-width:8;stroke-linecap:round;stroke-miterlimit:10;stroke-opacity:0.68137255"
         inkscape:connector-curvature="0"
         d="M 72.457,201.992 C 67.229,215.453 58.58,227.414 47.362,236.603"
         stroke-miterlimit="10"
         id="path37" /><path
         style="fill:none;stroke:#000000;stroke-width:8;stroke-linecap:round;stroke-miterlimit:10;stroke-opacity:0.68137255"
         inkscape:connector-curvature="0"
         d="m 209.084,207.06 c 4.162,-25.266 3.9,-51.697 -1.461,-78.287 l 0.01,-0.007 c -7.31,-36.25 -42.617,-59.709 -78.865,-52.4 -36.25,7.31 -59.71,42.618 -52.4,78.869 l 0.078,-0.016 c 1.736,8.61 2.084,17.178 1.197,25.47"
         stroke-miterlimit="10"
         id="path39" /><path
         style="fill:none;stroke:#000000;stroke-width:8;stroke-linecap:round;stroke-miterlimit:10;stroke-opacity:0.68137255"
         inkscape:connector-curvature="0"
         d="m 190.006,266.909 c 6.068,-12.456 10.967,-25.52 14.582,-39.021"
         stroke-miterlimit="10"
         id="path41" /><path
         style="fill:none;stroke:#000000;stroke-width:8;stroke-linecap:round;stroke-miterlimit:10;stroke-opacity:0.68137255"
         inkscape:connector-curvature="0"
         d="m 209.666,92.758 c 6.883,9.447 11.887,20.496 14.35,32.705 l 0.005,0.004 c 9.095,45.104 4.563,89.789 -10.744,129.806"
         stroke-miterlimit="10"
         id="path43" /><path
         style="fill:none;stroke:#000000;stroke-width:8;stroke-linecap:round;stroke-miterlimit:10;stroke-opacity:0.68137255"
         inkscape:connector-curvature="0"
         d="m 107.07,65.952 c 5.76,-2.64 11.913,-4.663 18.393,-5.969 25.609,-5.163 50.842,1.962 69.588,17.315"
         stroke-miterlimit="10"
         id="path45" /><path
         style="fill:none;stroke:#000000;stroke-width:8;stroke-linecap:round;stroke-miterlimit:10;stroke-opacity:0.68137255"
         inkscape:connector-curvature="0"
         d="m 36.275,224.05 c 18.902,-15.185 28.896,-40.118 23.771,-65.524 l -0.063,0.014 c -6.366,-31.567 5.94,-62.562 29.315,-81.544"
         stroke-miterlimit="10"
         id="path47" /><path
         style="fill:none;stroke:#000000;stroke-width:8;stroke-linecap:round;stroke-miterlimit:10;stroke-opacity:0.68137255"
         inkscape:connector-curvature="0"
         d="m 41.684,145.976 c 0.215,5.25 0.844,10.552 1.916,15.867 l 0.051,-0.013 c 3.752,18.607 -3.295,36.881 -16.821,48.343"
         stroke-miterlimit="10"
         id="path49" /><path
         style="fill:none;stroke:#000000;stroke-width:8;stroke-linecap:round;stroke-miterlimit:10;stroke-opacity:0.68137255"
         inkscape:connector-curvature="0"
         d="m 242.69,135.156 c -0.642,-4.326 -1.399,-8.658 -2.272,-12.994 l -0.02,-0.001 C 229.44,67.813 176.506,32.643 122.16,43.6 80.395,52.022 49.953,85.235 43.072,124.829"
         stroke-miterlimit="10"
         id="path51" /><path
         style="fill:none;stroke:#000000;stroke-width:8;stroke-linecap:round;stroke-miterlimit:10;stroke-opacity:0.68137255"
         inkscape:connector-curvature="0"
         d="m 236.983,236.258 c 6.826,-25.603 9.664,-52.564 7.931,-80.029"
         stroke-miterlimit="10"
         id="path53" /><path
         style="fill:none;stroke:#000000;stroke-width:8;stroke-linecap:round;stroke-miterlimit:10;stroke-opacity:0.68137255"
         inkscape:connector-curvature="0"
         d="M 157.688,25.931 C 145.096,24.23 132.013,24.565 118.858,27.218 55.461,40 14.432,101.75 27.215,165.146 l 0.039,-0.01 c 2.219,11 -1.225,21.823 -8.313,29.47"
         stroke-miterlimit="10"
         id="path55" /><path
         style="fill:none;stroke:#000000;stroke-width:8;stroke-linecap:round;stroke-miterlimit:10;stroke-opacity:0.68137255"
         inkscape:connector-curvature="0"
         d="m 260.104,204.896 c 3.479,-27.945 2.584,-56.916 -3.289,-86.041 l -0.033,0.002 C 248.089,75.745 216.751,42.979 177.653,30.444"
         stroke-miterlimit="10"
         id="path57" /></g><g
       style="fill:#ffffff"
       transform="matrix(1.5625,0,0,1.5749999,-15.041366,-2.1096201)"
       id="g3849"><path
         sodipodi:type="arc"
         style="fill:#ffffff;fill-opacity:1;stroke:none"
         id="path3847"
         sodipodi:cx="-24.375"
         sodipodi:cy="-7.234272"
         sodipodi:rx="9"
         sodipodi:ry="9.0625"
         d="m -15.375,-7.234272 c 0,5.0050805 -4.029437,9.0625 -9,9.0625 -4.970563,0 -9,-4.0574195 -9,-9.0625 0,-5.005081 4.029437,-9.0625 9,-9.0625 4.970563,0 9,4.057419 9,9.0625 z"
         transform="matrix(0.57670088,0,0,0.56508731,40.977481,6.0690198)" /></g><path
       id="path3"
       d="m 26.932443,-7.7046408 c -4.778037,0 -8.650514,3.9034951 -8.650514,8.7197977 0,4.8161763 3.872477,8.7196404 8.650514,8.7196404 4.778036,0 8.650513,-3.9034641 8.650513,-8.7196404 0,-4.8163026 -3.872477,-8.7197977 -8.650513,-8.7197977 z m 0,16.7418549 c -4.388139,0 -7.958473,-3.5989222 -7.958473,-8.0220572 0,-4.4232456 3.570334,-8.0222145 7.958473,-8.0222145 4.388104,0 7.958472,3.5989374 7.958472,8.0222145 0,4.423135 -3.570368,8.0220572 -7.958472,8.0220572 z"
       inkscape:connector-curvature="0"
       style="fill:#666666" /><polygon
       id="polygon5"
       points="255.863,269.75 354.461,368.361 368.545,354.275 269.947,255.672 368.545,157.073 354.461,142.988 255.863,241.587 157.733,143.456 143.648,157.54 241.78,255.672 143.648,353.809 157.733,367.893 "
       style="fill:#ff5555"
       transform="matrix(0.03474102,0,0,0.03501894,18.372883,-7.748573)" /></g></svg>