<?xml version="1.0" encoding="UTF-8" standalone="no"?>
<svg
   xmlns:dc="http://purl.org/dc/elements/1.1/"
   xmlns:cc="http://creativecommons.org/ns#"
   xmlns:rdf="http://www.w3.org/1999/02/22-rdf-syntax-ns#"
   xmlns:svg="http://www.w3.org/2000/svg"
   xmlns="http://www.w3.org/2000/svg"
   xmlns:sodipodi="http://sodipodi.sourceforge.net/DTD/sodipodi-0.dtd"
   xmlns:inkscape="http://www.inkscape.org/namespaces/inkscape"
   enable-background="new 0 0 48 48"
   height="18"
   id="Layer_1"
   version="1.1"
   viewBox="0 0 15 18"
   width="15"
   xml:space="preserve"
   inkscape:version="0.48.4 r9939"
   sodipodi:docname="1441122088_12.File.svg"><metadata
     id="metadata9"><rdf:RDF><cc:Work
         rdf:about=""><dc:format>image/svg+xml</dc:format><dc:type
           rdf:resource="http://purl.org/dc/dcmitype/StillImage" /><dc:title></dc:title></cc:Work></rdf:RDF></metadata><defs
     id="defs7" /><sodipodi:namedview
     pagecolor="#ffffff"
     bordercolor="#666666"
     borderopacity="1"
     objecttolerance="10"
     gridtolerance="10"
     guidetolerance="10"
     inkscape:pageopacity="0"
     inkscape:pageshadow="2"
     inkscape:window-width="1920"
     inkscape:window-height="1017"
     id="namedview5"
     showgrid="false"
     fit-margin-top="0"
     fit-margin-left="0"
     fit-margin-right="0"
     fit-margin-bottom="0"
     inkscape:zoom="4.9166667"
     inkscape:cx="17"
     inkscape:cy="23"
     inkscape:window-x="-4"
     inkscape:window-y="-4"
     inkscape:window-maximized="1"
     inkscape:current-layer="Layer_1" /><path
     clip-rule="evenodd"
     d="M 13.235296,18 H 1.7647059 C 0.7901474,18 0,17.299174 0,16.434783 V 1.565217 C 0,0.700826 0.7901474,0 1.7647059,0 h 8.3704391 c 8.81e-4,0 0.0024,0 0.0032,0 h 0.0085 0 c 0.141176,0 0.261617,0.063 0.342353,0.154565 l 4.336323,3.846131 C 14.929415,4.072304 15,4.17913 15,4.304348 l 0,0 v 0.0082 c 0,7.83e-4 0,0.0012 0,0.002 V 16.434783 C 15,17.299174 14.209855,18 13.235296,18 z M 10.588237,1.323 v 2.590043 h 2.920144 L 10.588237,1.323 z m 3.529408,3.372652 h -3.970586 c -0.243974,0 -0.441178,-0.175304 -0.441178,-0.391304 V 0.782609 H 1.7647059 c -0.4870585,0 -0.8823533,0.350608 -0.8823533,0.782608 v 14.869566 c 0,0.432 0.3952948,0.782608 0.8823533,0.782608 H 13.235296 c 0.487059,0 0.882349,-0.350608 0.882349,-0.782608 V 4.695652 z m -2.64706,10.173913 h -7.94117 c -0.243974,0 -0.441178,-0.174913 -0.441178,-0.391304 0,-0.216 0.197204,-0.391304 0.441178,-0.391304 h 7.94117 c 0.243974,0 0.441178,0.175304 0.441178,0.391304 0,0.216391 -0.197204,0.391304 -0.441178,0.391304 z m 0,-3.130435 h -7.94117 c -0.243974,0 -0.441178,-0.174913 -0.441178,-0.391304 0,-0.216 0.197204,-0.391304 0.441178,-0.391304 h 7.94117 c 0.243974,0 0.441178,0.175304 0.441178,0.391304 0,0.216391 -0.197204,0.391304 -0.441178,0.391304 z m 0,-3.130434 h -7.94117 c -0.243974,0 -0.441178,-0.174913 -0.441178,-0.391305 0,-0.216 0.197204,-0.391304 0.441178,-0.391304 h 7.94117 c 0.243974,0 0.441178,0.175304 0.441178,0.391304 0,0.216392 -0.197204,0.391305 -0.441178,0.391305 z"
     id="path3"
     style="fill:#666666;fill-rule:evenodd"
     inkscape:connector-curvature="0" /></svg>