<?xml version="1.0" encoding="UTF-8" standalone="no"?>
<svg
   xmlns:dc="http://purl.org/dc/elements/1.1/"
   xmlns:cc="http://creativecommons.org/ns#"
   xmlns:rdf="http://www.w3.org/1999/02/22-rdf-syntax-ns#"
   xmlns:svg="http://www.w3.org/2000/svg"
   xmlns="http://www.w3.org/2000/svg"
   xmlns:sodipodi="http://sodipodi.sourceforge.net/DTD/sodipodi-0.dtd"
   xmlns:inkscape="http://www.inkscape.org/namespaces/inkscape"
   enable-background="new 0 0 48 48"
   height="30"
   id="Layer_1"
   version="1.1"
   viewBox="0 0 30 30"
   width="30"
   xml:space="preserve"
   inkscape:version="0.48.4 r9939"
   sodipodi:docname="load-history.svg"><metadata
     id="metadata9"><rdf:RDF><cc:Work
         rdf:about=""><dc:format>image/svg+xml</dc:format><dc:type
           rdf:resource="http://purl.org/dc/dcmitype/StillImage" /><dc:title /></cc:Work></rdf:RDF></metadata><defs
     id="defs7" /><sodipodi:namedview
     pagecolor="#ffffff"
     bordercolor="#666666"
     borderopacity="1"
     objecttolerance="10"
     gridtolerance="10"
     guidetolerance="10"
     inkscape:pageopacity="0"
     inkscape:pageshadow="2"
     inkscape:window-width="1920"
     inkscape:window-height="1017"
     id="namedview5"
     showgrid="false"
     fit-margin-top="0"
     fit-margin-left="0"
     fit-margin-right="0"
     fit-margin-bottom="0"
     inkscape:zoom="13.906433"
     inkscape:cx="18.721334"
     inkscape:cy="2.7873686"
     inkscape:window-x="-4"
     inkscape:window-y="-4"
     inkscape:window-maximized="1"
     inkscape:current-layer="Layer_1" /><path
     inkscape:connector-curvature="0"
     id="time-4-icon"
     d="m 15.9918,7.6365308 v 7.3725602 h 6.57309 v 2.94903 H 13.04874 V 7.6365308 H 15.9918 z M 15.03009,0 C 10.94496,0 6.95208,1.640251 4.2510301,4.29852 L 1.6737301,1.716061 0,10.903681 9.1692302,9.2265909 6.5633702,6.615511 c 2.10915,-2.06535 5.2845898,-3.33882 8.4667198,-3.33882 6.46161,0 11.69979,5.2487098 11.69979,11.72331 0,6.474601 -5.23818,11.723309 -11.69979,11.723309 -6.4431,0 -11.6691898,-5.218829 -11.69907,-11.667809 l -3.25514991,0.61602 C 0.42657012,23.64408 6.9870903,30 15.03009,30 23.297702,30 30,23.28429 30,15.000001 30,6.7157109 23.297702,0 15.03009,0 z"
     style="fill:#ffffff" /></svg>