<?xml version="1.0" encoding="UTF-8" standalone="no"?>
<svg
   xmlns:dc="http://purl.org/dc/elements/1.1/"
   xmlns:cc="http://creativecommons.org/ns#"
   xmlns:rdf="http://www.w3.org/1999/02/22-rdf-syntax-ns#"
   xmlns:svg="http://www.w3.org/2000/svg"
   xmlns="http://www.w3.org/2000/svg"
   xmlns:sodipodi="http://sodipodi.sourceforge.net/DTD/sodipodi-0.dtd"
   xmlns:inkscape="http://www.inkscape.org/namespaces/inkscape"
   enable-background="new 0 0 32 32"
   height="16"
   id="Layer_1"
   version="1.1"
   viewBox="0 0 16 16"
   width="16"
   xml:space="preserve"
   inkscape:version="0.48.4 r9939"
   sodipodi:docname="logeduser.svg"><metadata
     id="metadata17"><rdf:RDF><cc:Work
         rdf:about=""><dc:format>image/svg+xml</dc:format><dc:type
           rdf:resource="http://purl.org/dc/dcmitype/StillImage" /><dc:title></dc:title></cc:Work></rdf:RDF></metadata><defs
     id="defs15" /><sodipodi:namedview
     pagecolor="#ffffff"
     bordercolor="#666666"
     borderopacity="1"
     objecttolerance="10"
     gridtolerance="10"
     guidetolerance="10"
     inkscape:pageopacity="0"
     inkscape:pageshadow="2"
     inkscape:window-width="1920"
     inkscape:window-height="1017"
     id="namedview13"
     showgrid="false"
     fit-margin-top="0"
     fit-margin-left="0"
     fit-margin-right="0"
     fit-margin-bottom="0"
     inkscape:zoom="7.375"
     inkscape:cx="14"
     inkscape:cy="14"
     inkscape:window-x="-4"
     inkscape:window-y="-4"
     inkscape:window-maximized="1"
     inkscape:current-layer="Layer_1" /><g
     id="g3"
     transform="translate(-2,-14)"><polyline
       points="   649,137.999 675,137.999 675,155.999 661,155.999  "
       stroke-miterlimit="10"
       id="polyline5"
       style="fill:none;stroke:#ffffff;stroke-width:2;stroke-linecap:round;stroke-linejoin:round;stroke-miterlimit:10" /><polyline
       points="   653,155.999 649,155.999 649,141.999  "
       stroke-miterlimit="10"
       id="polyline7"
       style="fill:none;stroke:#ffffff;stroke-width:2;stroke-linecap:round;stroke-linejoin:round;stroke-miterlimit:10" /><polyline
       points="   661,156 653,162 653,156  "
       stroke-miterlimit="10"
       id="polyline9"
       style="fill:none;stroke:#ffffff;stroke-width:2;stroke-linecap:round;stroke-linejoin:round;stroke-miterlimit:10" /></g><path
     d="M 11.398286,7.9004443 C 12.125143,7.0607409 12.571429,5.9549625 12.571429,4.7407409 12.571429,2.1268148 10.520571,0 8,0 5.4794286,0 3.4285714,2.1268148 3.4285714,4.7407409 c 0,2.6139262 2.0508572,4.7407409 4.5714286,4.7407409 0.8885714,0 1.716,-0.2684443 2.418857,-0.7253341 2.485714,0.9712603 4.197143,3.3303703 4.414857,6.0586673 H 1.1668571 c 0.148,-1.836444 0.9788572,-3.549038 2.3302858,-4.770963 C 3.7354286,9.8287409 3.76,9.4548148 3.5525714,9.2077034 3.3457143,8.9611852 2.9845714,8.9351114 2.7462857,9.1502228 1.0005714,10.727703 0,13.008 0,15.407408 0,15.735111 0.256,16 0.57142855,16 H 15.428571 C 15.744571,16 16,15.735111 16,15.407408 16,12.156444 14.182857,9.2533329 11.398286,7.9004443 z M 4.5714286,4.7407409 C 4.5714286,2.7798523 6.1091429,1.1851852 8,1.1851852 c 1.8908566,0 3.428571,1.5946671 3.428571,3.5555557 0,1.9608886 -1.5377144,3.5555557 -3.428571,3.5555557 -1.8908571,0 -3.4285714,-1.5946671 -3.4285714,-3.5555557 z"
     id="path11"
     inkscape:connector-curvature="0"
     style="fill:#666666" /></svg>