<?xml version="1.0" encoding="UTF-8" standalone="no"?>
<svg
   xmlns:dc="http://purl.org/dc/elements/1.1/"
   xmlns:cc="http://creativecommons.org/ns#"
   xmlns:rdf="http://www.w3.org/1999/02/22-rdf-syntax-ns#"
   xmlns:svg="http://www.w3.org/2000/svg"
   xmlns="http://www.w3.org/2000/svg"
   xmlns:sodipodi="http://sodipodi.sourceforge.net/DTD/sodipodi-0.dtd"
   xmlns:inkscape="http://www.inkscape.org/namespaces/inkscape"
   enable-background="new 0 0 91.8 92.6"
   id="Layer_1"
   version="1.0"
   viewBox="0 0 16.999999 17"
   xml:space="preserve"
   inkscape:version="0.91 r13725"
   sodipodi:docname="nouveau.svg"
   width="17"
   height="17"><metadata
     id="metadata9"><rdf:RDF><cc:Work
         rdf:about=""><dc:format>image/svg+xml</dc:format><dc:type
           rdf:resource="http://purl.org/dc/dcmitype/StillImage" /><dc:title></dc:title></cc:Work></rdf:RDF></metadata><defs
     id="defs7" /><sodipodi:namedview
     pagecolor="#ffffff"
     bordercolor="#666666"
     borderopacity="1"
     objecttolerance="10"
     gridtolerance="10"
     guidetolerance="10"
     inkscape:pageopacity="0"
     inkscape:pageshadow="2"
     inkscape:window-width="1366"
     inkscape:window-height="705"
     id="namedview5"
     showgrid="false"
     fit-margin-top="0"
     fit-margin-left="0"
     fit-margin-right="0"
     fit-margin-bottom="0"
     inkscape:zoom="10.194385"
     inkscape:cx="-4.9997577"
     inkscape:cy="10.97554"
     inkscape:window-x="-4"
     inkscape:window-y="-4"
     inkscape:window-maximized="1"
     inkscape:current-layer="Layer_1" /><ellipse
     style="fill:#ffffff"
     id="path3333"
     cx="8.5374174"
     cy="8.6899691"
     rx="8.2882738"
     ry="8.3100309" /><path
     d="M 8.499999,0 C 3.7999992,0 -9.5367432e-7,3.762441 -9.5367432e-7,8.4159849 -9.5367432e-7,13.069531 3.7999992,16.831972 8.499999,16.831972 c 4.699999,0 8.5,-3.762441 8.5,-8.4159871 C 16.999999,3.762441 13.199998,0 8.499999,0 Z m 5.3,9.7625453 -3.9599998,0 0,3.9208587 c 0,0.396044 -0.32,0.712883 -0.7200001,0.712883 l -1.2400001,0 c -0.3999999,0 -0.72,-0.316839 -0.72,-0.712883 l 0,-3.9208587 -3.9599999,0 c -0.3999999,0 -0.72,-0.3168388 -0.72,-0.7128854 l 0,-1.2277449 c 0,-0.3960442 0.3200001,-0.7128829 0.72,-0.7128829 l 3.9599999,0 0,-3.9208584 c 0,-0.3960466 0.3200001,-0.7128839 0.72,-0.7128839 l 1.2400001,0 c 0.4000001,0 0.7200001,0.3168373 0.7200001,0.7128839 l 0,3.9208584 3.9599998,0 c 0.4,0 0.72,0.3168387 0.72,0.7128829 l 0,1.2277449 c 0,0.3762441 -0.32,0.7128854 -0.72,0.7128854 z"
     id="path3"
     style="fill:#36bbc2;fill-opacity:1"
     inkscape:connector-curvature="0" /></svg>