<?xml version="1.0" encoding="UTF-8" standalone="no"?>
<!-- Generator: Adobe Illustrator 16.0.4, SVG Export Plug-In . SVG Version: 6.00 Build 0)  -->

<svg
   xmlns:dc="http://purl.org/dc/elements/1.1/"
   xmlns:cc="http://creativecommons.org/ns#"
   xmlns:rdf="http://www.w3.org/1999/02/22-rdf-syntax-ns#"
   xmlns:svg="http://www.w3.org/2000/svg"
   xmlns="http://www.w3.org/2000/svg"
   xmlns:sodipodi="http://sodipodi.sourceforge.net/DTD/sodipodi-0.dtd"
   xmlns:inkscape="http://www.inkscape.org/namespaces/inkscape"
   version="1.1"
   id="Capa_1"
   x="0px"
   y="0px"
   width="16.958"
   height="17.949999"
   viewBox="0 0 16.958 17.949999"
   xml:space="preserve"
   inkscape:version="0.48.4 r9939"
   sodipodi:docname="open.svg"><metadata
   id="metadata43"><rdf:RDF><cc:Work
       rdf:about=""><dc:format>image/svg+xml</dc:format><dc:type
         rdf:resource="http://purl.org/dc/dcmitype/StillImage" /></cc:Work></rdf:RDF></metadata><defs
   id="defs41">
	
	
</defs><sodipodi:namedview
   pagecolor="#ffffff"
   bordercolor="#666666"
   borderopacity="1"
   objecttolerance="10"
   gridtolerance="10"
   guidetolerance="10"
   inkscape:pageopacity="0"
   inkscape:pageshadow="2"
   inkscape:window-width="1920"
   inkscape:window-height="1017"
   id="namedview39"
   showgrid="true"
   showguides="false"
   fit-margin-top="0"
   fit-margin-left="0"
   fit-margin-right="0"
   fit-margin-bottom="0"
   inkscape:zoom="8.3878306"
   inkscape:cx="24.771401"
   inkscape:cy="20.650799"
   inkscape:window-x="-4"
   inkscape:window-y="-4"
   inkscape:window-maximized="1"
   inkscape:current-layer="Capa_1"><inkscape:grid
     type="xygrid"
     id="grid3022"
     empspacing="5"
     visible="true"
     enabled="true"
     snapvisiblegridlinesonly="true"
     originx="-3.7316845e-007px"
     originy="-5.1264746px" /></sodipodi:namedview>
<g
   id="g3024"
   style="fill:#808080"
   transform="matrix(0.91873445,0,0,0.90427364,-3.7316846e-7,-2.856907)"><path
     sodipodi:nodetypes="ccssscsscscsccsssc"
     d="m 3.773805,8.5988348 4.985,-3.9309781 -0.066842,10.8681123 c -0.00134,0.217638 0.224,0.39428 0.5,0.39428 0.276,0 0.4986613,-0.176642 0.5,-0.39428 l 0.066842,-10.8673237 4.985,3.930978 c 0.098,0.077279 0.226,0.11513 0.354,0.11513 0.128,0 0.256,-0.038639 0.354,-0.11513 0.195,-0.1537694 0.195,-0.4037433 0,-0.5575128 l -5.838,-4.6036208 c 0,0 0,0 -10e-4,-7.886e-4 l -0.353,-0.2783621 -0.353,0.2783621 c 0,0 0,0 -10e-4,7.886e-4 l -5.838,4.6036208 c -0.195,0.1537695 -0.195,0.4037434 0,0.5575128 0.195,0.1537695 0.51,0.1529809 0.706,-7.885e-4 z"
     id="path5"
     inkscape:connector-curvature="0"
     style="fill:#808080" /><polygon
     transform="matrix(1,0,0,0.72224768,0,2.6883647)"
     points="1,10.679 6.01,10.679 6.01,9.679 0,9.679 0,28.136 18.458,28.136 18.458,9.679 12.447,9.679 12.447,10.679 17.458,10.679 17.458,27.136 1,27.136 "
     id="polygon7"
     style="fill:#808080" /></g>
<g
   id="g9"
   transform="translate(-3.7316846e-7,-5.0595245)">
</g>
<g
   id="g11"
   transform="translate(-3.7316846e-7,-5.0595245)">
</g>
<g
   id="g13"
   transform="translate(-3.7316846e-7,-5.0595245)">
</g>
<g
   id="g15"
   transform="translate(-3.7316846e-7,-5.0595245)">
</g>
<g
   id="g17"
   transform="translate(-3.7316846e-7,-5.0595245)">
</g>
<g
   id="g19"
   transform="translate(-3.7316846e-7,-5.0595245)">
</g>
<g
   id="g21"
   transform="translate(-3.7316846e-7,-5.0595245)">
</g>
<g
   id="g23"
   transform="translate(-3.7316846e-7,-5.0595245)">
</g>
<g
   id="g25"
   transform="translate(-3.7316846e-7,-5.0595245)">
</g>
<g
   id="g27"
   transform="translate(-3.7316846e-7,-5.0595245)">
</g>
<g
   id="g29"
   transform="translate(-3.7316846e-7,-5.0595245)">
</g>
<g
   id="g31"
   transform="translate(-3.7316846e-7,-5.0595245)">
</g>
<g
   id="g33"
   transform="translate(-3.7316846e-7,-5.0595245)">
</g>
<g
   id="g35"
   transform="translate(-3.7316846e-7,-5.0595245)">
</g>
<g
   id="g37"
   transform="translate(-3.7316846e-7,-5.0595245)">
</g>
</svg>