<?xml version="1.0" encoding="UTF-8" standalone="no"?>
<svg
   xmlns:dc="http://purl.org/dc/elements/1.1/"
   xmlns:cc="http://creativecommons.org/ns#"
   xmlns:rdf="http://www.w3.org/1999/02/22-rdf-syntax-ns#"
   xmlns:svg="http://www.w3.org/2000/svg"
   xmlns="http://www.w3.org/2000/svg"
   xmlns:xlink="http://www.w3.org/1999/xlink"
   xmlns:sodipodi="http://sodipodi.sourceforge.net/DTD/sodipodi-0.dtd"
   xmlns:inkscape="http://www.inkscape.org/namespaces/inkscape"
   height="18"
   version="1.1"
   viewBox="0 0 17.972 18"
   width="17.972"
   id="svg2"
   inkscape:version="0.48.4 r9939"
   sodipodi:docname="1441307005_editor_pencil_pen_edit_write.svg">
  <metadata
     id="metadata17">
    <rdf:RDF>
      <cc:Work
         rdf:about="">
        <dc:format>image/svg+xml</dc:format>
        <dc:type
           rdf:resource="http://purl.org/dc/dcmitype/StillImage" />
        <dc:title></dc:title>
      </cc:Work>
    </rdf:RDF>
  </metadata>
  <sodipodi:namedview
     pagecolor="#ffffff"
     bordercolor="#666666"
     borderopacity="1"
     objecttolerance="10"
     gridtolerance="10"
     guidetolerance="10"
     inkscape:pageopacity="0"
     inkscape:pageshadow="2"
     inkscape:window-width="1920"
     inkscape:window-height="1017"
     id="namedview15"
     showgrid="false"
     fit-margin-top="0"
     fit-margin-left="0"
     fit-margin-right="0"
     fit-margin-bottom="0"
     inkscape:zoom="10.727273"
     inkscape:cx="-0.70676853"
     inkscape:cy="14.507571"
     inkscape:window-x="-4"
     inkscape:window-y="-4"
     inkscape:window-maximized="1"
     inkscape:current-layer="svg2" />
  <defs
     id="defs6">
    <path
       d="m 7.5232291,19.520815 0,-15.9999997 0,0 4.9940739,0 0,15.9999997 -4.9940739,0 z m -1.0024138,0.478028 0,-20.47561389 c 0,-1.00241381 1.0024138,-1.00241381 1.0024138,-1.00241381 l 4.9940739,-1e-7 c 0,0 1.002414,0 1.002414,1.00241386 l 0,2.99758624 0.0011,0 0,1 -0.0011,0 0,15.9999997 0.0011,0 0,1 -6.9999997,0 0,-0.521972 z m 1.0024138,-17.4780277 0,-2.99758619 4.9940739,-5e-8 0,2.99758624 -4.9940739,0 0,0 z m 2.4975859,21.0518797 -1.9992673,-3.05188 -1.5173778,0 3.5166451,4.986756 3.498413,-4.986756 -1.295563,0 -2.20285,3.05188 z"
       id="path-1"
       inkscape:connector-curvature="0" />
  </defs>
  <use
     transform="matrix(0.47476313,0.47163587,-0.47476313,0.47163587,11.115468,-1.3912066)"
     xlink:href="#path-1"
     id="use11"
     style="fill:#666666;fill-rule:evenodd;stroke:none"
     x="0"
     y="0"
     width="22"
     height="22" />
  <use
     xlink:href="#path-1"
     id="use13"
     style="fill:none;stroke:none"
     x="0"
     y="0"
     width="22"
     height="22"
     transform="matrix(0.67141646,0,0,0.66699385,3.4378016,0.98660716)" />
  <path
     style="fill:#333333;fill-opacity:1;fill-rule:nonzero;stroke:none"
     id="path2998"
     d="m 2.6415218,14.864829 c -0.0545,-0.232507 -0.1012783,-0.669918 -0.3937006,-0.707469 -0.054041,-0.0069 -0.1081303,0.01351 -0.1621949,0.02027 -0.063695,0.02811 -0.1297848,0.05081 -0.1910802,0.08434 -0.074727,0.04088 -0.2902799,0.179788 -0.2158654,0.138275 0.2887978,-0.161112 0.5630892,-0.351908 0.8593078,-0.497232 0.088369,-0.04336 -0.1554317,0.124194 -0.23109,0.189031 -0.1677162,0.143727 -0.2563635,0.232464 -0.4144442,0.3837 C 1.4230169,14.860689 1.208029,15.055646 0.4273921,15.318248 0.3449991,15.345968 0.2965981,15.193108 0.2564216,15.11227 0.0427649,14.682374 0.0538447,13.888471 0.026569,13.431257 0.017719,13.115153 0.008855,12.79905 0,12.482947 c 0,0 1.0706208,-0.581702 1.0706208,-0.581702 l 0,0 c 0.015415,0.310785 0.030832,0.62157 0.046255,0.932355 0.036655,0.422519 0.055788,0.847519 0.1477895,1.262458 0.023028,0.103851 0.051552,0.208381 0.099605,0.302204 0.02139,0.04176 0.1375837,0.06274 0.1025687,0.09254 -0.2928895,0.249251 -0.6356859,0.424968 -0.9558139,0.633576 -0.064468,0.04201 0.1258187,-0.08914 0.1887277,-0.133711 0.1857938,-0.180781 0.4338304,-0.450307 0.6428927,-0.590328 0.4407259,-0.295178 0.8901929,-0.575688 1.3405077,-0.854271 0.075434,-0.04667 0.1536019,-0.08994 0.2359432,-0.120985 0.070903,-0.02673 0.1470733,-0.0341 0.22061,-0.05114 0.065841,0.01031 0.1350354,0.0067 0.1975239,0.03094 0.3123671,0.120995 0.3806344,0.525797 0.4663228,0.817715 0,0 -1.1620271,0.642236 -1.1620271,0.642236 z"
     inkscape:connector-curvature="0" />
</svg>
