<?xml version="1.0" encoding="UTF-8" standalone="no"?>
<svg
   xmlns:dc="http://purl.org/dc/elements/1.1/"
   xmlns:cc="http://creativecommons.org/ns#"
   xmlns:rdf="http://www.w3.org/1999/02/22-rdf-syntax-ns#"
   xmlns:svg="http://www.w3.org/2000/svg"
   xmlns="http://www.w3.org/2000/svg"
   xmlns:sodipodi="http://sodipodi.sourceforge.net/DTD/sodipodi-0.dtd"
   xmlns:inkscape="http://www.inkscape.org/namespaces/inkscape"
   enable-background="new 0 0 512 512"
   height="14.000002"
   id="Layer_1"
   version="1.1"
   viewBox="0 0 17.999998 14.000002"
   width="17.999998"
   xml:space="preserve"
   inkscape:version="0.48.4 r9939"
   sodipodi:docname="take-picture.svg"><metadata
     id="metadata15"><rdf:RDF><cc:Work
         rdf:about=""><dc:format>image/svg+xml</dc:format><dc:type
           rdf:resource="http://purl.org/dc/dcmitype/StillImage" /><dc:title /></cc:Work></rdf:RDF></metadata><defs
     id="defs13" /><sodipodi:namedview
     pagecolor="#ffffff"
     bordercolor="#666666"
     borderopacity="1"
     objecttolerance="10"
     gridtolerance="10"
     guidetolerance="10"
     inkscape:pageopacity="0"
     inkscape:pageshadow="2"
     inkscape:window-width="1920"
     inkscape:window-height="1017"
     id="namedview11"
     showgrid="false"
     fit-margin-top="0"
     fit-margin-left="0"
     fit-margin-right="0"
     fit-margin-bottom="0"
     inkscape:zoom="10.429825"
     inkscape:cx="46.017473"
     inkscape:cy="32.074807"
     inkscape:window-x="-4"
     inkscape:window-y="-4"
     inkscape:window-maximized="1"
     inkscape:current-layer="Layer_1" /><g
     id="g3"
     transform="matrix(0.03593352,0,0,0.03677485,-0.20288065,-2.4015816)"
     style="fill:#808080"><path
       d="M 466.488,125.414 H 383.622 L 335.448,77.123 c -0.058,-0.058 -0.107,-0.097 -0.156,-0.156 l -0.088,-0.078 0,0 C 327.965,69.728 318.025,65.305 307.038,65.305 H 206.853 c -11.642,0 -22.022,5.029 -29.351,12.954 l -0.039,-0.117 -47.176,47.273 H 45.719 c -22.13,0 -40.073,17.944 -40.073,40.073 v 240.439 c 0,22.13 17.943,40.073 40.073,40.073 h 420.769 c 22.14,0 40.083,-17.943 40.083,-40.073 V 165.488 c 0,-22.13 -17.943,-40.074 -40.083,-40.074 z m 20.046,280.513 c 0,11.036 -9.001,20.037 -20.047,20.037 H 45.719 c -11.045,0 -20.037,-9 -20.037,-20.037 V 165.488 c 0,-11.055 8.991,-20.037 20.037,-20.037 h 84.568 8.306 l 5.88,-5.889 24.253,-24.302 0.49,1.468 23.001,-24.87 c 3.893,-4.207 9.089,-6.516 14.636,-6.516 h 100.183 c 5.293,0 10.302,2.055 14.225,5.929 l 48.174,48.292 5.87,5.889 h 8.316 82.866 c 11.045,0 20.047,8.981 20.047,20.037 v 240.438 z"
       id="path5"
       inkscape:connector-curvature="0"
       style="fill:#808080" /><path
       d="m 256.103,145.451 c -71.928,0 -130.238,58.29 -130.238,130.219 0,71.929 58.31,130.257 130.238,130.257 71.928,0 130.238,-58.329 130.238,-130.257 0,-71.928 -58.309,-130.219 -130.238,-130.219 z m 0,240.439 c -60.765,0 -110.201,-49.445 -110.201,-110.22 0,-60.756 49.436,-110.182 110.201,-110.182 60.765,0 110.201,49.426 110.201,110.182 0.001,60.775 -49.436,110.22 -110.201,110.22 z"
       id="path7"
       inkscape:connector-curvature="0"
       style="fill:#808080" /><path
       d="m 256.103,185.524 c -49.808,0 -90.165,40.348 -90.165,90.146 0,49.798 40.357,90.184 90.165,90.184 49.808,0 90.165,-40.386 90.165,-90.184 0,-49.798 -40.357,-90.146 -90.165,-90.146 z m 0,160.293 c -38.665,0 -70.128,-31.482 -70.128,-70.147 0,-38.665 31.463,-70.109 70.128,-70.109 38.665,0 70.128,31.444 70.128,70.109 0,38.665 -31.463,70.147 -70.128,70.147 z"
       id="path9"
       inkscape:connector-curvature="0"
       style="fill:#808080" /></g></svg>