<?xml version="1.0" encoding="UTF-8" standalone="no"?>
<!-- Generator: Adobe Illustrator 18.1.1, SVG Export Plug-In . SVG Version: 6.00 Build 0)  -->

<svg
   xmlns:dc="http://purl.org/dc/elements/1.1/"
   xmlns:cc="http://creativecommons.org/ns#"
   xmlns:rdf="http://www.w3.org/1999/02/22-rdf-syntax-ns#"
   xmlns:svg="http://www.w3.org/2000/svg"
   xmlns="http://www.w3.org/2000/svg"
   xmlns:sodipodi="http://sodipodi.sourceforge.net/DTD/sodipodi-0.dtd"
   xmlns:inkscape="http://www.inkscape.org/namespaces/inkscape"
   version="1.1"
   id="Capa_1"
   x="0px"
   y="0px"
   viewBox="0 0 25 21.999998"
   xml:space="preserve"
   inkscape:version="0.48.4 r9939"
   width="100%"
   height="100%"
   sodipodi:docname="credit card3.svg"><metadata
   id="metadata47"><rdf:RDF><cc:Work
       rdf:about=""><dc:format>image/svg+xml</dc:format><dc:type
         rdf:resource="http://purl.org/dc/dcmitype/StillImage" /><dc:title></dc:title></cc:Work></rdf:RDF></metadata><defs
   id="defs45" /><sodipodi:namedview
   pagecolor="#ffffff"
   bordercolor="#666666"
   borderopacity="1"
   objecttolerance="10"
   gridtolerance="10"
   guidetolerance="10"
   inkscape:pageopacity="0"
   inkscape:pageshadow="2"
   inkscape:window-width="1920"
   inkscape:window-height="1017"
   id="namedview43"
   showgrid="false"
   fit-margin-top="0"
   fit-margin-left="0"
   fit-margin-right="0"
   fit-margin-bottom="0"
   inkscape:zoom="4.3628311"
   inkscape:cx="71.240543"
   inkscape:cy="-14.041155"
   inkscape:window-x="-4"
   inkscape:window-y="-4"
   inkscape:window-maximized="1"
   inkscape:current-layer="Capa_1" />
<g
   id="g3"
   style="fill:#9b59b6;fill-opacity:1"
   transform="matrix(0.04084996,0,0,0.04032786,9.466952e-6,-1.3402466)">
	<g
   id="g5"
   style="fill:#9b59b6;fill-opacity:1">
		<path
   d="M 588.63,113.193 213.812,33.871 c -15.858,-3.355 -31.576,6.876 -34.931,22.734 l -7.121,45.762 432.477,91.519 7.121,-45.762 c 3.355,-15.852 -6.87,-31.575 -22.728,-34.931 z"
   id="path7"
   style="fill:#9b59b6;fill-opacity:1"
   inkscape:connector-curvature="0" />
		<path
   d="m 431.009,203.591 c -4.378,-15.766 -20.854,-25.085 -36.615,-20.714 L 323.24,202.63 155.498,167.13 137.05,254.295 21.786,286.287 c -15.76,4.372 -25.079,20.848 -20.708,36.609 l 64.958,234.078 c 4.378,15.76 20.855,25.085 36.615,20.708 L 475.259,474.279 c 15.76,-4.378 25.079,-20.848 20.708,-36.615 l -11.15,-40.184 41.789,8.835 c 15.858,3.361 31.576,-6.87 34.931,-22.728 L 587.976,258.65 437.45,226.797 431.009,203.591 z m 43.031,118.968 9.215,-43.552 c 1.384,-6.521 7.85,-10.727 14.37,-9.35 l 43.552,9.221 c 6.527,1.384 10.733,7.843 9.356,14.37 l -9.215,43.552 c -1.384,6.521 -7.849,10.733 -14.37,9.35 l -43.552,-9.215 c -6.533,-1.389 -10.74,-7.855 -9.356,-14.376 z M 28.27,309.646 131.385,281.04 l 243.299,-67.517 26.181,-7.274 c 0.478,-0.129 0.955,-0.19 1.421,-0.19 2.1,0 4.611,1.378 5.345,4.017 l 3.074,11.07 9.631,34.704 L 37.148,362.186 24.443,316.418 c -0.796,-2.872 0.956,-5.976 3.827,-6.772 z m 444.331,134.495 c 0.49,1.776 -0.024,3.245 -0.545,4.164 -0.514,0.918 -1.506,2.119 -3.282,2.608 L 96.173,554.316 c -0.471,0.129 -0.955,0.196 -1.421,0.196 -2.1,0 -4.611,-1.384 -5.345,-4.023 L 51.519,413.955 434.707,307.613 l 23.371,84.208 14.523,52.32 z"
   id="path9"
   style="fill:#9b59b6;fill-opacity:1"
   inkscape:connector-curvature="0" />
		<path
   d="m 156.379,453.484 c -1.788,-6.429 -8.499,-10.225 -14.928,-8.443 l -43.515,12.08 c -6.423,1.782 -10.225,8.499 -8.437,14.928 l 12.074,43.509 c 1.788,6.429 8.499,10.225 14.928,8.437 l 43.515,-12.074 c 6.429,-1.782 10.225,-8.499 8.443,-14.928 l -12.08,-43.509 z"
   id="path11"
   style="fill:#9b59b6;fill-opacity:1"
   inkscape:connector-curvature="0" />
	</g>
</g>
<g
   id="g13"
   transform="translate(2.3174936e-4,-556.76233)">
</g>
<g
   id="g15"
   transform="translate(2.3174936e-4,-556.76233)">
</g>
<g
   id="g17"
   transform="translate(2.3174936e-4,-556.76233)">
</g>
<g
   id="g19"
   transform="translate(2.3174936e-4,-556.76233)">
</g>
<g
   id="g21"
   transform="translate(2.3174936e-4,-556.76233)">
</g>
<g
   id="g23"
   transform="translate(2.3174936e-4,-556.76233)">
</g>
<g
   id="g25"
   transform="translate(2.3174936e-4,-556.76233)">
</g>
<g
   id="g27"
   transform="translate(2.3174936e-4,-556.76233)">
</g>
<g
   id="g29"
   transform="translate(2.3174936e-4,-556.76233)">
</g>
<g
   id="g31"
   transform="translate(2.3174936e-4,-556.76233)">
</g>
<g
   id="g33"
   transform="translate(2.3174936e-4,-556.76233)">
</g>
<g
   id="g35"
   transform="translate(2.3174936e-4,-556.76233)">
</g>
<g
   id="g37"
   transform="translate(2.3174936e-4,-556.76233)">
</g>
<g
   id="g39"
   transform="translate(2.3174936e-4,-556.76233)">
</g>
<g
   id="g41"
   transform="translate(2.3174936e-4,-556.76233)">
</g>
</svg>