<?xml version="1.0" encoding="UTF-8" standalone="no"?>
<!-- Generator: Adobe Illustrator 18.0.0, SVG Export Plug-In . SVG Version: 6.00 Build 0)  -->

<svg
   xmlns:dc="http://purl.org/dc/elements/1.1/"
   xmlns:cc="http://creativecommons.org/ns#"
   xmlns:rdf="http://www.w3.org/1999/02/22-rdf-syntax-ns#"
   xmlns:svg="http://www.w3.org/2000/svg"
   xmlns="http://www.w3.org/2000/svg"
   xmlns:sodipodi="http://sodipodi.sourceforge.net/DTD/sodipodi-0.dtd"
   xmlns:inkscape="http://www.inkscape.org/namespaces/inkscape"
   version="1.1"
   id="Capa_1"
   x="0px"
   y="0px"
   viewBox="0 0 25 24.999999"
   xml:space="preserve"
   inkscape:version="0.48.4 r9939"
   width="100%"
   height="100%"
   sodipodi:docname="pie chart2.svg"><metadata
   id="metadata45"><rdf:RDF><cc:Work
       rdf:about=""><dc:format>image/svg+xml</dc:format><dc:type
         rdf:resource="http://purl.org/dc/dcmitype/StillImage" /><dc:title></dc:title></cc:Work></rdf:RDF></metadata><defs
   id="defs43" /><sodipodi:namedview
   pagecolor="#ffffff"
   bordercolor="#666666"
   borderopacity="1"
   objecttolerance="10"
   gridtolerance="10"
   guidetolerance="10"
   inkscape:pageopacity="0"
   inkscape:pageshadow="2"
   inkscape:window-width="1920"
   inkscape:window-height="1017"
   id="namedview41"
   showgrid="false"
   fit-margin-top="0"
   fit-margin-left="0"
   fit-margin-right="0"
   fit-margin-bottom="0"
   inkscape:zoom="2.5441932"
   inkscape:cx="14.842573"
   inkscape:cy="-29.48814"
   inkscape:window-x="-4"
   inkscape:window-y="-4"
   inkscape:window-maximized="1"
   inkscape:current-layer="Capa_1" />
<g
   id="g3"
   style="fill:#e74c3c;fill-opacity:1"
   transform="matrix(0.06756732,0,0,0.067378,-0.03513501,-1.171873e-5)">
	<path
   d="m 190.032,170.196 c 1.067,1.065 2.514,1.666 4.023,1.666 H 364.83 c 1.614,0 3.152,-0.686 4.231,-1.885 1.08,-1.2 1.599,-2.806 1.427,-4.408 C 365.609,119.807 344.232,77.814 310.294,47.323 276.327,16.808 232.201,0 186.041,0 143.854,0 102.547,14.553 69.731,40.984 c -1.259,1.014 -2.026,2.512 -2.113,4.126 -0.087,1.615 0.517,3.187 1.659,4.33 l 120.755,120.756 z m -23.016,-64.865 48.977,-72.844 c 5.62,1.095 11.204,2.507 16.667,4.216 l -53.6,80.672 -12.044,-12.044 z m 19.025,-75.738 c 1.459,0 2.935,0.02 4.423,0.063 L 150.612,88.929 137.703,76.017 169.618,30.449 c 5.448,-0.568 10.966,-0.856 16.423,-0.856 z M 136.893,37.491 121.36,59.673 110.667,48.98 c 6.925,-3.829 14.173,-7.146 21.606,-9.874 1.522,-0.561 3.064,-1.097 4.62,-1.615 z M 282.086,142.27 313.263,95.344 c 2.145,3.027 4.198,6.156 6.139,9.352 l -25.785,37.573 h -11.531 z m 39.14,0 9.782,-14.251 c 1.858,4.678 3.488,9.444 4.876,14.251 h -14.658 z m -84.989,0 50.409,-75.871 c 1.622,1.369 3.191,2.747 4.689,4.119 2.257,2.066 4.514,4.268 6.733,6.564 l -43.313,65.187 h -18.518 z m -27.331,0 h -4.951 l -8.474,-8.477 58.802,-88.499 c 4.781,2.33 9.45,4.906 13.943,7.694 l -59.32,89.282 z"
   id="path5"
   style="fill:#e74c3c;fill-opacity:1"
   inkscape:connector-curvature="0" />
	<path
   d="M 165.58,184.373 49.962,68.754 C 48.818,67.613 47.243,67.009 45.631,67.097 44.019,67.183 42.519,67.951 41.505,69.21 15.076,102.024 0.52,143.331 0.52,185.52 c 0,57.78 26.202,111.232 71.889,146.652 1.006,0.777 2.235,1.193 3.487,1.193 0.339,0 0.681,-0.03 1.019,-0.094 1.59,-0.289 2.982,-1.239 3.828,-2.616 l 85.661,-139.277 c 1.379,-2.243 1.038,-5.14 -0.824,-7.005 z m -34.271,7.579 -60.579,98.497 C 61.288,280.078 53.321,268.58 47.018,256.21 35.8,234.205 30.112,210.423 30.112,185.521 c 0,-18.499 3.2,-36.591 9.514,-53.768 2.731,-7.436 6.044,-14.682 9.874,-21.607 l 81.809,81.806 z"
   id="path7"
   style="fill:#e74c3c;fill-opacity:1"
   inkscape:connector-curvature="0" />
	<path
   d="M 364.83,199.179 H 196.856 c -1.976,0 -3.812,1.024 -4.847,2.71 L 103.998,344.99 c -0.847,1.375 -1.069,3.048 -0.61,4.597 0.457,1.546 1.552,2.828 3.008,3.522 24.972,11.898 51.769,17.932 79.646,17.932 46.16,0 90.286,-16.808 124.253,-47.323 33.938,-30.491 55.315,-72.484 60.194,-118.246 0.172,-1.603 -0.347,-3.208 -1.427,-4.408 -1.08,-1.2 -2.618,-1.885 -4.232,-1.885 z"
   id="path9"
   style="fill:#e74c3c;fill-opacity:1"
   inkscape:connector-curvature="0" />
</g>
<g
   id="g11"
   transform="translate(-0.52,-346.04101)">
</g>
<g
   id="g13"
   transform="translate(-0.52,-346.04101)">
</g>
<g
   id="g15"
   transform="translate(-0.52,-346.04101)">
</g>
<g
   id="g17"
   transform="translate(-0.52,-346.04101)">
</g>
<g
   id="g19"
   transform="translate(-0.52,-346.04101)">
</g>
<g
   id="g21"
   transform="translate(-0.52,-346.04101)">
</g>
<g
   id="g23"
   transform="translate(-0.52,-346.04101)">
</g>
<g
   id="g25"
   transform="translate(-0.52,-346.04101)">
</g>
<g
   id="g27"
   transform="translate(-0.52,-346.04101)">
</g>
<g
   id="g29"
   transform="translate(-0.52,-346.04101)">
</g>
<g
   id="g31"
   transform="translate(-0.52,-346.04101)">
</g>
<g
   id="g33"
   transform="translate(-0.52,-346.04101)">
</g>
<g
   id="g35"
   transform="translate(-0.52,-346.04101)">
</g>
<g
   id="g37"
   transform="translate(-0.52,-346.04101)">
</g>
<g
   id="g39"
   transform="translate(-0.52,-346.04101)">
</g>
</svg>